ply
format ascii 1.0
comment Created by Blender 2.92.0 - www.blender.org
element vertex 257
property float x
property float y
property float z
property float nx
property float ny
property float nz
element face 510
property list uchar uint vertex_indices
end_header
3.214600 1.558401 -23.846800 -0.126072 0.737266 -0.663717
3.483000 1.906201 -23.941200 -0.953551 0.244881 -0.175268
3.444300 1.743301 -24.076700 -0.954588 0.295907 -0.034364
3.309700 1.523401 -24.040100 -0.476882 0.799463 -0.365215
2.771300 0.261201 -23.990900 -0.014008 -0.929655 -0.368114
3.062500 0.276101 -23.569700 0.187780 -0.977325 0.097537
2.851700 0.346801 -23.336599 -0.062502 -0.985687 0.156468
3.109100 0.427501 -22.125000 -0.165136 -0.985992 -0.022767
3.589800 0.392001 -22.185900 0.027161 -0.996429 -0.079684
3.230800 0.327601 -21.164400 -0.295206 -0.955412 -0.002625
4.674800 0.250100 -10.542900 0.082339 -0.994018 -0.071627
5.351100 0.228200 -10.104600 0.240883 -0.917875 -0.315317
4.625400 -0.017300 -9.197900 0.024751 -0.976959 -0.211859
3.852800 0.150900 -9.653100 -0.256111 -0.915799 -0.309366
4.153600 0.215600 -10.790100 -0.349315 -0.935728 -0.048311
4.118300 1.254100 -10.356200 -0.476943 0.844691 0.242836
3.789000 1.074100 -10.683300 -0.943480 0.258675 0.207160
3.640900 0.554000 -9.744100 -0.894772 0.370159 -0.249641
2.827100 1.277201 -21.017799 -0.715812 0.662618 0.220222
2.692700 0.783801 -21.060499 -0.917997 -0.322794 0.230293
3.129200 0.672301 -18.792500 -0.979064 -0.091067 0.181982
4.165700 1.140900 -12.051100 -0.598559 0.778588 -0.188360
4.012500 0.939101 -11.937000 -0.962706 0.270302 0.007874
3.976000 0.862601 -11.591200 -0.937162 -0.193274 -0.290414
6.086400 0.496300 -9.413100 0.781671 -0.614643 -0.105594
5.993800 0.271500 -8.818400 0.540483 -0.836695 0.088015
6.009400 0.368800 -9.491200 0.771538 -0.620960 -0.138279
1.423700 2.419901 -24.057899 -0.685903 0.608539 -0.398968
1.366100 1.924901 -23.928200 -0.978820 0.056948 -0.196478
1.349300 2.086001 -23.579500 -0.976867 0.213569 0.008881
1.425800 2.526201 -23.710600 -0.671438 0.740867 0.015564
4.316500 0.454401 -23.055700 0.455611 -0.883480 0.108829
3.524100 0.421901 -23.532400 0.152470 -0.976714 -0.150853
4.506400 0.494801 -23.480000 0.603717 -0.796533 -0.032044
2.581400 2.067801 -23.568199 0.722770 0.690725 0.021424
2.465500 2.506901 -23.563200 0.782067 0.601886 0.161504
2.486500 2.230601 -23.334900 0.950591 0.268838 0.155187
2.526500 2.026001 -22.990900 0.308512 0.790185 0.529496
2.411100 2.282601 -23.026300 0.446791 0.569262 0.690115
1.931600 1.823201 -22.758200 -0.235633 0.640980 0.730461
2.613000 -0.121000 -7.800900 -0.523911 -0.766625 0.371136
2.749900 -0.014500 -7.473400 -0.788263 -0.148564 0.597064
2.495200 0.321300 -8.238400 -0.996124 0.086856 0.012329
2.290100 2.620201 -24.003500 0.242409 0.899716 -0.362896
2.177600 0.475801 -23.427500 -0.413770 -0.910306 0.008332
1.924800 0.736101 -23.884899 -0.604419 -0.770592 -0.202063
2.290000 0.517601 -24.005199 -0.430616 -0.842647 -0.323160
4.539000 1.709001 -24.353399 0.482681 -0.067080 -0.873196
4.696400 1.650201 -23.892700 0.959929 -0.046632 -0.276223
4.560800 1.230901 -24.011900 0.908567 -0.121921 -0.399518
1.459500 2.057301 -24.408701 -0.646474 0.218909 -0.730796
1.499000 1.634901 -24.258499 -0.898404 -0.165258 -0.406842
4.088700 1.040000 -8.857000 -0.059542 0.997375 -0.041108
3.820700 1.165600 -8.565500 0.154515 0.980407 -0.122044
4.227000 0.980200 -8.281100 0.424390 0.904080 0.049776
5.427900 1.636900 -10.187600 0.456069 0.847743 -0.270699
4.755300 1.690100 -10.009500 -0.436659 0.899594 0.007172
4.989300 1.795200 -9.528700 -0.264748 0.961821 0.069033
3.907100 0.048101 -16.042801 -0.420789 -0.906247 0.040254
4.122100 0.161201 -12.868900 -0.538957 -0.835322 0.108188
3.600300 0.540101 -15.920200 -0.985015 -0.131718 0.111118
3.513300 0.143601 -18.916000 -0.398877 -0.916807 0.018067
4.897300 1.231601 -11.978100 0.567278 0.805628 -0.170721
4.742900 1.323900 -12.072500 0.129337 0.976074 -0.174718
4.958600 1.464401 -11.360100 0.284860 0.920072 -0.268838
5.208700 1.281500 -11.344500 0.677633 0.649739 -0.344401
6.126300 1.262600 -9.213400 0.849971 0.526811 -0.000214
5.916300 1.479300 -8.978900 0.689291 0.704672 0.168157
6.110600 0.910200 -8.678000 0.871212 0.177496 0.457625
4.135300 0.383201 -21.188299 0.607166 -0.792199 -0.061007
4.148400 0.464601 -22.168800 0.487655 -0.872494 0.029908
1.653200 1.104501 -24.188101 -0.757988 -0.556719 -0.339793
1.978700 0.869601 -24.500000 -0.379070 -0.577563 -0.722983
2.572100 -0.191000 -8.186300 -0.895810 -0.441389 -0.051790
2.846300 -0.234300 -7.437500 -0.589862 -0.540361 0.600024
1.709600 1.216701 -24.514601 -0.593677 -0.248817 -0.765221
3.368400 0.516201 -23.857901 0.317667 -0.787744 -0.527726
5.093400 1.326600 -8.225300 -0.449599 0.017090 0.893063
5.088500 0.986800 -9.037100 -0.630573 0.227729 0.741935
5.282900 0.801100 -8.712700 -0.570513 0.032807 0.820612
3.136300 0.403700 -7.221600 -0.276040 0.341960 0.898221
3.213000 0.183800 -7.185600 -0.146641 -0.051393 0.987823
4.040600 0.349500 -7.285100 0.504257 0.018616 0.863338
4.305900 1.480700 -11.163600 -0.098086 0.985748 -0.136509
3.936900 1.174201 -11.664400 -0.675253 0.395947 -0.622272
3.399400 1.147401 -18.712999 -0.708060 0.688284 0.157750
3.753800 1.016201 -15.955100 -0.766564 0.633168 0.106845
4.080300 1.218201 -16.090000 0.033784 0.998321 0.046632
3.687700 1.330701 -18.770500 -0.295907 0.949583 0.103397
3.650200 1.171301 -11.336200 -0.917936 -0.134770 -0.373089
6.318000 0.696400 -9.336000 0.977905 -0.199286 -0.062624
6.167100 0.528100 -8.855600 0.909513 -0.328440 0.254677
4.968800 1.167401 -12.941400 0.627705 0.758476 -0.175146
4.545100 1.185601 -12.957700 -0.188849 0.979980 -0.062929
4.541700 0.626101 -23.921499 0.586413 -0.676321 -0.445723
4.600900 0.826301 -23.766001 0.972533 -0.186224 -0.139561
4.622700 0.840201 -23.303801 0.924650 -0.371502 0.083621
2.769100 1.580901 -24.343901 0.688589 0.482345 -0.541429
3.000000 1.433901 -24.250500 0.361705 0.505661 -0.783227
3.077200 1.123101 -24.273001 0.334513 0.050386 -0.941008
2.780200 1.692801 -22.514500 -0.145878 0.864315 0.481307
3.491900 1.820601 -22.478901 -0.163976 0.876522 0.452528
2.360200 0.882901 -21.923599 -0.825007 -0.268929 0.496994
4.599100 2.492601 -24.076300 0.548112 0.726005 -0.415265
3.561900 2.543901 -23.684601 -0.486648 0.862941 -0.135868
4.505400 2.452101 -23.653299 0.539384 0.827448 0.155950
2.932800 0.414601 -22.701500 -0.073336 -0.993744 0.084078
3.568000 0.432301 -22.666500 0.034242 -0.998779 -0.035279
6.083800 0.957300 -9.851100 0.862514 0.333201 -0.380779
5.853800 1.377100 -9.788000 0.733512 0.607624 -0.304514
4.404900 1.168301 -21.086000 0.985290 0.137211 0.101749
4.457800 0.854501 -18.722200 0.980316 0.194006 -0.036439
4.186700 0.198601 -18.958099 0.583941 -0.806879 -0.089022
5.048200 0.038400 -9.315100 0.082736 -0.957183 -0.277352
4.593000 0.009500 -8.157900 0.716056 -0.534440 0.449019
4.397400 -0.204700 -8.678600 0.441908 -0.866543 -0.231910
4.658700 2.069201 -23.734501 0.967071 0.235603 -0.095950
4.616700 2.056101 -24.292801 0.593493 0.236946 -0.769127
1.482000 1.139001 -23.936600 -0.768242 -0.572893 -0.285623
1.365400 1.468901 -24.047899 -0.910550 -0.167180 -0.378033
4.759700 1.153100 -9.283500 -0.598682 0.618732 0.508621
4.898900 1.421100 -8.569500 -0.948241 0.095401 0.302805
5.950400 0.370900 -9.721900 0.633900 -0.721824 -0.277688
6.142100 0.646300 -9.854500 0.873959 -0.282754 -0.395215
2.749000 0.649301 -24.410500 0.164556 -0.519089 -0.838710
3.219300 1.935301 -23.073299 -0.276284 0.948546 0.154546
3.759100 2.354101 -22.898899 -0.252998 0.837306 0.484603
3.646100 0.875300 -8.874900 -0.391156 0.724815 -0.567095
3.186000 1.183200 -8.522800 -0.260170 0.910794 -0.320444
4.017500 1.517100 -11.122800 -0.142979 0.989532 0.017853
4.445000 0.104001 -16.180401 0.537767 -0.839808 -0.074129
5.796900 0.223300 -9.548900 0.415113 -0.878689 -0.235664
5.015100 1.529700 -8.395600 -0.517411 0.666341 0.536882
5.225500 1.677300 -8.568900 -0.081057 0.909909 0.406720
4.241900 0.487201 -22.612400 0.491195 -0.866421 0.089450
4.587900 0.962701 -22.667400 0.923795 -0.354411 0.144780
4.476200 0.866201 -22.090300 0.893887 -0.413343 0.173376
1.272800 1.829301 -23.447500 -0.996399 0.083529 0.013001
1.328600 1.722901 -23.871700 -0.977660 0.014893 -0.209540
1.406800 1.153901 -23.589001 -0.878536 -0.475295 -0.047029
1.312700 1.407101 -23.239700 -0.953429 -0.233070 0.191321
1.466500 2.211001 -23.232700 -0.603992 0.550707 0.576067
2.314000 2.430101 -23.178101 0.064302 0.804590 0.590320
1.446800 2.413801 -23.365499 -0.636708 0.588000 0.498825
4.170500 0.165000 -11.252900 -0.407239 -0.912687 -0.033174
4.019000 0.381100 -10.865000 -0.867397 -0.492386 -0.071505
3.978200 0.384300 -11.229900 -0.865749 -0.473251 -0.162694
2.501900 2.473401 -23.929701 0.813868 0.557421 -0.163823
2.234200 2.671301 -23.598801 0.169683 0.969420 0.177160
5.572300 0.196200 -8.604500 0.321879 -0.467727 0.823145
5.842600 0.615200 -8.371700 0.329234 -0.313425 0.890683
5.456400 0.507100 -8.600700 -0.249672 -0.097262 0.963408
4.899500 0.323100 -8.465100 0.498856 0.128788 0.857021
5.102800 0.508901 -12.948700 0.937040 -0.325144 -0.127354
4.699000 0.107201 -12.950200 0.344951 -0.938475 0.015412
3.602300 0.334400 -9.727100 -0.815546 -0.364116 -0.449690
4.037300 1.067700 -7.836500 0.414197 0.832728 0.367351
5.420600 0.659900 -11.389700 0.840571 -0.497482 -0.214209
5.811900 0.650600 -10.333600 0.799493 -0.395428 -0.452071
4.728000 0.238600 -11.274500 0.272591 -0.962096 0.006775
2.655000 1.834501 -24.052099 0.771111 0.541307 -0.335124
2.981700 1.487701 -24.153700 0.355144 0.830317 -0.429395
2.692700 1.689801 -24.207500 0.810389 0.565569 -0.152806
4.648500 0.762500 -8.497100 0.511490 0.673574 0.533494
4.468300 1.230600 -9.742500 -0.559374 0.795007 0.234565
3.576500 1.553501 -21.250700 -0.247871 0.957945 0.144383
4.417700 0.964000 -8.571100 0.347789 0.893948 0.282540
5.766700 1.071400 -8.270500 0.465194 0.219459 0.857540
1.371400 2.008701 -23.061399 -0.709738 0.430311 0.557726
2.448500 2.412601 -23.236700 0.728263 0.603351 0.324839
3.859900 1.762801 -22.135401 -0.028993 0.981689 0.188116
3.800000 1.838901 -22.519199 -0.044588 0.818171 0.573199
3.490300 -0.037100 -9.075400 -0.229041 -0.777459 -0.585681
3.240300 0.182500 -9.071700 -0.616077 -0.313150 -0.722739
2.306400 2.276301 -24.430599 0.228980 0.535508 -0.812860
2.516700 1.455101 -24.613400 0.253273 0.109378 -0.961180
2.652100 1.107301 -24.521400 0.298227 -0.145482 -0.943327
4.521200 0.902601 -24.168699 0.599689 -0.333415 -0.727439
4.385700 1.214501 -24.280001 0.359142 -0.199042 -0.911771
5.381700 1.052900 -8.287300 -0.337138 -0.434431 0.835200
4.762000 0.171901 -12.045200 0.329081 -0.943785 0.030061
4.166100 0.171401 -11.984000 -0.617145 -0.785852 0.038728
5.581900 1.417001 -10.152000 0.762139 0.497574 -0.414136
5.831100 0.961200 -10.292800 0.855098 0.292398 -0.428114
5.439600 0.952100 -11.387000 0.902127 0.302957 -0.307169
4.054600 -0.648900 -8.103500 0.460097 -0.887814 0.006684
4.472400 2.243001 -22.711800 0.470107 0.711661 0.522019
5.612100 0.852100 -8.290700 -0.154546 -0.334697 0.929533
4.039800 1.643401 -21.079100 0.304392 0.937620 0.167852
4.361100 1.651001 -21.947100 0.613239 0.743034 0.267953
1.565700 1.457301 -22.740601 -0.754234 0.023743 0.656148
1.564100 1.057401 -23.013500 -0.772759 -0.527024 0.353618
4.495600 1.359301 -22.008301 0.965606 0.161046 0.203955
4.627400 1.418401 -22.509399 0.963408 0.081790 0.255196
4.397500 1.855801 -22.311300 0.447096 0.697256 0.560289
3.193500 -0.272400 -7.286100 -0.125614 -0.571368 0.810999
2.996200 1.105900 -8.079900 -0.433576 0.862056 0.262398
5.667800 1.605300 -8.726100 0.469619 0.816675 0.335307
5.584700 1.650501 -9.687500 0.459578 0.881649 -0.106998
5.957500 0.378500 -8.547400 0.589953 -0.501480 0.632771
4.700400 1.095801 -23.224501 0.969268 -0.237403 0.064302
4.739900 1.605301 -22.969700 0.969451 0.057680 0.238289
1.813300 0.693901 -23.269400 -0.630573 -0.768334 0.109470
2.355000 0.506701 -22.773600 -0.407788 -0.880367 0.242073
1.971700 0.979501 -22.516600 -0.699088 -0.580920 0.416852
2.538300 2.129001 -24.298500 0.807703 0.394330 -0.438246
2.704000 -0.095300 -8.667300 -0.714591 -0.374187 -0.591021
2.993100 -0.461700 -8.595400 -0.322886 -0.793908 -0.515183
2.607800 0.325000 -8.662600 -0.829676 0.040803 -0.556688
2.069400 1.471101 -22.262400 -0.460738 0.503494 0.730857
2.956400 1.541601 -21.939699 -0.336375 0.883969 0.324656
3.463600 2.236501 -24.014400 -0.792901 0.413312 -0.447707
3.565200 0.455101 -23.127701 0.045106 -0.998535 0.029328
4.827100 1.555600 -9.289500 -0.815821 0.514695 0.263588
4.841300 0.140100 -8.446800 0.599841 0.042695 0.798944
5.513100 -0.149500 -8.742400 0.448592 -0.836085 0.315714
4.083600 0.965101 -12.841900 -0.696402 0.717521 -0.012726
3.872500 0.580901 -12.786800 -0.981567 -0.091586 0.167638
3.612500 1.188700 -11.181200 -0.993622 -0.063875 -0.092715
3.613200 1.223601 -11.065700 -0.931028 0.217597 0.292917
3.785700 1.463400 -11.237900 -0.450880 0.886685 -0.102115
3.727000 1.300100 -11.411900 -0.677908 0.488907 -0.548936
3.201800 0.365100 -9.050700 -0.639210 0.238746 -0.731010
2.800200 0.836900 -8.677700 -0.611347 0.541887 -0.576678
3.366600 1.506501 -24.155800 -0.288980 0.441389 -0.849483
3.638200 0.570701 -23.839300 0.113163 -0.820185 -0.560778
2.617700 1.996601 -23.819201 0.747703 0.629688 -0.210730
3.254300 1.849101 -23.670601 -0.384442 0.743828 -0.546678
3.968600 0.972700 -9.549500 -0.600726 0.799341 -0.012268
5.457500 1.438400 -8.418900 0.310068 0.633290 0.709067
3.424100 1.798901 -24.172199 -0.782800 0.177892 -0.596271
3.552300 1.671401 -22.134501 -0.193640 0.937071 0.290414
3.077300 1.388201 -21.114500 -0.303110 0.936247 0.177587
3.558800 0.958301 -24.201000 0.060549 -0.366588 -0.928404
3.404800 1.214001 -24.216499 0.032411 0.049623 -0.998230
5.242700 0.557001 -12.121600 0.875332 -0.465011 -0.132420
2.860900 -0.520300 -8.152600 -0.499680 -0.866146 0.008454
3.767900 -0.688500 -7.774800 0.217078 -0.889431 0.402142
2.865400 0.460100 -7.411900 -0.620624 0.452254 0.640522
2.629200 0.778500 -8.254400 -0.855007 0.516556 0.045473
4.814000 1.609901 -23.489901 0.996582 -0.006165 -0.082064
4.737800 2.065401 -23.311501 0.929167 0.360271 0.082614
4.403300 0.353000 -7.691900 0.782586 0.026978 0.621937
3.808300 0.936500 -7.490200 0.177496 0.700949 0.690725
4.015600 1.329901 -18.676300 0.394147 0.916684 0.065432
5.581500 0.375300 -10.219800 0.477218 -0.794488 -0.375469
3.863200 0.803300 -11.071300 -0.917844 -0.395672 -0.031129
4.694800 0.561401 -16.215300 0.990570 0.069216 -0.118137
5.262400 1.032000 -12.117100 0.849544 0.506149 -0.148442
5.129400 -0.133200 -8.547400 0.250954 -0.714591 0.652913
2.686500 0.555301 -22.082600 -0.469771 -0.868374 0.158727
2.750000 0.222900 -7.452100 -0.791986 0.099155 0.602405
1.637200 0.935401 -23.708500 -0.670644 -0.721122 -0.173772
4.292100 1.071601 -16.035101 0.665883 0.742302 -0.074465
4.764700 0.560700 -8.461900 0.575304 0.383862 0.722251
4.697900 1.172201 -23.647301 0.957823 -0.205664 -0.200598
3.288900 0.867101 -24.219200 0.301645 -0.333720 -0.893094
3 0 1 2
3 2 3 0
3 4 5 6
3 7 8 9
3 10 11 12
3 10 12 13
3 14 10 13
3 15 16 17
3 18 19 20
3 21 22 23
3 24 25 26
3 27 28 29
3 29 30 27
3 31 32 33
3 34 35 36
3 37 38 39
3 40 41 42
3 43 27 30
3 44 45 46
3 47 48 49
3 28 50 51
3 52 53 54
3 55 56 57
3 58 59 60
3 58 60 20
3 61 58 20
3 62 63 64
3 65 62 64
3 66 67 68
3 69 9 8
3 70 69 8
3 4 6 44
3 45 71 72
3 73 74 41
3 51 75 71
3 5 4 76
3 77 78 79
3 80 81 82
3 83 21 84
3 85 86 87
3 88 85 87
3 84 23 89
3 90 91 24
3 92 93 63
3 94 95 96
3 97 98 99
3 37 100 101
3 102 19 18
3 103 104 105
3 7 106 107
3 8 7 107
3 108 109 66
3 90 66 68
3 84 21 23
3 110 111 112
3 110 112 69
3 113 12 11
3 114 115 12
3 116 117 103
3 71 118 119
3 120 78 121
3 122 123 24
3 46 124 4
3 125 126 104
3 52 127 128
3 129 16 15
3 130 58 61
3 112 130 61
3 11 131 113
3 121 132 133
3 134 135 136
3 136 70 134
3 137 29 138
3 137 138 139
3 137 139 140
3 141 38 142
3 142 143 141
3 144 14 145
3 146 144 145
3 147 43 148
3 147 148 35
3 29 28 138
3 117 48 47
3 149 150 151
3 79 152 151
3 153 154 130
3 18 20 85
3 155 145 13
3 53 156 54
3 126 125 101
3 124 46 72
3 157 158 159
3 34 37 125
3 160 161 162
3 116 103 105
3 163 54 156
3 164 56 83
3 165 85 88
3 130 154 58
3 120 166 163
3 167 150 68
3 29 137 168
3 33 96 31
3 35 169 36
3 170 171 101
3 155 172 173
3 174 50 27
3 175 176 72
3 177 178 49
3 77 179 167
3 79 78 163
3 59 154 180
3 180 181 59
3 22 181 144
3 65 182 183
3 183 184 65
3 115 114 185
3 105 104 126
3 126 186 105
3 97 162 161
3 97 161 98
3 179 151 187
3 170 188 189
3 190 140 191
3 192 193 194
3 194 189 192
3 74 195 81
3 156 128 196
3 64 63 83
3 20 60 85
3 197 198 57
3 57 133 197
3 199 149 25
3 135 200 201
3 201 193 135
3 202 203 204
3 204 191 202
3 174 43 147
3 205 174 147
3 206 207 73
3 206 73 42
3 208 206 42
3 209 102 210
3 211 1 104
3 106 6 212
3 135 96 200
3 213 57 56
3 149 214 215
3 216 217 22
3 21 216 22
3 61 9 69
3 69 112 61
3 218 219 220
3 220 221 218
3 127 222 223
3 223 128 127
3 125 37 101
3 224 3 2
3 76 225 32
3 24 123 90
3 168 137 140
3 160 226 227
3 173 206 208
3 173 208 222
3 65 64 55
3 184 62 65
3 59 181 22
3 52 164 228
3 228 127 52
3 229 167 197
3 136 135 193
3 193 192 136
3 203 44 6
3 6 106 203
3 47 224 230
3 165 231 210
3 210 232 165
3 141 168 39
3 169 38 36
3 94 177 95
3 233 234 178
3 178 177 233
3 152 214 149
3 151 152 149
3 180 154 153
3 153 235 180
3 157 159 180
3 180 235 157
3 236 237 195
3 195 74 236
3 238 196 239
3 32 212 6
3 162 97 205
3 73 41 40
3 71 75 72
3 201 240 241
3 150 187 151
3 242 156 243
3 243 82 242
3 88 244 188
3 164 120 213
3 109 198 67
3 67 66 109
3 29 141 143
3 33 94 96
3 224 98 161
3 209 100 39
3 100 37 39
3 37 34 36
3 107 212 31
3 134 107 31
3 122 245 158
3 158 123 122
3 167 67 197
3 145 16 246
3 111 247 112
3 184 248 62
3 55 182 65
3 114 242 185
3 117 230 211
3 103 117 211
3 140 190 168
3 123 108 90
3 175 174 205
3 205 97 175
3 72 176 124
3 9 61 19
3 152 242 114
3 214 152 114
3 221 89 218
3 153 247 92
3 246 16 219
3 219 218 246
3 214 249 215
3 222 17 173
3 31 96 135
3 135 134 31
3 212 107 106
3 1 227 104
3 210 100 209
3 21 63 93
3 93 216 21
3 234 224 47
3 250 203 106
3 7 250 106
3 123 158 183
3 108 123 183
3 109 182 55
3 197 67 198
3 60 86 85
3 63 21 83
3 82 81 195
3 41 74 81
3 81 80 251
3 81 251 41
3 136 110 70
3 139 118 252
3 188 110 189
3 10 159 245
3 124 176 99
3 190 204 102
3 222 208 223
3 17 16 145
3 146 23 22
3 253 87 93
3 163 254 79
3 149 199 150
3 96 95 255
3 255 200 96
3 75 175 72
3 100 210 101
3 41 251 42
3 186 126 171
3 205 147 226
3 160 205 226
3 240 201 200
3 168 141 29
3 25 24 91
3 215 249 12
3 86 60 217
3 153 92 248
3 164 83 15
3 163 156 254
3 201 186 194
3 194 193 201
3 119 118 139
3 34 125 227
3 227 226 34
3 227 1 0
3 76 4 124
3 76 124 256
3 250 9 19
3 250 19 102
3 159 10 14
3 144 159 14
3 246 23 146
3 232 18 85
3 247 153 130
3 215 131 26
3 256 99 234
3 234 233 256
3 49 255 95
3 99 176 175
3 143 142 148
3 207 236 73
3 35 148 142
3 35 142 169
3 45 44 202
3 202 252 45
3 171 170 189
3 150 167 187
3 220 129 84
3 87 253 244
3 15 83 129
3 52 128 53
3 227 125 104
3 1 211 230
3 1 230 2
3 26 122 24
3 121 213 120
3 190 39 168
3 161 160 0
3 173 172 207
3 207 206 173
3 219 16 129
3 129 220 219
3 244 88 87
3 84 221 220
3 91 68 150
3 91 150 199
3 189 194 171
3 202 44 203
3 103 211 104
3 239 223 208
3 239 208 42
3 148 30 143
3 99 175 97
3 49 95 177
3 29 143 30
3 26 149 215
3 17 222 127
3 127 228 17
3 110 188 244
3 110 244 111
3 145 246 146
3 242 82 237
3 237 185 242
3 243 196 238
3 80 243 238
3 76 32 5
3 51 50 75
3 210 18 232
3 138 119 139
3 136 192 110
3 77 121 78
3 67 167 68
3 235 153 248
3 86 217 216
3 215 12 113
3 199 25 91
3 28 27 50
3 240 200 255
3 139 202 191
3 140 139 191
3 171 194 186
3 42 73 40
3 231 170 101
3 38 169 142
3 31 212 32
3 131 11 245
3 245 122 131
3 25 149 26
3 92 253 93
3 22 144 146
3 17 145 155
3 254 156 242
3 254 242 152
3 190 102 209
3 256 124 99
3 10 245 11
3 73 236 74
3 75 50 174
3 174 175 75
3 110 69 70
3 80 238 251
3 195 237 82
3 17 228 15
3 244 253 247
3 247 111 244
3 89 23 246
3 218 89 246
3 55 198 109
3 165 188 170
3 231 165 170
3 107 134 70
3 70 8 107
3 47 178 234
3 39 190 209
3 196 128 223
3 196 223 239
3 43 30 148
3 204 203 250
3 250 102 204
3 47 49 178
3 17 155 173
3 166 52 54
3 198 55 57
3 247 253 92
3 228 164 15
3 207 172 185
3 207 185 237
3 237 236 207
3 61 20 19
3 4 44 46
3 72 46 45
3 133 57 213
3 213 121 133
3 71 45 252
3 118 71 252
3 192 189 110
3 77 79 179
3 243 80 82
3 129 83 84
3 247 130 112
3 221 84 89
3 133 229 197
3 92 63 62
3 33 32 225
3 225 94 33
3 38 37 36
3 210 231 101
3 210 102 18
3 161 3 224
3 225 233 177
3 225 177 94
3 66 90 108
3 68 91 90
3 213 56 164
3 188 165 88
3 56 55 64
3 64 83 56
3 12 249 114
3 241 186 201
3 119 51 71
3 105 186 241
3 249 214 114
3 32 6 5
3 250 7 9
3 115 172 13
3 12 115 13
3 157 235 248
3 157 248 184
3 59 217 60
3 120 164 52
3 120 52 166
3 77 132 121
3 48 240 255
3 255 49 48
3 147 35 34
3 226 147 34
3 171 126 101
3 238 239 42
3 42 251 238
3 47 230 117
3 252 202 139
3 117 116 48
3 132 77 229
3 229 133 132
3 79 254 152
3 59 22 217
3 181 180 159
3 144 181 159
3 145 14 13
3 53 128 156
3 227 0 160
3 2 230 224
3 158 245 159
3 26 131 122
3 162 205 160
3 105 241 116
3 115 185 172
3 184 183 158
3 158 157 184
3 165 232 85
3 154 59 58
3 163 78 120
3 179 187 167
3 183 182 109
3 109 108 183
3 256 233 225
3 256 225 76
3 98 224 234
3 98 234 99
3 38 141 39
3 155 13 172
3 27 43 174
3 138 28 51
3 119 138 51
3 116 241 240
3 240 48 116
3 229 77 167
3 113 131 215
3 93 87 86
3 216 93 86
3 62 248 92
3 196 243 156
3 54 163 166
3 0 3 161
3 204 190 191
3 179 79 151
