ply
format ascii 1.0
comment Created by Blender 2.92.0 - www.blender.org
element vertex 253
property float x
property float y
property float z
property float nx
property float ny
property float nz
element face 494
property list uchar uint vertex_indices
end_header
3.438000 3.668702 -37.562801 0.843257 0.521531 0.130039
3.522400 3.452802 -38.435200 0.974181 -0.066012 0.215766
3.310900 4.084502 -38.410900 0.629109 0.705710 0.325816
3.183800 3.792002 -37.558701 0.213630 0.932188 0.292154
3.687400 0.496501 -25.952200 0.417402 -0.871364 -0.257759
3.503500 0.469501 -25.879000 -0.088229 -0.986328 -0.139073
3.487900 0.499001 -25.967600 -0.169591 -0.935606 -0.309549
3.350400 2.449301 -33.607700 0.951048 -0.293497 -0.096683
2.831300 2.775102 -37.598801 -0.157628 -0.987182 -0.023713
3.198200 2.960802 -37.599400 0.710288 -0.703574 -0.020844
2.240800 4.047902 -39.145802 -0.626942 0.777215 0.053224
2.144300 4.017502 -39.631199 -0.352458 0.588122 -0.727897
1.948300 3.901402 -39.293400 -0.876827 0.463881 -0.126286
2.952000 0.834101 -24.486799 0.000305 -0.723411 0.690390
3.289000 0.846301 -24.562300 0.126743 -0.678701 0.723380
3.105100 1.755901 -24.338100 -0.058565 -0.268380 0.961516
2.860400 1.721201 -24.312500 0.232704 -0.155065 0.960082
2.192900 3.357802 -38.326599 -0.916807 -0.304056 0.258797
2.194200 3.682502 -38.227798 -0.901303 0.216559 0.375103
1.942700 3.894602 -39.061798 -0.835963 0.517472 0.182531
3.423600 3.198102 -38.491600 0.795038 -0.588794 0.145573
3.733900 3.426502 -39.044498 0.995575 -0.073489 -0.058199
4.896500 1.865601 -24.537800 0.910123 0.017457 0.413953
4.896500 1.982501 -24.782000 0.941069 0.199377 -0.273110
4.697600 2.432001 -24.585600 0.649709 0.720328 0.242805
3.212400 1.834701 -24.247801 -0.164068 -0.315989 0.934446
3.197300 2.146801 -24.259800 -0.079714 0.207404 0.974975
3.075000 1.922501 -24.311199 -0.185492 -0.154210 0.970458
3.465800 3.220302 -39.495998 0.492325 -0.276376 -0.825343
2.893600 4.454802 -39.359200 -0.108921 0.799921 -0.590106
3.198200 4.497802 -39.243599 0.368053 0.829188 -0.420637
4.115900 1.969901 -25.854401 0.755577 0.484146 -0.441206
4.590300 1.112201 -25.155001 0.856258 -0.420362 -0.300150
4.146700 1.304901 -25.868799 0.879604 -0.083712 -0.468215
2.217300 2.821201 -24.693800 -0.171697 0.911466 0.373730
1.803800 2.436901 -24.615999 -0.504013 0.422681 0.753166
2.738000 2.325001 -24.308599 -0.062166 0.578204 0.813501
2.479400 3.187102 -39.672298 0.628163 -0.625477 -0.462783
2.399700 3.372302 -39.859200 0.411176 -0.219306 -0.884762
2.397100 3.568702 -39.827499 0.475326 0.539415 -0.695029
2.739600 4.289502 -38.625702 -0.168859 0.927915 0.332316
2.442700 3.994502 -38.239201 -0.498184 0.808405 0.313425
2.677200 4.088002 -38.240002 -0.276040 0.886959 0.370220
2.442500 2.830402 -38.520401 -0.452437 -0.889035 0.069887
3.028600 2.862401 -25.043699 0.057558 0.984924 0.162969
3.503500 2.588001 -24.591600 0.065584 0.835109 0.546129
3.641000 2.650001 -24.783100 0.213172 0.976592 0.028291
3.962800 0.791301 -25.951599 0.780755 -0.582995 -0.224677
3.779000 0.795101 -26.648899 0.786981 -0.572344 -0.230232
3.824800 1.388801 -26.677099 0.973205 -0.024903 -0.228523
2.291200 4.094202 -39.432598 -0.048128 0.894101 -0.445204
2.431900 4.192802 -39.370300 -0.397473 0.609119 -0.686270
2.617100 3.162902 -39.427700 0.068575 -0.299844 -0.951506
2.535500 3.170302 -39.473499 0.524216 -0.474776 -0.706900
3.304600 1.726101 -24.342899 -0.005768 -0.444380 0.895810
4.039400 0.843601 -24.640301 0.244606 -0.869625 0.428785
3.580100 0.580301 -25.411800 0.296640 -0.925077 0.237068
2.372500 2.957002 -39.305801 -0.228950 -0.794458 -0.562487
2.538600 2.937402 -39.278500 0.000855 -0.878994 -0.476760
3.508500 3.093302 -39.283901 0.630055 -0.738395 -0.240364
3.071200 2.977402 -39.333698 0.128544 -0.906430 -0.402264
3.365500 0.485701 -25.597401 -0.201086 -0.960204 0.193793
3.289000 0.562401 -25.398800 -0.148961 -0.965972 0.211341
3.059300 0.679201 -25.737101 -0.542009 -0.820246 -0.182745
3.304600 0.490101 -25.813999 -0.454665 -0.705985 -0.542955
4.008600 1.018001 -24.472401 0.060884 -0.470138 0.880459
3.472800 1.741001 -24.340500 0.189611 -0.161931 0.968383
2.936900 2.501901 -24.636600 0.011231 0.816950 0.576556
2.875500 2.215001 -24.201799 0.035066 0.321604 0.946196
2.584900 2.225301 -29.196699 -0.944578 0.328196 0.001373
2.492700 2.902901 -33.441200 -0.947722 0.315836 0.045442
2.692200 1.799001 -29.343000 -0.844691 -0.526048 -0.098605
4.804900 1.462801 -24.633301 0.892453 -0.426405 0.147099
4.513800 1.022101 -25.076799 0.611255 -0.791406 0.000549
3.151500 3.078801 -32.951199 0.031526 0.987030 0.157231
4.269000 2.620001 -24.695101 0.220130 0.974120 0.050935
3.451900 3.477502 -37.531898 0.984497 -0.174444 0.017365
3.451900 3.457702 -37.984501 0.980316 -0.180822 0.079043
2.363600 4.235402 -38.960499 -0.608295 0.789331 0.083163
2.264400 3.838502 -38.233200 -0.810205 0.517045 0.276040
2.049100 1.236101 -25.150900 -0.750938 -0.611744 -0.248573
2.692200 1.163501 -26.434401 -0.732780 -0.637959 -0.236671
2.645800 0.929501 -25.464100 -0.542833 -0.828303 -0.138554
3.763900 0.697301 -26.137100 0.526261 -0.804895 -0.274117
3.487900 0.629301 -26.582199 -0.041688 -0.972747 -0.228065
3.243200 1.375601 -29.504101 0.007324 -0.972869 -0.231117
3.487900 1.579501 -29.424801 0.900143 -0.406384 -0.156652
3.580100 1.856701 -24.384100 0.289865 -0.012940 0.956969
3.365500 1.882301 -24.255400 0.241035 -0.163854 0.956572
4.437200 1.171601 -24.463499 0.376904 -0.500534 0.779351
4.329900 1.229201 -24.438299 0.063753 -0.176489 0.982208
2.257000 3.179802 -39.627102 -0.495010 -0.723228 -0.481491
2.187200 3.027802 -39.263901 -0.678030 -0.691519 -0.249062
3.549400 0.503701 -25.610300 0.295419 -0.928098 0.226478
2.722400 1.670501 -24.289600 -0.191870 -0.130284 0.972716
2.416200 0.866901 -24.496700 -0.319102 -0.787255 0.527604
2.478900 3.744502 -37.457699 -0.415876 0.866726 0.275338
1.635600 1.888401 -24.580500 -0.891842 -0.064058 0.447737
2.661500 2.136101 -24.292000 -0.368236 0.089022 0.925443
2.478900 3.135002 -37.524899 -0.887295 -0.455000 0.075167
3.212400 2.194602 -33.664101 0.236915 -0.951903 -0.194220
2.408300 3.666502 -37.455002 -0.945097 0.281320 0.166173
2.128300 3.406702 -39.497101 -0.877682 -0.305246 -0.369366
2.817500 4.118402 -38.235100 0.000610 0.922239 0.386578
2.738000 2.534901 -33.562801 -0.736381 -0.668477 -0.104068
4.712700 1.889401 -24.394100 0.364727 0.066958 0.928678
2.312900 3.352102 -39.831902 -0.478225 -0.425916 -0.767998
2.146800 3.615102 -39.634399 -0.608264 0.027375 -0.793237
2.252800 3.505602 -39.822399 -0.637776 0.170324 -0.751122
1.949900 3.534802 -39.042301 -0.969481 -0.233283 0.075137
2.630700 1.788601 -24.348101 -0.336528 -0.093387 0.937010
2.783800 1.849601 -24.245399 0.057955 -0.116825 0.991455
2.783800 2.094201 -24.221300 -0.169042 -0.089633 0.981506
3.013500 2.549801 -29.190701 -0.060518 0.994476 0.085391
2.355300 2.061401 -26.615000 -0.894253 0.317240 -0.315653
2.339600 2.795501 -25.302401 -0.322672 0.926023 -0.195807
1.956900 2.268601 -25.496000 -0.848201 0.384289 -0.364452
1.712200 2.438501 -24.724400 -0.872250 0.477432 0.105899
3.151500 2.367701 -26.689501 0.120792 0.984283 -0.128758
2.875500 1.907001 -24.313700 0.315958 -0.145756 0.937468
4.437200 1.029401 -24.641500 0.530076 -0.771416 0.351939
2.328500 3.826302 -39.600399 0.481552 0.255165 -0.838435
2.072900 3.735902 -39.614899 -0.604450 -0.022187 -0.796289
2.323100 3.982302 -39.605701 0.730277 0.336985 -0.594226
3.702500 0.866101 -24.590300 -0.009278 -0.720756 0.693075
3.427000 3.035902 -33.497299 0.873989 0.482650 0.055757
1.865300 1.876401 -25.373100 -0.928404 -0.148320 -0.340587
3.779000 2.251601 -24.428499 0.183782 0.260537 0.947783
3.457700 2.395701 -24.266001 0.141118 0.504837 0.851558
4.621100 1.597101 -24.410101 0.205145 -0.150975 0.967009
3.534300 2.242601 -29.209101 0.880795 0.473464 0.000671
1.966200 3.646702 -39.349701 -0.944731 -0.202460 -0.257820
3.113300 2.926202 -38.535400 0.386425 -0.921751 -0.031617
2.373200 3.707902 -39.634701 0.628132 0.500809 -0.595477
4.253400 2.482401 -24.515800 0.061495 0.609394 0.790460
4.559600 2.236101 -24.431000 0.218268 0.304575 0.927122
1.896000 1.269401 -24.494101 -0.685842 -0.478835 0.547960
2.660600 4.335802 -39.393600 -0.298502 0.661855 -0.687613
3.550700 3.430102 -39.354099 0.769555 0.198584 -0.606861
4.759100 1.531301 -24.483000 0.646596 -0.338572 0.683523
3.085600 3.144802 -39.508202 0.005219 -0.357006 -0.934049
3.451900 3.454402 -36.620399 0.996918 -0.078280 0.000580
3.013500 0.630401 -25.434799 -0.439039 -0.898068 -0.026460
3.297100 4.463702 -39.032299 0.563952 0.820643 0.092013
3.779000 2.033501 -26.634800 0.804743 0.568743 -0.169958
4.007300 3.756302 -38.370499 0.856319 0.516098 0.018067
3.869200 3.935502 -38.326500 -0.096377 0.993866 0.053774
4.098900 3.742501 -35.409401 0.227149 0.972839 0.044069
4.252000 2.923201 -32.441399 -0.236183 -0.965545 -0.109165
4.374300 2.960101 -32.485199 0.678671 -0.723655 -0.125370
4.374300 2.524201 -29.721800 0.282693 -0.948027 -0.145940
4.175400 3.460902 -39.255402 0.979919 -0.178869 0.088046
4.206200 3.751702 -39.806702 0.864193 0.489944 0.114353
4.053100 3.364102 -40.826698 0.374065 -0.564348 -0.735862
4.022300 3.124902 -40.549000 0.451521 -0.785821 -0.422590
3.731200 3.112202 -40.567902 -0.786615 -0.423444 -0.449324
4.558200 2.595101 -25.867901 -0.290963 0.941801 0.168310
4.696200 2.518701 -25.532400 -0.118320 0.897031 0.425764
5.032500 2.506101 -25.898600 0.464827 0.884701 0.034364
4.895100 2.514901 -27.336901 0.985992 -0.050417 -0.158910
4.971700 2.306101 -26.707100 0.927488 -0.113315 -0.356182
4.818600 2.150601 -26.813900 0.525437 -0.713309 -0.463759
4.742000 2.363401 -27.360399 0.577166 -0.771264 -0.268319
4.543100 2.052801 -26.779600 -0.063265 -0.897519 -0.436354
4.512400 2.255601 -27.360701 -0.035249 -0.971892 -0.232673
3.701000 2.966502 -40.292000 -0.610859 -0.729301 -0.308115
3.945800 3.919702 -40.360001 -0.244575 0.911527 -0.330546
4.053100 3.829102 -40.721401 -0.365459 0.811823 -0.455336
4.466500 3.410301 -32.382301 0.717246 0.696616 0.015290
4.680500 3.030701 -29.693501 0.953032 0.301065 -0.032655
4.435800 3.128701 -32.475399 0.970733 -0.223182 -0.088382
4.083800 3.274702 -35.498798 0.238868 -0.969390 -0.056185
3.838500 3.389201 -35.431499 -0.731223 -0.681997 -0.012848
3.746900 3.368702 -38.364101 -0.869045 -0.490890 0.061159
4.022300 3.199502 -38.374001 0.301126 -0.951262 0.066042
4.144700 3.381701 -32.287601 -0.619221 0.773400 0.135655
4.359300 3.156101 -29.706699 -0.404340 0.903043 0.144902
4.221200 3.437702 -39.772598 0.971099 -0.214331 0.104678
3.945800 3.428702 -40.849899 -0.596057 -0.081881 -0.798730
4.833600 2.602501 -26.611601 0.513230 0.856868 0.048372
5.170600 2.352801 -26.021400 0.829707 0.542528 -0.131046
4.956000 2.468801 -26.649300 0.883267 0.451827 -0.125156
4.267000 3.781602 -40.712502 0.774346 0.496048 -0.392773
4.267000 3.378002 -40.245201 0.955535 -0.294382 -0.014954
4.175400 3.380902 -40.609001 0.853084 -0.419141 -0.310648
4.374300 2.070101 -26.677799 -0.777490 -0.571093 -0.263283
4.588900 1.792401 -26.340300 -0.145268 -0.899899 -0.411115
4.374300 1.785501 -26.059799 -0.588488 -0.763207 0.266732
4.757100 1.722801 -26.168501 -0.156743 -0.979217 -0.128574
5.017500 1.594901 -25.906799 0.250404 -0.958190 0.138218
4.849300 1.802001 -25.610201 -0.426618 -0.685202 0.590289
4.221200 3.461002 -35.503201 0.993835 -0.093081 -0.059816
4.267000 2.587301 -29.729000 -0.852443 -0.522111 -0.026582
4.252000 2.881401 -29.732901 -0.985595 0.151708 0.074374
5.170600 2.408101 -25.516300 0.746879 0.589007 0.308512
4.113900 3.608902 -40.921101 0.204627 0.123997 -0.970946
4.405100 2.347201 -25.525700 -0.776605 0.113285 0.619678
4.956000 2.373001 -25.257099 0.108768 0.604450 0.789148
4.236900 3.824202 -40.225601 0.752007 0.658345 0.032533
5.032500 1.814001 -26.270399 0.463454 -0.728111 -0.505020
3.654600 3.076502 -39.844799 -0.775628 -0.610401 0.160558
3.593800 3.834002 -39.843498 -0.887295 0.446455 -0.115452
4.343600 2.635801 -28.113199 -0.953093 0.296579 0.060091
4.359300 2.327001 -27.316401 -0.895108 -0.437117 -0.087619
4.374300 2.423901 -27.235600 -0.988311 0.151524 0.016022
4.313500 2.133801 -26.005800 -0.987365 -0.135624 0.081851
4.297800 2.354601 -25.922100 -0.944334 0.302561 0.128971
4.343600 2.243201 -26.584499 -0.998321 -0.032960 -0.047365
4.022300 3.000902 -40.203899 0.520951 -0.847621 -0.100467
5.232000 2.076101 -26.263100 0.893582 -0.074740 -0.442549
3.991600 3.155702 -39.286400 0.438795 -0.889279 0.128727
4.144700 3.461702 -38.366600 0.999969 -0.000031 0.003540
3.838500 3.912702 -40.195599 -0.532640 0.776330 -0.336985
4.742000 2.733501 -27.237200 0.571581 0.815668 0.088931
4.864400 2.151801 -25.224899 -0.147282 -0.406110 0.901852
5.308600 2.034201 -26.070801 0.983062 -0.152959 -0.100772
4.007300 3.890302 -39.917500 0.380078 0.924467 0.028993
4.359300 2.487601 -26.563601 -0.895993 0.442854 0.032441
4.405100 2.593001 -27.225700 -0.900143 0.428236 0.079501
3.792700 3.493101 -35.398499 -0.971557 0.226325 0.069399
4.053100 3.094101 -32.332199 -0.965026 -0.259011 0.040315
5.063300 2.266801 -25.273600 0.667409 -0.066073 0.741722
3.807700 3.959602 -39.741299 -0.142155 0.989776 0.009552
5.078900 1.862701 -25.716801 0.694601 -0.515244 0.501999
4.573200 2.665201 -26.502899 -0.212806 0.968444 0.129643
4.435800 2.832301 -27.850800 -0.731651 0.679312 0.056307
4.558200 2.916601 -28.019501 -0.149571 0.985321 0.082034
3.731200 3.671802 -38.317101 -0.976867 0.209387 0.043275
3.746900 3.181602 -39.365200 -0.711661 -0.677023 0.187414
4.007300 3.017502 -39.754902 0.431715 -0.881283 0.192114
4.573200 2.770601 -27.165001 -0.250832 0.953276 0.168279
4.481600 2.747101 -29.654699 0.858028 -0.494430 -0.138890
3.574900 0.135601 -25.276600 0.059664 -0.557115 -0.828242
2.564700 0.086301 -24.727100 -0.732810 -0.381390 -0.563463
3.529100 0.564001 -25.246599 -0.110324 0.506455 -0.855159
3.498400 0.693301 -25.012300 0.030366 0.974517 -0.222175
3.743700 0.517001 -25.232500 0.431928 0.464064 -0.773339
2.916700 0.613101 -24.907700 -0.579119 0.700430 -0.417096
3.268700 0.527201 -23.761801 -0.213385 0.421705 0.881252
4.203000 0.364801 -24.380199 0.942167 -0.306497 0.135441
3.514000 -0.072499 -24.134899 0.202521 -0.856685 0.474349
3.529100 -0.087799 -24.580000 0.264016 -0.957366 -0.117161
4.187300 0.357801 -24.610201 0.924558 -0.296915 -0.238685
2.534000 0.131001 -24.694799 -0.974792 0.111179 -0.193396
2.672000 -0.067699 -24.272900 -0.581652 -0.695303 0.422132
4.019100 0.441001 -23.917999 0.616596 0.161596 0.770470
3.758700 0.614101 -24.938499 0.350566 0.878567 -0.324320
4.141500 0.547501 -24.343100 0.655232 0.732047 0.186377
2.672000 0.130001 -24.235201 -0.809107 0.238014 0.537278
2.672000 -0.038199 -24.684999 -0.414808 -0.844783 -0.337992
4.110800 0.588401 -24.632999 0.647755 0.739525 -0.182897
4.004100 0.307101 -24.918400 0.816248 -0.366649 -0.446364
3.804600 0.256901 -25.226500 0.610248 -0.363750 -0.703726
3 0 1 2
3 3 0 2
3 4 5 6
3 7 8 9
3 10 11 12
3 13 14 15
3 15 16 13
3 17 18 19
3 20 21 1
3 22 23 24
3 25 26 27
3 28 29 30
3 31 23 32
3 33 31 32
3 34 35 36
3 37 38 39
3 40 41 42
3 17 43 8
3 44 45 46
3 47 48 49
3 50 51 52
3 52 53 50
3 54 25 15
3 55 56 47
3 57 58 43
3 28 59 60
3 61 62 63
3 61 63 64
3 65 66 54
3 67 36 68
3 69 70 71
3 72 73 32
3 70 74 3
3 31 75 24
3 0 76 77
3 78 10 79
3 80 81 82
3 83 6 84
3 48 83 84
3 85 86 48
3 66 87 88
3 89 90 65
3 91 37 53
3 53 57 92
3 56 62 61
3 61 93 56
3 94 95 13
3 42 41 96
3 74 70 69
3 35 97 98
3 35 98 36
3 99 8 100
3 101 79 99
3 102 91 92
3 40 103 2
3 73 47 32
3 85 71 104
3 104 100 85
3 103 42 96
3 24 105 22
3 106 91 102
3 106 102 107
3 107 108 106
3 17 19 109
3 98 110 111
3 112 98 111
3 51 50 10
3 113 69 114
3 83 4 6
3 103 3 2
3 20 77 76
3 115 116 117
3 31 118 44
3 118 114 115
3 69 71 81
3 119 112 111
3 120 72 89
3 120 89 65
3 65 55 120
3 121 122 11
3 11 123 121
3 4 93 5
3 14 124 54
3 14 54 15
3 10 50 11
3 125 7 9
3 126 80 97
3 126 97 117
3 116 126 117
3 96 41 79
3 79 101 96
3 20 1 77
3 127 128 88
3 127 88 87
3 87 129 105
3 63 6 5
3 125 130 86
3 7 125 86
3 122 131 12
3 111 110 94
3 108 39 38
3 60 59 132
3 108 107 133
3 133 39 108
3 134 135 24
3 10 19 18
3 86 85 100
3 114 81 126
3 98 136 110
3 132 43 58
3 132 58 60
3 40 42 103
3 78 40 137
3 67 44 115
3 126 116 114
3 86 100 7
3 10 18 79
3 111 94 16
3 5 93 61
3 28 138 21
3 108 38 106
3 89 139 129
3 129 90 89
3 12 11 122
3 85 84 81
3 71 85 81
3 81 80 126
3 127 87 105
3 135 127 105
3 58 52 140
3 0 77 1
3 8 43 132
3 80 136 97
3 141 125 9
3 9 76 141
3 26 128 67
3 119 27 26
3 63 62 142
3 20 59 21
3 13 95 82
3 25 27 15
3 29 28 140
3 140 137 29
3 125 141 0
3 80 82 95
3 136 80 95
3 92 43 17
3 17 109 92
3 82 81 63
3 63 142 82
3 127 45 128
3 63 81 84
3 113 114 118
3 119 68 112
3 139 22 105
3 105 129 139
3 37 91 106
3 106 38 37
3 107 122 121
3 121 133 107
3 24 135 105
3 98 68 36
3 49 48 86
3 49 86 130
3 47 33 32
3 128 45 67
3 102 92 109
3 109 131 102
3 20 76 9
3 40 30 29
3 110 95 94
3 113 125 74
3 10 12 19
3 88 25 66
3 13 142 62
3 53 52 57
3 53 92 91
3 139 72 22
3 119 16 15
3 15 27 119
3 143 2 21
3 143 21 138
3 138 30 143
3 125 0 74
3 23 22 72
3 40 143 30
3 18 99 79
3 31 24 23
3 3 96 70
3 72 32 23
3 0 3 74
3 50 53 133
3 121 50 133
3 65 54 124
3 56 124 14
3 14 62 56
3 140 28 60
3 52 58 57
3 62 14 13
3 25 54 66
3 67 68 26
3 113 130 125
3 110 136 95
3 99 17 8
3 101 99 104
3 39 133 37
3 36 67 34
3 114 116 115
3 28 30 138
3 135 134 127
3 65 124 55
3 21 2 1
3 4 47 56
3 4 56 93
3 88 26 25
3 37 133 53
3 7 100 8
3 117 97 35
3 40 29 137
3 40 78 41
3 137 140 52
3 52 51 137
3 67 115 34
3 33 47 49
3 144 49 130
3 87 66 90
3 82 142 13
3 132 20 9
3 55 124 56
3 119 26 68
3 121 123 50
3 47 83 48
3 46 45 134
3 134 75 46
3 132 9 8
3 101 70 96
3 60 58 140
3 44 67 45
3 31 144 118
3 75 31 46
3 65 90 66
3 89 72 139
3 43 92 57
3 21 59 28
3 61 64 5
3 16 119 111
3 123 11 50
3 70 104 71
3 84 6 63
3 35 34 117
3 78 137 51
3 101 104 70
3 79 41 78
3 98 97 136
3 31 33 49
3 31 49 144
3 85 48 84
3 128 26 88
3 24 75 134
3 102 131 122
3 122 107 102
3 59 20 132
3 18 17 99
3 13 16 94
3 78 51 10
3 74 69 113
3 4 83 47
3 104 99 100
3 45 127 134
3 55 47 73
3 73 120 55
3 2 143 40
3 64 63 5
3 118 144 130
3 130 113 118
3 96 3 103
3 112 68 98
3 131 109 19
3 12 131 19
3 0 141 76
3 73 72 120
3 90 129 87
3 81 114 69
3 115 44 118
3 44 46 31
3 117 34 115
3 145 146 147
3 148 149 150
3 145 151 152
3 153 154 155
3 156 157 158
3 159 160 161
3 161 162 159
3 161 163 164
3 164 162 161
3 165 166 167
3 168 169 170
3 171 172 173
3 173 174 171
3 175 176 168
3 151 177 152
3 178 153 155
3 179 158 180
3 180 181 179
3 182 183 184
3 185 186 187
3 188 189 190
3 150 162 164
3 171 174 191
3 192 193 175
3 194 180 158
3 195 153 178
3 157 196 197
3 177 183 198
3 198 152 177
3 189 188 199
3 165 200 201
3 202 192 203
3 203 204 202
3 191 168 170
3 205 187 196
3 206 205 196
3 205 207 185
3 155 154 208
3 156 206 196
3 209 199 161
3 174 210 151
3 174 151 211
3 166 165 212
3 213 159 169
3 175 168 147
3 197 196 214
3 215 199 209
3 216 167 166
3 204 207 217
3 218 204 217
3 216 145 152
3 215 189 199
3 214 196 188
3 219 172 220
3 149 148 171
3 221 197 214
3 158 197 194
3 216 198 167
3 205 206 217
3 207 205 217
3 216 212 222
3 215 194 221
3 187 186 188
3 172 148 220
3 174 211 191
3 181 159 213
3 213 179 181
3 190 223 221
3 221 214 190
3 216 152 198
3 156 158 179
3 156 179 224
3 216 222 146
3 215 221 223
3 196 187 188
3 148 172 171
3 220 175 219
3 190 189 223
3 215 209 180
3 216 166 212
3 180 160 181
3 216 146 145
3 215 223 189
3 225 226 202
3 191 170 171
3 226 213 169
3 226 169 176
3 227 201 228
3 228 173 227
3 174 173 228
3 160 209 161
3 156 196 157
3 155 208 165
3 227 146 222
3 220 148 192
3 219 147 146
3 202 193 192
3 165 201 212
3 177 151 210
3 157 197 158
3 208 183 177
3 208 154 183
3 177 229 208
3 210 229 177
3 200 228 201
3 226 176 202
3 227 172 219
3 176 193 202
3 207 203 185
3 165 208 229
3 226 225 230
3 218 230 225
3 203 163 185
3 225 202 218
3 176 169 168
3 146 227 219
3 169 231 170
3 227 222 201
3 167 182 195
3 217 224 230
3 217 230 218
3 206 156 224
3 217 206 224
3 210 174 228
3 145 211 151
3 176 175 193
3 170 149 171
3 148 150 192
3 197 221 194
3 201 222 212
3 180 209 160
3 195 182 184
3 184 153 195
3 163 186 185
3 167 155 165
3 231 169 159
3 159 162 231
3 145 147 191
3 211 145 191
3 170 231 150
3 149 170 150
3 202 204 218
3 228 200 229
3 228 229 210
3 230 224 179
3 179 213 230
3 182 198 183
3 199 188 163
3 163 161 199
3 178 155 167
3 150 231 162
3 227 173 172
3 220 192 175
3 207 204 203
3 229 200 165
3 230 213 226
3 183 154 184
3 203 164 163
3 167 195 178
3 164 203 192
3 150 164 192
3 191 147 168
3 188 190 214
3 215 180 194
3 167 198 182
3 181 160 159
3 184 154 153
3 163 188 186
3 187 205 185
3 175 147 219
3 232 233 234
3 234 235 236
3 235 237 238
3 239 240 241
3 242 239 241
3 243 233 244
3 245 240 239
3 240 238 244
3 237 234 233
3 235 246 236
3 238 247 235
3 248 238 237
3 237 243 248
3 244 248 243
3 249 232 241
3 239 247 245
3 237 233 243
3 242 250 247
3 242 251 250
3 242 247 239
3 244 238 248
3 235 250 246
3 238 245 247
3 235 234 237
3 251 242 241
3 251 241 232
3 251 232 252
3 252 232 234
3 234 236 252
3 233 232 249
3 250 236 246
3 235 247 250
3 238 240 245
3 251 252 236
3 251 236 250
3 241 240 244
3 244 249 241
3 244 233 249
