ply
format ascii 1.0
comment Created by Blender 2.92.0 - www.blender.org
element vertex 328
property float x
property float y
property float z
property float nx
property float ny
property float nz
element face 628
property list uchar uint vertex_indices
end_header
10.000000 1.127500 -9.057300 0.519913 -0.332957 0.786615
9.671400 1.420900 -8.986400 -0.597522 0.185156 0.780145
9.588300 1.133600 -9.081300 -0.794946 -0.083895 0.600818
9.514400 0.402300 -10.266200 -0.240028 -0.228095 -0.943571
10.153000 0.672200 -10.168300 0.668081 -0.449446 -0.592975
9.640900 0.292200 -10.210300 0.230689 -0.749321 -0.620685
9.048100 0.364500 -10.176600 -0.703238 0.697317 -0.138462
9.640500 0.495900 -10.123300 0.423841 0.904782 -0.040986
9.743600 -0.087200 -10.538400 0.749687 0.405713 -0.522782
9.184200 -0.211300 -10.588800 -0.680593 0.489029 -0.545488
9.979400 -0.262499 -13.749700 -0.459822 0.876247 -0.143773
9.772000 -0.340499 -14.279400 -0.640950 0.682333 -0.351512
9.872300 -0.728599 -13.704400 -0.768670 -0.608051 0.198401
9.753600 -0.576799 -13.107200 -0.773583 -0.602374 -0.196600
9.849700 -0.110599 -13.173100 -0.506974 0.721152 -0.472091
10.087800 -0.017200 -10.082000 0.446059 -0.538041 0.715201
10.212800 0.589100 -10.167800 0.640217 0.578570 0.505295
9.512900 0.681300 -10.228300 -0.505448 0.760796 0.407025
9.387900 0.075000 -10.142600 -0.716514 -0.353160 0.601520
9.440100 2.499800 -12.379300 -0.963775 0.266579 0.004486
10.015300 2.783900 -12.546000 0.369823 0.870693 -0.324137
9.568500 2.572300 -12.547700 -0.779046 0.597217 0.190741
9.772300 2.021400 -12.584900 -0.057558 -0.979156 -0.194708
9.643900 1.948801 -12.416600 -0.482101 -0.872982 -0.073611
9.829300 2.507001 -15.484700 0.418622 0.854793 -0.306619
9.823500 2.614501 -14.932800 0.255226 0.923887 -0.285043
9.943900 2.287101 -14.906200 0.858211 -0.489151 -0.155431
9.918200 2.265401 -15.465100 0.930174 -0.333567 -0.153111
9.893600 2.652801 -14.798000 0.434919 0.850734 -0.295083
9.526400 2.486101 -14.832200 -0.947905 0.318400 -0.009064
9.623200 2.585701 -14.488400 -0.861354 0.502091 -0.077029
9.880100 1.126901 -14.815900 -0.013764 -0.991852 0.126469
9.759400 1.094001 -14.841800 -0.569475 -0.719748 0.397015
10.086500 1.177501 -14.905300 0.501175 -0.864925 0.026032
9.972600 1.641301 -14.911800 0.015564 0.997955 -0.061830
9.660300 1.567501 -14.708500 -0.911618 0.383007 -0.149083
10.062800 1.676801 -14.628100 0.392285 0.919797 0.005280
10.151900 1.692001 -14.829800 0.598651 0.739982 -0.306619
10.038700 0.315301 -14.230200 -0.767571 -0.633625 0.096652
9.919300 0.279101 -14.768300 -0.867000 -0.490951 -0.085055
10.281100 0.232801 -14.678000 0.499741 -0.846919 0.181402
10.369100 0.279701 -14.147300 0.593005 -0.805170 0.000824
9.923400 1.037301 -13.103000 -0.393384 0.887143 -0.241188
9.746300 1.086801 -12.904300 -0.667440 0.730583 -0.143895
10.506200 0.962601 -13.051300 0.803583 0.478317 -0.354167
10.405700 0.966501 -13.131700 0.447829 0.889767 -0.087832
10.469300 1.003901 -12.173600 0.822657 0.567858 -0.026826
10.017600 1.046101 -12.338700 -0.507584 0.858577 0.071841
10.364500 0.706901 -14.705900 0.745109 0.666097 -0.032655
10.464400 0.753701 -14.175300 0.820490 0.546709 -0.166997
9.934600 1.366701 -16.382700 0.345500 0.853298 -0.390454
9.902300 1.320701 -16.337400 -0.925077 0.305918 0.224982
9.765700 1.416501 -15.819800 -0.912870 0.405621 -0.045869
9.850700 1.058101 -15.794800 -0.548906 -0.829768 0.100772
10.155600 1.131601 -16.014099 0.852199 -0.501053 -0.150517
10.174500 1.167501 -15.890300 0.904599 -0.425733 -0.020142
10.343600 1.358001 -12.166400 0.872982 -0.486129 0.039064
10.373900 1.256801 -13.013700 0.840358 -0.450331 -0.301584
10.225700 1.860201 -13.022100 0.524308 0.780633 -0.340098
10.229700 1.821900 -12.172800 0.522660 0.852535 0.000732
9.739900 2.188401 -15.404800 -0.228034 -0.957060 0.178930
9.662300 2.148001 -15.512600 -0.547685 -0.833888 0.067995
9.866200 2.095800 -11.989500 -0.293466 -0.938597 0.181310
9.709500 2.519400 -11.960800 -0.846980 0.441816 0.295541
10.227000 0.451900 -10.752200 0.798608 0.587451 -0.130650
9.541700 0.598500 -10.567400 -0.574480 0.749474 -0.328990
10.102000 -0.154400 -10.666400 0.539567 -0.819758 0.191809
9.587900 -0.559299 -12.817500 -0.847591 -0.530076 -0.023316
10.245500 -0.634599 -12.711800 0.565508 -0.653706 0.502853
10.120400 -0.603099 -12.657600 0.129795 -0.957518 0.257424
9.645400 -0.525499 -12.633600 -0.677175 -0.733543 0.057375
9.714100 -0.127000 -9.836200 0.664693 -0.312449 0.678610
9.646500 -0.734100 -10.576500 0.671590 -0.532029 0.515610
9.121700 -0.258400 -9.889600 -0.602802 -0.483902 0.634358
9.071300 0.044600 -9.835700 -0.707266 0.128147 0.695212
9.828300 2.726001 -9.932000 0.507035 0.720634 -0.472823
9.829800 2.483300 -9.972100 0.601398 -0.415723 -0.682241
9.351100 2.645101 -9.941200 -0.639210 0.605152 -0.474502
9.375100 2.574000 -9.516600 -0.601459 0.415601 0.682272
9.852300 2.655000 -9.507400 0.549058 0.527482 0.648274
9.527400 0.799500 -9.215200 -0.573473 -0.034181 0.818476
9.230200 0.162500 -9.765700 -0.708609 -0.701224 0.078433
9.356700 0.052300 -9.709800 -0.154759 -0.957121 0.244789
9.376700 2.331300 -9.556700 -0.506760 -0.720786 0.472884
9.352600 2.402300 -9.981300 -0.549089 -0.527482 -0.648244
9.853800 2.412301 -9.547500 0.639302 -0.605029 0.474563
9.087100 -0.858200 -10.626900 -0.661885 -0.515946 0.543779
9.817900 -1.168800 -11.063500 0.726646 -0.656972 0.200842
9.706900 -0.501800 -10.941400 0.729148 0.645131 -0.228217
9.664800 -0.806599 -14.234100 -0.870266 -0.461684 -0.171606
10.123800 -0.849399 -14.069000 0.489731 -0.832881 0.257759
10.178700 -0.760599 -13.562800 0.546800 -0.832118 0.092593
9.770400 0.080801 -12.719400 -0.354534 0.857631 -0.372448
9.601000 0.148201 -12.538800 -0.667409 0.718589 -0.195257
10.346800 0.004901 -12.669500 0.795618 0.435865 -0.420667
10.245500 0.003201 -12.743300 0.422437 0.869564 -0.255623
9.624500 2.009701 -12.739800 -0.495193 -0.868526 -0.020264
9.420700 2.560601 -12.702600 -0.942381 0.308817 0.128391
9.816400 2.168601 -15.702600 0.304697 -0.607135 -0.733848
9.727600 2.410201 -15.722200 -0.081759 0.429518 -0.899319
9.659400 1.709401 -13.062000 -0.724754 0.671194 -0.155431
9.807500 1.106101 -13.053600 -0.317698 -0.944334 -0.085299
9.637500 1.069401 -12.857700 -0.607135 -0.793329 -0.044313
9.489400 1.672701 -12.866000 -0.911832 0.403058 -0.077853
9.982000 1.127701 -15.376300 -0.378887 -0.925352 0.011536
9.645500 1.557901 -14.848200 -0.846858 0.399945 0.350475
9.766200 1.590701 -14.822400 -0.501267 0.864345 0.040284
10.363200 0.193901 -14.884100 0.632221 -0.694235 -0.343944
10.179800 0.208501 -14.922400 0.010895 -0.991913 0.126377
10.266000 0.682501 -14.934700 0.309336 0.934843 -0.174230
10.446600 0.668001 -14.912100 0.786584 0.417524 -0.454909
9.978600 1.149701 -11.556000 -0.557054 0.787530 -0.263466
10.422600 1.237500 -10.950300 0.802637 0.591540 -0.076205
10.134000 0.789401 -14.258200 -0.520188 0.850002 -0.082858
10.002700 0.753101 -14.796200 -0.640248 0.725516 -0.252327
10.086600 1.525901 -15.901300 0.461715 0.857112 -0.228339
10.118300 1.675801 -15.005500 0.508194 0.809900 0.292856
10.232200 1.212001 -14.999100 0.835170 -0.401868 0.375439
9.873400 1.259300 -11.558400 -0.528825 -0.842036 -0.106113
9.903400 1.235901 -12.318800 -0.426954 -0.875149 0.227577
10.313700 1.325100 -10.973000 0.847591 -0.530320 0.017701
9.573500 2.389601 -15.532200 -0.962981 0.262520 -0.061007
9.651100 2.430001 -15.424400 -0.856380 0.513932 0.049623
10.219100 2.233001 -12.583300 0.857723 -0.299081 -0.418134
10.130200 2.199200 -12.639800 0.664602 -0.683523 -0.301706
9.416700 -0.007700 -10.481700 -0.820154 -0.570452 -0.043001
10.370500 -0.028299 -12.797600 0.773156 0.575060 0.267342
9.252100 -2.173599 -13.197300 0.667043 -0.736900 -0.109561
9.380500 -1.938599 -12.717800 0.771233 -0.585681 -0.249275
9.041200 -2.006200 -12.640200 -0.614887 -0.788537 0.007385
8.994700 -2.224800 -13.138300 -0.484787 -0.866085 0.121860
10.415400 1.169101 -10.195100 0.747093 -0.364299 -0.555986
9.838100 0.640700 -9.305500 0.472640 -0.608997 0.636952
9.593800 0.978600 -9.137900 -0.703085 -0.213355 0.678304
9.908800 2.076401 -10.136400 -0.238685 -0.521256 -0.819300
9.574800 2.136301 -10.117900 -0.569414 0.475082 -0.670827
10.445500 2.412801 -10.254500 0.513840 0.656270 -0.552477
9.571900 2.011200 -10.113500 -0.418653 -0.663869 -0.619648
9.480200 2.002001 -9.862200 -0.658010 -0.475387 0.583941
9.506300 2.129400 -9.930000 -0.751488 0.606769 0.258950
9.464900 -1.971999 -12.583400 0.754601 -0.654927 -0.039766
9.015400 -2.061500 -12.480500 -0.513596 -0.832728 0.206702
9.476000 -0.458099 -12.453100 -0.879757 -0.474593 0.028016
9.787400 -0.314299 -11.949200 -0.729484 -0.600208 0.327921
9.883600 0.151801 -12.015200 -0.478195 0.877682 -0.031343
9.781300 -1.019699 -15.858100 -0.830287 -0.550493 -0.086642
9.797400 -1.022499 -16.038300 -0.880673 -0.448256 -0.153172
9.995400 -1.078399 -15.938800 0.535966 -0.836482 -0.114048
10.092500 2.678601 -11.861100 0.407025 0.911954 0.051393
10.249100 2.255100 -11.889700 0.930387 -0.356761 -0.084170
9.646800 2.158701 -14.805700 -0.451613 -0.885372 0.110111
10.014000 2.325501 -14.771500 0.915342 -0.348094 -0.202277
9.635900 1.155401 -10.760800 -0.517380 -0.844661 -0.137272
9.487800 1.758700 -10.769200 -0.853511 0.486587 -0.186316
9.759500 1.723200 -11.564800 -0.839778 0.510147 -0.185705
9.601400 1.161201 -10.399300 -0.465346 -0.698019 0.544206
9.774200 1.103701 -14.702100 -0.615101 -0.779778 -0.116428
9.777200 1.645701 -13.556500 -0.802515 0.504624 -0.318186
10.251400 1.861301 -13.158900 0.494003 0.793878 0.354472
10.204900 1.735301 -14.115500 0.526353 0.832636 -0.172124
9.883300 1.647601 -14.190200 -0.797021 0.601978 0.048128
9.746700 0.402801 -13.267900 -0.840236 -0.535356 -0.085726
9.922700 0.413101 -13.579400 -0.765221 -0.596820 -0.241279
10.410100 0.324501 -13.155500 0.566973 -0.694082 0.443525
10.390700 1.322200 -10.309900 0.626637 0.536271 0.565386
10.266600 0.705601 -10.273500 0.436628 -0.596118 0.673757
9.722400 1.360801 -10.744300 -0.577288 0.773949 -0.260170
10.298500 0.621000 -10.913900 0.558794 -0.822596 0.104953
10.186600 0.430601 -16.588800 0.808740 0.546312 -0.217719
9.871900 0.480001 -16.639299 -0.665853 0.742759 -0.070101
9.958000 0.475801 -16.508499 -0.465560 0.884884 0.015137
9.957200 0.214701 -15.460700 -0.774316 -0.626667 0.087680
10.041300 0.618701 -15.471200 -0.516923 0.851283 -0.089938
9.891200 0.583101 -15.925100 -0.615192 0.788110 -0.020234
9.814400 0.216701 -15.925900 -0.856014 -0.512070 0.070498
9.883300 0.675600 -11.528000 -0.824976 -0.560015 -0.076022
9.922200 0.572101 -12.310800 -0.746849 -0.609058 0.266884
10.289200 1.344301 -10.350800 0.670492 -0.405042 0.621570
10.165600 1.928401 -10.981300 0.491531 0.869686 -0.044679
10.141000 1.947600 -10.359200 0.384991 0.709433 0.590289
9.754300 1.084001 -13.248000 -0.559069 -0.822291 -0.106021
10.399600 1.257901 -13.150500 0.817438 -0.427717 0.385754
10.275500 1.227801 -13.090000 0.524277 -0.848567 0.070956
9.551100 2.567900 -12.959600 -0.881924 0.401349 -0.247139
9.972400 2.799500 -12.658500 0.409314 0.858333 0.309305
9.888500 2.753201 -13.402600 0.376446 0.919370 -0.114139
9.614800 2.635300 -13.466600 -0.873318 0.483840 0.056490
9.978100 2.286301 -13.779700 0.844752 -0.525559 0.100650
9.644200 2.138101 -13.887700 -0.480850 -0.849635 -0.216498
9.916200 2.264501 -14.020200 0.647359 -0.759789 0.059816
10.062800 2.328501 -13.934500 0.949126 -0.224738 -0.220466
9.843500 -0.753899 -15.881300 -0.543779 0.809412 -0.221625
9.747100 -0.600999 -15.342200 -0.615711 0.784814 -0.070009
10.098100 -0.698799 -15.491400 0.721915 0.591052 -0.359783
10.057500 -0.812599 -15.962100 0.869472 0.436293 -0.231605
9.855400 -0.930099 -14.858900 -0.759636 -0.640919 0.110080
10.109200 -1.048699 -15.310300 0.576525 -0.808252 -0.119633
10.168900 -0.938699 -14.405500 0.531480 -0.666738 0.522446
9.676100 -0.146600 -11.235000 -0.802087 -0.591357 -0.082980
9.077300 -0.840699 -11.440300 -0.743156 0.496567 -0.448439
9.027500 -0.668500 -11.128100 -0.764275 0.580706 -0.280374
9.768000 -0.687500 -11.378100 0.629780 0.627064 -0.458388
9.432900 -1.469100 -12.197600 0.648579 0.732536 -0.206671
9.093700 -1.536600 -12.120000 -0.867183 0.474654 0.150487
9.786100 1.257700 -10.320100 -0.473373 -0.073458 -0.877773
9.685400 1.092101 -10.085800 -0.781610 0.166662 -0.601032
9.845300 1.542601 -10.159700 -0.609119 0.467849 -0.640339
10.530700 1.523301 -10.250800 0.757317 -0.040345 -0.651753
10.108100 1.481000 -9.093000 0.659383 -0.006470 0.751732
10.114100 1.875100 -9.125400 0.586261 0.081759 0.805963
9.677300 1.829700 -9.132100 -0.837428 0.195379 0.510361
10.515500 1.915300 -10.225100 0.754021 -0.013581 -0.656697
10.038100 2.372000 -9.138400 0.058901 0.758324 0.649159
8.995100 -1.417499 -12.295600 -0.711325 0.698843 0.074648
9.444600 -1.327999 -12.398500 0.481246 0.861049 -0.164098
9.428100 -1.573299 -12.607400 0.581500 0.558763 -0.591266
8.978700 -1.662699 -12.504500 -0.886563 0.378399 -0.266091
9.713000 0.047001 -12.903300 -0.532823 0.796533 -0.285714
9.664300 -0.961299 -15.307200 -0.874599 -0.466567 0.131657
9.942400 -0.808899 -16.252899 0.140141 0.439802 -0.887051
9.860400 -0.756699 -16.059099 -0.496933 0.833247 -0.242286
10.068400 2.323401 -14.111600 0.878567 -0.311045 0.362438
9.909700 2.747001 -14.118400 0.409986 0.849330 0.332438
9.757500 2.688101 -14.021600 -0.139683 0.988067 -0.064486
9.885000 1.522901 -15.388500 -0.816828 0.555712 -0.154759
10.382200 0.346001 -13.015000 0.598773 -0.767846 -0.227729
10.281700 0.349901 -13.095400 0.153325 -0.974822 0.161748
10.195500 0.141401 -16.059799 0.483291 -0.862606 -0.149358
9.901300 0.205501 -16.509100 -0.738365 -0.654561 0.162236
10.130000 0.160301 -16.589399 0.581927 -0.811060 -0.059236
10.272300 0.507801 -16.059000 0.741539 0.609790 -0.279702
10.269500 0.141901 -15.895500 0.593707 -0.792810 -0.137516
10.323300 0.175701 -14.990800 0.565813 -0.697653 0.439436
9.598300 0.744200 -10.708000 -0.812769 -0.572375 -0.108463
9.952600 1.056801 -16.291500 -0.138432 -0.989441 -0.042787
9.742200 2.475200 -11.342000 -0.913724 0.400311 -0.069521
10.120200 2.673100 -10.886300 0.363536 0.931547 0.003723
9.772900 2.211700 -13.483300 -0.318888 -0.946074 0.056734
9.485400 2.561701 -13.889000 -0.940825 0.249825 -0.228889
10.285900 -0.294399 -13.608100 0.837336 0.508164 -0.201483
9.789000 -0.846799 -14.315500 -0.448653 -0.866878 0.217200
10.008700 -0.896799 -14.351700 0.059572 -0.965880 0.251961
9.483500 -1.770699 -12.382600 0.883145 -0.427808 0.192267
9.718300 -0.515200 -11.065900 0.541490 0.819391 -0.188025
9.918500 2.265400 -9.935000 -0.461531 0.883602 0.078799
9.812800 2.066801 -9.873500 -0.875546 -0.356365 0.326182
10.231000 -0.383299 -14.114300 0.789361 0.607318 -0.089663
10.333700 0.118901 -11.862400 0.831477 0.551897 -0.063540
9.983100 0.249301 -14.869600 -0.499130 -0.828120 0.255074
10.069400 0.723301 -14.881800 -0.222602 0.970672 -0.090548
9.966400 0.737001 -14.930200 -0.588244 0.746055 0.311960
9.880100 0.263001 -14.918000 -0.804376 -0.437269 0.402112
9.682900 1.412900 -10.372600 -0.520371 0.716758 0.464156
9.558900 0.796300 -10.336200 -0.721885 -0.411664 0.556200
10.018000 0.887101 -13.607300 -0.524979 0.756340 -0.390210
9.879400 -1.074799 -16.232201 -0.122776 -0.617450 -0.776940
8.938700 -2.129300 -13.414700 -0.667257 -0.173498 -0.724326
9.016100 -0.655100 -11.003600 -0.886685 0.442061 -0.135380
9.127100 -1.322000 -11.125700 -0.467666 -0.877712 0.104282
9.851700 -1.306000 -11.234500 0.758049 -0.410504 0.506760
9.780700 -0.368299 -14.412000 -0.603168 0.769341 0.210334
9.946700 -0.532799 -14.897500 -0.438459 0.872921 -0.213782
9.673600 -0.834399 -14.366600 -0.851344 -0.376141 0.365642
9.896100 -0.380699 -14.360800 -0.079287 0.980834 -0.177862
9.707800 2.144400 -12.988300 -0.368419 -0.850215 -0.375958
10.350800 2.086000 -10.417200 0.769982 -0.353343 0.531236
10.147000 2.637001 -10.379900 0.344249 0.714194 0.609424
9.563200 2.380001 -10.381900 -0.745293 0.268990 0.610034
9.767000 1.829100 -10.419100 -0.315622 -0.794549 0.518693
10.067800 1.489901 -16.028000 0.452467 0.814936 -0.362072
9.991600 1.102801 -16.345501 0.806360 -0.417646 -0.418714
10.534100 0.941101 -13.191800 0.776330 0.539842 0.325327
9.870700 1.019401 -13.304200 -0.621937 0.752403 -0.216803
9.772200 0.319501 -11.300900 -0.561602 0.741630 -0.366802
9.663700 0.176000 -9.782400 0.496628 0.345592 0.796167
9.989900 1.860901 -9.988500 -0.739830 -0.117038 -0.662496
9.034000 -1.860199 -12.279800 -0.593066 -0.609027 0.526566
10.221800 -0.601399 -12.583700 0.583972 -0.791833 -0.178686
10.237600 -0.347299 -11.796400 0.596820 -0.770959 0.222205
9.768600 1.857700 -10.714500 -0.408887 -0.890805 -0.198096
9.898900 2.051701 -11.370600 -0.418653 -0.891995 -0.170415
10.324000 2.122101 -10.923500 0.906308 -0.407331 -0.112339
9.758400 2.224601 -14.482600 -0.316568 -0.948546 0.006226
10.176700 1.213001 -14.621700 0.782525 -0.618091 0.074404
10.265800 1.228101 -14.823400 0.881863 -0.378796 -0.280709
9.789400 1.699701 -12.325200 -0.798059 0.577349 0.172430
9.799400 0.420701 -13.066700 -0.677725 -0.734458 -0.034822
9.815300 0.209701 -16.639900 -0.906003 -0.423078 0.010773
10.105900 0.376701 -16.967501 0.296213 0.416791 -0.859371
10.049200 0.106401 -16.968100 0.054659 -0.650288 -0.757683
10.409600 0.649801 -15.003100 0.781487 0.517563 0.348369
10.346300 0.508301 -15.894700 0.830988 0.500931 -0.241859
9.782100 1.284101 -16.676201 -0.041017 0.427534 -0.903043
9.647100 1.284801 -16.498100 -0.907437 0.412458 0.080020
9.704100 1.020901 -16.460899 -0.678213 -0.698264 0.228889
9.839100 1.020301 -16.639000 0.191626 -0.650838 -0.734611
9.891100 1.181901 -13.550100 -0.465865 -0.840938 -0.275216
9.819400 2.709801 -13.781100 0.252022 0.962645 0.098636
10.046600 2.329601 -13.419300 0.920255 -0.357250 -0.159520
10.276100 -0.472499 -14.450800 0.780908 0.519517 0.346721
10.115800 -0.430699 -14.397000 0.444807 0.878475 -0.174383
9.128500 -1.258600 -11.272600 -0.883785 -0.451552 0.122440
9.819300 -1.105299 -11.210400 0.960326 -0.153691 0.232551
9.122400 0.788200 -9.576300 -0.708548 0.498764 0.499130
9.588500 0.910000 -10.079400 -0.399030 0.592059 -0.700156
9.154800 0.846700 -10.033800 -0.567675 0.663350 -0.487503
10.015300 -1.059099 -15.456400 0.408002 -0.909299 -0.081515
10.176200 2.248600 -12.695700 0.946745 -0.289956 0.139836
10.172800 -0.905999 -14.235400 0.602557 -0.787469 -0.129429
9.661800 2.138601 -14.047500 -0.452071 -0.864559 0.219398
9.503100 2.562101 -14.054300 -0.947233 0.263680 0.182104
9.926400 2.750100 -12.602600 0.017548 0.961852 0.272927
10.318800 1.271501 -14.109100 0.865291 -0.486862 -0.119114
9.997200 1.183701 -14.183800 -0.409497 -0.904630 0.117862
9.606200 1.687401 -13.256400 -0.878658 0.452986 -0.150670
9.564800 2.408601 -10.677200 -0.924284 0.373943 -0.076235
10.280000 -0.439799 -14.280700 0.875607 0.349010 -0.333842
9.196100 -2.078000 -13.473600 0.341380 0.011383 -0.939848
10.127300 1.831101 -13.098300 0.038759 0.996582 -0.072542
9.453300 1.764500 -10.407700 -0.745994 0.419416 0.517258
8.965100 0.450900 -9.867800 -0.957213 -0.272347 -0.097781
9.160900 -1.459300 -11.296700 -0.504410 -0.590991 0.629475
9.622200 0.470301 -12.867900 -0.873226 -0.486435 -0.027985
9.904000 2.752101 -13.935900 0.506607 0.836390 -0.209204
9.738600 2.182901 -13.969200 0.009735 -0.999847 0.013672
9.579800 2.606501 -13.970500 -0.719016 0.693594 -0.043611
10.192100 -0.688399 -15.345300 0.829890 0.440016 -0.342936
10.374000 0.529901 -12.145600 0.599414 -0.790674 0.124485
3 0 1 2
3 3 4 5
3 6 7 8
3 8 9 6
3 10 11 12
3 10 12 13
3 10 13 14
3 15 16 17
3 17 18 15
3 19 20 21
3 19 21 22
3 22 23 19
3 24 25 26
3 26 27 24
3 28 29 30
3 31 32 33
3 34 35 36
3 36 37 34
3 38 39 40
3 38 40 41
3 42 43 44
3 44 45 42
3 46 44 47
3 48 49 41
3 41 40 48
3 50 51 52
3 53 54 55
3 56 57 58
3 59 56 58
3 60 61 27
3 19 23 62
3 19 62 63
3 64 16 15
3 64 65 16
3 15 66 64
3 67 68 69
3 69 70 67
3 71 72 8
3 73 74 6
3 75 76 77
3 75 77 78
3 78 79 75
3 80 81 82
3 83 84 76
3 83 78 84
3 76 85 83
3 9 86 73
3 72 87 88
3 12 89 90
3 12 90 91
3 92 93 94
3 94 95 92
3 96 22 21
3 97 96 21
3 27 98 99
3 24 27 99
3 100 101 102
3 100 102 103
3 104 53 55
3 34 105 106
3 107 108 109
3 110 107 109
3 44 43 47
3 111 112 46
3 46 47 111
3 38 113 114
3 114 39 38
3 34 106 35
3 115 116 117
3 117 55 115
3 118 119 120
3 121 99 61
3 121 61 60
3 121 60 122
3 123 23 22
3 22 124 123
3 18 17 65
3 65 125 18
3 68 126 95
3 95 69 68
3 127 128 129
3 129 130 127
3 131 0 132
3 131 132 4
3 0 2 133
3 134 135 136
3 137 138 139
3 137 139 135
3 140 141 129
3 140 129 128
3 93 142 143
3 93 143 144
3 145 146 147
3 123 20 148
3 148 149 123
3 150 26 151
3 152 153 154
3 152 155 153
3 154 118 152
3 156 31 33
3 157 158 159
3 159 160 157
3 161 162 163
3 112 164 165
3 112 166 164
3 165 167 112
3 168 169 170
3 171 172 173
3 173 174 171
3 175 111 47
3 47 176 175
3 177 120 178
3 179 177 178
3 180 181 182
3 101 180 182
3 183 184 185
3 185 186 183
3 187 188 189
3 189 190 187
3 191 192 193
3 193 194 191
3 195 196 197
3 125 198 66
3 199 200 201
3 199 201 202
3 202 203 199
3 2 204 205
3 206 207 131
3 208 209 210
3 211 136 212
3 212 209 211
3 213 214 215
3 215 216 213
3 92 217 70
3 92 70 142
3 92 142 93
3 195 218 196
3 194 219 220
3 221 222 223
3 223 189 221
3 222 28 30
3 105 224 32
3 105 32 31
3 105 31 106
3 36 35 160
3 159 36 160
3 225 226 45
3 44 225 45
3 227 174 228
3 228 229 227
3 170 173 230
3 230 168 170
3 171 231 232
3 233 175 167
3 53 52 51
3 51 234 53
3 119 57 56
3 235 236 148
3 148 63 235
3 237 186 238
3 238 188 237
3 126 239 14
3 89 240 241
3 215 214 242
3 242 140 215
3 201 200 243
3 84 78 77
3 244 212 136
3 212 245 210
3 72 71 73
3 73 86 72
3 72 88 8
3 246 239 91
3 91 90 246
3 247 94 144
3 62 23 123
3 99 98 61
3 24 99 121
3 117 116 34
3 34 33 117
3 116 115 224
3 248 39 249
3 248 249 250
3 250 251 248
3 48 114 113
3 49 48 113
3 165 164 252
3 252 253 165
3 162 254 113
3 113 38 162
3 116 224 105
3 104 55 117
3 152 118 120
3 150 29 122
3 122 60 150
3 62 123 149
3 219 255 146
3 219 146 220
3 67 13 68
3 129 216 256
3 256 130 129
3 4 132 82
3 244 139 138
3 244 136 135
3 135 139 244
3 76 75 79
3 79 85 76
3 257 258 86
3 259 202 201
3 260 261 262
3 260 262 240
3 260 240 263
3 246 11 10
3 239 246 10
3 183 186 237
3 237 264 183
3 265 266 267
3 267 268 265
3 119 102 57
3 50 269 54
3 54 270 50
3 115 52 224
3 248 251 108
3 109 114 48
3 48 110 109
3 45 271 272
3 272 42 45
3 110 48 40
3 40 107 110
3 115 269 52
3 269 115 55
3 55 54 269
3 119 56 120
3 61 98 27
3 264 96 97
3 183 264 97
3 64 273 65
3 91 68 13
3 13 12 91
3 7 274 71
3 274 7 6
3 6 74 274
3 208 210 1
3 206 275 207
3 206 204 2
3 2 1 206
3 203 213 276
3 143 277 278
3 218 192 191
3 191 145 218
3 279 280 281
3 282 151 221
3 122 29 25
3 25 24 122
3 283 156 33
3 33 284 283
3 59 58 285
3 161 163 226
3 286 161 226
3 287 169 288
3 287 228 169
3 288 289 287
3 290 291 172
3 290 109 108
3 108 232 290
3 50 292 293
3 294 293 292
3 292 295 294
3 180 296 181
3 148 20 63
3 297 185 298
3 298 187 297
3 299 261 260
3 300 299 260
3 261 195 262
3 140 128 215
3 301 302 87
3 87 258 301
3 303 80 304
3 304 305 303
3 304 205 4
3 244 138 245
3 4 82 5
3 216 129 141
3 143 142 277
3 194 193 306
3 306 147 194
3 235 63 62
3 62 280 235
3 282 30 29
3 29 150 282
3 24 121 122
3 224 104 32
3 34 116 105
3 286 42 272
3 272 161 286
3 229 289 288
3 168 229 288
3 290 172 250
3 109 290 250
3 251 250 172
3 172 171 251
3 50 293 51
3 104 224 52
3 52 53 104
3 118 154 285
3 285 119 118
3 281 236 266
3 281 149 236
3 266 265 281
3 264 307 124
3 264 124 22
3 22 96 264
3 239 10 14
3 90 89 241
3 241 308 90
3 302 259 201
3 86 258 87
3 72 86 87
3 78 83 85
3 79 78 85
3 275 134 211
3 275 210 245
3 275 245 134
3 276 141 140
3 242 276 140
3 95 94 277
3 277 69 95
3 306 218 145
3 145 147 306
3 17 16 65
3 309 310 282
3 309 282 221
3 309 221 189
3 311 184 21
3 312 181 296
3 296 313 312
3 178 154 153
3 161 272 254
3 254 162 161
3 287 289 229
3 109 249 114
3 39 248 108
3 233 253 166
3 233 166 111
3 111 175 233
3 294 295 270
3 180 101 314
3 180 314 157
3 157 296 180
3 236 235 315
3 298 307 264
3 264 237 298
3 95 126 14
3 14 217 92
3 14 92 95
3 316 246 90
3 90 308 316
3 242 214 202
3 257 200 258
3 5 82 81
3 5 81 3
3 275 211 207
3 0 208 1
3 131 207 208
3 208 0 131
3 256 317 127
3 127 130 256
3 67 217 14
3 14 13 67
3 146 255 147
3 280 62 281
3 25 28 151
3 151 26 25
3 266 236 315
3 267 266 315
3 106 31 156
3 106 156 35
3 318 157 314
3 163 271 45
3 45 226 163
3 166 253 252
3 109 250 249
3 249 39 114
3 179 178 153
3 319 179 153
3 234 270 54
3 57 182 318
3 58 57 318
3 279 281 265
3 279 265 268
3 184 307 298
3 184 298 185
3 94 93 144
3 300 316 308
3 308 241 300
3 87 243 88
3 88 243 257
3 88 257 9
3 88 9 8
3 212 244 245
3 205 131 4
3 320 303 305
3 199 203 321
3 144 143 198
3 144 198 273
3 195 261 192
3 192 218 195
3 194 220 191
3 30 282 310
3 222 30 310
3 223 222 310
3 36 159 312
3 312 283 36
3 177 179 319
3 319 155 177
3 176 322 225
3 168 230 227
3 227 229 168
3 291 173 172
3 228 287 229
3 43 322 176
3 43 42 322
3 43 176 47
3 318 158 157
3 283 284 37
3 36 283 37
3 28 25 29
3 28 222 221
3 221 151 28
3 62 149 281
3 146 145 191
3 220 146 191
3 277 142 70
3 70 69 277
3 276 213 216
3 216 141 276
3 137 134 245
3 245 138 137
3 132 133 80
3 134 137 135
3 1 210 275
3 259 302 301
3 301 321 259
3 7 71 8
3 89 11 263
3 263 240 89
3 300 260 263
3 190 189 223
3 323 190 223
3 20 19 63
3 159 158 181
3 181 312 159
3 152 120 177
3 152 177 155
3 175 176 167
3 291 290 232
3 232 231 291
3 291 230 173
3 169 228 170
3 225 322 286
3 286 226 225
3 153 155 319
3 318 182 181
3 318 181 158
3 184 97 21
3 324 188 238
3 325 324 238
3 326 193 192
3 196 306 193
3 326 196 193
3 278 66 198
3 198 143 278
3 203 276 321
3 80 133 205
3 304 80 205
3 204 206 131
3 82 132 80
3 209 208 207
3 211 209 207
3 216 215 317
3 317 256 216
3 217 67 70
3 194 147 255
3 194 255 219
3 236 149 148
3 282 150 151
3 223 310 325
3 34 37 284
3 284 33 34
3 58 103 285
3 49 271 163
3 163 41 49
3 233 167 165
3 233 165 253
3 254 271 49
3 49 113 254
3 40 39 108
3 108 107 40
3 52 269 50
3 51 293 294
3 294 234 51
3 57 102 101
3 101 182 57
3 267 315 279
3 279 268 267
3 311 124 307
3 311 307 184
3 273 64 247
3 247 144 273
3 11 89 12
3 201 243 87
3 87 302 201
3 9 257 86
3 81 320 3
3 205 204 131
3 209 212 210
3 71 274 74
3 74 73 71
3 9 73 6
3 239 126 68
3 68 91 239
3 125 66 15
3 125 15 18
3 311 20 123
3 123 124 311
3 26 150 60
3 60 27 26
3 59 178 120
3 120 56 59
3 33 32 104
3 104 117 33
3 318 314 100
3 41 163 162
3 162 38 41
3 112 111 166
3 271 254 272
3 251 171 232
3 251 232 108
3 46 112 167
3 167 327 46
3 54 53 234
3 314 101 100
3 20 311 21
3 237 188 187
3 237 187 298
3 300 11 246
3 246 316 300
3 240 262 241
3 259 242 202
3 243 200 257
3 77 76 84
3 305 3 320
3 3 305 304
3 258 200 199
3 199 301 258
3 317 215 128
3 128 127 317
3 197 299 300
3 300 241 197
3 299 326 261
3 324 325 310
3 310 309 324
3 297 238 186
3 185 297 186
3 296 157 160
3 160 313 296
3 292 50 270
3 270 295 292
3 42 286 322
3 171 174 231
3 168 288 169
3 174 173 170
3 170 228 174
3 176 225 327
3 154 178 59
3 59 285 154
3 35 156 313
3 35 313 160
3 223 325 238
3 188 324 189
3 280 279 315
3 235 280 315
3 218 306 196
3 278 277 94
3 247 278 94
3 202 214 213
3 213 203 202
3 205 133 2
3 134 136 211
3 132 0 133
3 275 206 1
3 242 259 321
3 321 276 242
3 247 64 66
3 66 278 247
3 262 195 197
3 262 197 241
3 326 192 261
3 324 309 189
3 223 238 297
3 297 323 223
3 313 156 283
3 313 283 312
3 100 103 58
3 58 318 100
3 176 327 167
3 230 291 231
3 231 227 230
3 252 164 166
3 174 227 231
3 327 225 44
3 46 327 44
3 234 294 270
3 103 102 119
3 103 119 285
3 184 183 97
3 297 187 190
3 297 190 323
3 300 263 11
3 326 299 197
3 197 196 326
3 125 65 273
3 273 198 125
3 199 321 301
3 81 80 303
3 303 320 81
3 3 304 4
