ply
format ascii 1.0
comment Created by Blender 2.92.0 - www.blender.org
element vertex 134
property float x
property float y
property float z
property float nx
property float ny
property float nz
element face 264
property list uchar uint vertex_indices
end_header
8.582800 3.634900 1.458400 -0.555193 0.831111 0.031495
8.666800 3.552500 3.322000 -0.119694 0.978149 0.169866
9.024500 3.678700 2.368800 -0.078402 0.992370 0.094913
9.129500 3.733000 1.554200 -0.112461 0.993072 0.033418
8.339300 2.517100 5.815200 0.959593 -0.227088 0.166112
8.821600 3.021000 3.313700 0.812738 -0.556566 0.172216
8.240900 2.962200 5.810400 0.750084 0.580645 0.316538
9.166600 3.817400 0.229500 0.098666 0.994537 -0.033570
9.570200 3.668800 -0.000200 0.515763 0.746452 -0.420392
9.304200 3.741900 -0.191300 0.549394 0.774255 -0.314097
9.077400 3.251900 0.570200 -0.092380 -0.992645 0.078066
9.091100 2.949100 0.111000 -0.297739 -0.953764 0.040834
9.615900 2.907700 0.298400 -0.122196 -0.989776 0.073183
9.570100 3.110400 0.654400 -0.146489 -0.930601 0.335398
10.487600 3.102200 0.678800 0.665731 -0.525681 0.529527
10.677500 3.408000 0.544800 0.997650 0.011017 0.067476
10.606500 3.448400 0.845200 0.891079 -0.015442 0.453536
5.590400 1.026900 10.891000 -0.849300 -0.382519 0.363781
5.649900 1.554900 11.183600 -0.800958 0.148595 0.579943
5.551500 1.923100 10.582700 -0.889309 0.455123 -0.043977
9.951300 3.117100 0.035500 0.190252 -0.654744 -0.731468
9.686800 3.001200 -0.071700 0.332163 -0.784906 -0.522996
9.797000 3.308700 -0.174200 0.404279 -0.130680 -0.905240
10.013900 3.340300 -0.061700 0.307321 -0.181188 -0.934172
6.382000 1.298000 11.518800 -0.003388 -0.175298 0.984497
6.589400 1.276000 11.502100 0.111393 -0.125889 0.985748
6.199800 1.778600 11.445100 -0.166509 0.467055 0.868374
6.143400 1.481200 11.516500 -0.247963 0.078738 0.965545
10.186700 3.049500 0.771300 0.128361 -0.734397 0.666433
9.866200 3.364800 1.263900 0.326792 -0.873531 0.360698
9.243500 3.589100 -0.437000 0.359966 0.327189 -0.873684
9.569900 3.490100 -0.164100 0.447829 0.662221 -0.600696
8.670400 3.256000 0.129700 -0.548784 -0.788751 -0.276894
8.407600 3.343400 0.117200 -0.613178 -0.520157 -0.594470
8.296700 3.794900 0.121400 -0.865963 0.500015 -0.005829
6.339300 1.273600 9.672900 -0.587695 -0.588733 -0.554949
5.895600 0.999000 10.155000 -0.586383 -0.513596 -0.626362
5.762700 1.626000 10.028300 -0.839564 0.011719 -0.543107
6.157400 2.262200 10.489600 -0.209540 0.973479 -0.091525
7.473100 2.310100 8.683400 0.611499 0.742241 0.274087
7.204600 2.391700 8.648600 -0.128910 0.986785 0.097842
8.318600 2.896400 3.168200 -0.572131 -0.764183 -0.297739
8.808600 3.171300 1.466700 -0.570055 -0.805658 -0.160924
9.063000 3.025900 1.548000 0.048616 -0.996429 -0.068819
8.641000 2.736700 3.215000 0.286019 -0.950438 -0.121860
10.641100 3.542200 0.330700 0.863308 0.419080 -0.281137
10.528600 3.197700 0.224400 0.966887 -0.127628 -0.220832
10.414400 3.411500 -0.014400 0.506668 0.235206 -0.829402
9.028600 3.734900 0.919500 -0.052126 0.991607 0.118259
8.943000 3.765000 0.800900 0.011322 0.981811 0.189367
9.077700 3.870800 -0.323000 -0.184790 0.876675 -0.444136
8.922100 3.340300 -0.502100 -0.598682 -0.555376 -0.577136
8.887500 3.498600 -0.262300 -0.623035 0.052248 -0.780419
8.950600 3.694400 -0.163000 -0.480056 0.780419 -0.400525
8.694800 3.233500 0.650700 -0.431379 -0.891476 0.138279
8.479300 3.411200 0.670300 -0.859951 -0.466781 0.206244
7.410000 1.829900 10.689900 0.854732 0.514847 0.065737
7.146500 2.056900 10.528600 0.557054 0.829737 0.034761
7.062400 2.124000 10.951900 0.456435 0.800317 0.388745
7.485500 1.329900 10.564500 0.929746 -0.364452 -0.052004
7.465500 1.536299 11.041300 0.859340 0.174688 0.480605
5.834600 1.361799 11.347000 -0.701285 -0.248390 0.668172
9.396000 3.140500 0.970600 0.213019 -0.972503 0.093844
9.666900 3.378000 1.718400 0.514206 -0.842982 0.157811
9.448100 3.753000 1.041300 -0.149907 0.988189 0.031526
9.526400 3.751300 1.662300 -0.050569 0.993652 0.100345
8.823800 3.807000 0.538600 -0.043214 0.990661 0.129093
8.142400 3.095600 3.172200 -0.897671 -0.334208 -0.287149
7.567300 2.517100 5.618700 -0.899014 -0.301309 -0.317698
7.588800 2.776300 5.656900 -0.844691 0.525468 -0.101657
8.130100 3.259100 3.214400 -0.860439 0.497757 -0.108676
6.077900 0.550600 10.851800 -0.299478 -0.940214 0.162114
6.985000 0.712499 11.145000 0.451277 -0.891293 -0.043489
6.750200 0.935000 11.340300 0.122135 -0.525224 0.842128
6.963500 1.503200 8.433100 -0.286752 -0.891934 -0.349528
7.316900 1.447300 8.501100 0.355449 -0.920774 -0.160558
7.084400 1.163900 9.811400 0.555010 -0.806696 -0.202857
8.384700 3.760700 -0.127700 -0.558306 0.243110 -0.793207
8.772700 3.370700 -0.198400 -0.530869 -0.426832 -0.732078
8.362800 3.681400 -0.073100 -0.831202 -0.391552 -0.394635
9.238000 3.291400 -0.409800 0.096591 -0.367199 -0.925077
9.148400 3.034100 -0.285000 -0.215186 -0.720847 -0.658803
6.079600 1.180500 11.409300 -0.345317 -0.346843 0.872005
6.115400 0.731400 11.148900 -0.266335 -0.728080 0.631581
10.086600 3.919000 0.834300 0.206122 0.974944 0.083499
10.093700 3.903600 0.392700 0.481552 0.835688 -0.263985
9.965900 3.967400 0.362300 -0.025544 0.964721 -0.261971
6.125600 0.949300 11.320800 -0.324809 -0.504044 0.800256
5.549400 1.000300 10.551700 -0.873135 -0.438612 -0.212653
9.035300 3.122400 0.805300 -0.163396 -0.962188 -0.217841
9.682000 3.760800 0.236600 -0.436537 0.855159 -0.279458
7.768800 2.319400 5.616400 -0.565386 -0.752831 -0.336985
8.042300 2.146100 5.646300 0.196631 -0.961638 -0.191168
6.696200 0.701200 11.103300 0.529252 -0.129917 -0.838435
5.881000 2.042599 10.172200 -0.657826 0.672292 -0.339457
6.772000 2.095799 8.521900 -0.806085 0.516526 -0.288736
6.442000 0.589900 10.131600 -0.010681 -0.903409 -0.428571
6.672400 0.991300 9.673500 0.001953 -0.864803 -0.502060
6.978500 0.870800 10.498000 0.585498 -0.802576 -0.114078
8.576000 3.671400 1.071700 -0.638142 0.755882 0.146123
7.012100 1.518200 11.369200 0.423475 0.287484 0.859035
7.417000 1.228099 11.040100 0.813593 -0.434828 0.385968
9.632900 3.732400 0.359400 -0.245430 0.965789 -0.083346
9.852200 3.920100 0.750400 -0.277261 0.960326 0.029328
6.773200 1.727300 8.441100 -0.881863 -0.181616 -0.435072
6.859300 1.579100 8.417900 -0.663869 -0.617603 -0.421644
10.490900 3.062200 0.030600 0.604877 -0.397443 -0.690023
10.317800 3.506000 0.009800 0.242439 0.564592 -0.788903
10.172100 3.572100 0.026000 0.462386 0.480941 -0.744865
10.369400 3.795300 0.493900 0.572039 0.804010 -0.162084
8.479300 3.715200 0.739100 -0.728263 0.627735 0.274819
10.300700 2.743300 0.423300 0.145848 -0.988250 0.044954
10.506300 2.880300 0.471900 0.770531 -0.591021 0.238624
10.293700 3.823300 0.981700 0.580279 0.796625 0.169195
10.218600 3.750600 1.379300 0.603626 0.708304 0.365886
8.035000 3.075300 5.772800 -0.081942 0.976226 0.200568
9.920400 3.719600 1.819700 0.483932 0.757927 0.437361
6.563300 2.229300 10.659600 0.164708 0.986023 -0.024384
6.423100 2.309200 10.999100 0.047731 0.928037 0.369335
6.005500 2.271100 10.850700 -0.406232 0.879910 0.246315
9.920100 3.601100 1.880600 0.830439 -0.311319 0.461928
10.274100 3.631400 1.395400 0.811731 -0.196326 0.549974
10.048700 3.675700 -0.067800 0.331278 0.533067 -0.778497
9.767500 3.534700 -0.121700 -0.026978 0.551897 -0.833430
9.034700 3.413900 3.411200 0.827540 0.335185 0.450301
8.531700 3.441200 1.014200 -0.922788 -0.374950 0.088412
8.502300 3.500200 1.440800 -0.994018 -0.065584 -0.087008
8.755400 3.241400 0.834600 -0.508866 -0.856899 0.082095
6.937600 1.339599 11.438200 0.369213 -0.027223 0.928922
7.686300 1.888600 8.675100 0.980865 -0.116276 0.156072
8.395800 3.817900 -0.081100 -0.342631 0.842555 -0.415509
9.976100 3.878900 1.188400 0.047304 0.982208 0.181585
7.503000 1.544899 9.905700 0.980956 -0.193884 0.010407
6.159400 0.801900 10.167800 -0.505875 -0.673269 -0.539201
3 0 1 2
3 2 3 0
3 4 5 6
3 7 8 9
3 10 11 12
3 12 13 10
3 14 15 16
3 17 18 19
3 20 21 22
3 22 23 20
3 24 25 26
3 27 24 26
3 13 28 29
3 20 12 21
3 22 30 31
3 32 33 34
3 35 36 37
3 38 39 40
3 41 42 43
3 41 43 44
3 45 46 47
3 48 7 49
3 50 51 52
3 52 53 50
3 54 55 33
3 56 57 58
3 59 56 60
3 26 18 61
3 61 27 26
3 43 62 63
3 64 48 3
3 65 64 3
3 49 7 66
3 67 68 69
3 69 70 67
3 71 72 73
3 74 75 76
3 77 78 79
3 80 22 21
3 21 81 80
3 82 24 27
3 71 83 17
3 84 85 86
3 61 18 87
3 88 17 19
3 13 62 89
3 31 8 90
3 34 79 32
3 91 41 44
3 44 92 91
3 71 93 72
3 37 94 95
3 75 74 91
3 77 79 34
3 54 10 89
3 96 97 98
3 60 56 58
3 48 49 99
3 100 60 58
3 101 93 98
3 59 101 98
3 32 78 81
3 102 64 103
3 95 69 68
3 68 104 95
3 37 104 105
3 52 51 80
3 43 63 5
3 47 46 106
3 107 108 109
3 55 110 34
3 13 111 28
3 87 25 24
3 102 103 86
3 86 90 102
3 19 94 37
3 14 28 111
3 111 112 14
3 16 113 114
3 102 90 8
3 40 115 69
3 69 95 40
3 2 1 116
3 116 65 2
3 39 117 57
3 68 105 104
3 53 52 77
3 80 51 30
3 29 28 16
3 26 118 119
3 116 120 121
3 121 114 116
3 122 23 22
3 37 36 88
3 16 28 14
3 22 31 123
3 47 23 108
3 108 107 47
3 94 38 40
3 40 95 94
3 124 5 120
3 74 105 91
3 90 86 122
3 122 123 90
3 99 125 126
3 126 0 99
3 17 87 18
3 122 22 123
3 127 42 125
3 127 125 55
3 54 127 55
3 128 73 72
3 16 121 29
3 11 81 21
3 21 12 11
3 102 8 7
3 39 129 4
3 97 35 105
3 105 74 97
3 1 124 116
3 115 1 70
3 70 69 115
3 66 7 130
3 66 130 34
3 121 16 114
3 89 43 42
3 89 42 127
3 37 88 19
3 31 30 9
3 9 8 31
3 87 24 82
3 73 25 87
3 55 34 33
3 50 9 30
3 3 2 65
3 44 43 5
3 0 126 67
3 105 35 37
3 39 6 40
3 102 7 64
3 116 131 65
3 15 46 45
3 94 19 119
3 94 119 38
3 110 99 49
3 66 110 49
3 26 100 58
3 26 25 100
3 26 58 118
3 97 76 98
3 3 48 0
3 123 31 90
3 122 108 23
3 132 75 129
3 52 80 81
3 6 124 115
3 106 23 47
3 103 131 84
3 110 55 125
3 125 99 110
3 25 73 128
3 119 118 117
3 86 103 84
3 100 128 101
3 100 101 60
3 27 61 82
3 54 11 10
3 78 32 79
3 57 56 132
3 52 81 78
3 67 126 42
3 67 42 41
3 50 53 7
3 54 32 11
3 93 96 98
3 25 128 100
3 60 101 59
3 117 38 119
3 33 32 54
3 111 20 106
3 103 64 131
3 106 20 23
3 124 1 115
3 71 73 83
3 132 76 75
3 47 107 45
3 122 86 85
3 108 122 85
3 106 112 111
3 29 62 13
3 87 82 61
3 131 114 113
3 113 84 131
3 18 119 19
3 15 14 46
3 116 114 131
3 109 113 16
3 16 15 109
3 6 115 40
3 1 0 70
3 70 0 67
3 5 124 6
3 7 53 130
3 15 45 109
3 89 62 43
3 83 73 87
3 59 98 76
3 132 59 76
3 96 93 71
3 87 17 83
3 20 111 12
3 22 80 30
3 52 78 77
3 5 4 92
3 92 44 5
3 38 117 39
3 96 71 133
3 6 39 4
3 48 64 7
3 50 7 9
3 93 101 72
3 101 128 72
3 84 113 109
3 109 85 84
3 133 35 97
3 97 96 133
3 62 29 63
3 112 106 46
3 112 46 14
3 131 64 65
3 91 68 67
3 41 91 67
3 120 116 124
3 97 74 76
3 34 110 66
3 30 51 50
3 29 121 120
3 29 120 63
3 71 17 88
3 126 125 42
3 35 133 36
3 119 18 26
3 13 89 10
3 45 107 109
3 77 130 53
3 68 91 105
3 120 5 63
3 95 104 37
3 75 91 92
3 34 130 77
3 54 89 127
3 59 132 56
3 133 71 88
3 133 88 36
3 99 0 48
3 117 118 58
3 58 57 117
3 13 12 111
3 32 81 11
3 108 85 109
3 129 75 92
3 92 4 129
3 39 57 132
3 132 129 39
