ply
format ascii 1.0
comment Created by Blender 2.92.0 - www.blender.org
element vertex 392
property float x
property float y
property float z
property float nx
property float ny
property float nz
element face 744
property list uchar uint vertex_indices
end_header
-4.460800 3.407102 -42.301800 -0.793298 0.023835 -0.608325
-3.953600 5.002302 -42.889900 -0.511887 0.390942 -0.764916
-2.700200 2.600502 -42.297401 0.700217 -0.441633 -0.560900
-3.712600 -2.642198 -42.015701 0.619434 -0.197028 0.759911
-3.737300 -2.044698 -42.238499 0.694266 0.245308 -0.676595
-3.799700 -2.484098 -42.059502 0.135502 0.075808 0.987854
-4.560100 -4.917898 -42.867500 -0.637806 0.433485 -0.636586
-4.595300 -5.234098 -42.937302 -0.642506 -0.255562 -0.722373
-4.572000 -5.002598 -42.698700 -0.687277 -0.129429 0.714743
-4.530800 -4.853298 -42.682301 -0.593890 0.096652 0.798700
-4.526500 -4.822398 -42.788200 -0.731407 0.243629 -0.636921
-4.296400 -2.500498 -42.088501 0.739891 -0.321024 0.591174
-4.376300 -2.315698 -42.549301 0.509354 0.068453 -0.857814
-4.338500 -1.904798 -42.292599 0.664022 0.265816 -0.698843
-4.743500 -3.882598 -42.813202 0.551500 0.010224 -0.834071
-5.104500 -3.938498 -42.765999 -0.803156 0.198584 -0.561663
-5.051300 -3.826598 -42.717999 -0.792932 0.070986 -0.605121
-4.848100 -3.386298 -42.422798 -0.530961 -0.029511 0.846858
-4.654800 -3.647598 -42.466499 0.716514 -0.294351 0.632405
-4.588200 -3.304498 -42.448002 0.792047 -0.383892 0.474593
-3.817800 3.805302 -40.572899 -0.509201 0.617328 -0.599628
-3.817000 3.835502 -39.658699 -0.466384 0.581408 0.666646
-3.499000 4.376902 -40.089802 -0.414350 0.819300 0.396252
-3.502100 4.342402 -40.567402 -0.505661 0.548631 -0.665792
-3.077000 0.009002 -42.192299 -0.615650 -0.310556 -0.724204
-2.397700 1.073402 -41.932598 0.280129 0.829371 -0.483352
-2.259300 0.829902 -41.980801 0.766961 0.278512 -0.578051
-2.374300 -0.121898 -42.191002 0.499680 -0.515091 -0.696371
-2.882100 -4.258398 -42.548500 0.867183 -0.122379 -0.482681
-2.904100 -4.350298 -42.586899 0.828120 0.080782 -0.554643
-3.356600 -4.181998 -42.659302 -0.182684 0.196051 -0.963408
-4.983300 -2.229098 -42.609299 0.826716 0.267861 -0.494736
-4.914500 -2.310698 -42.727901 0.778375 0.262886 -0.570086
-5.421900 -2.308998 -42.771599 -0.559496 0.404675 -0.723289
-5.355600 -0.036698 -42.464600 -0.673635 0.182958 -0.716025
-5.383400 0.863702 -42.483898 -0.682485 0.323038 -0.655599
-4.616100 0.255702 -42.477001 0.778375 -0.093448 -0.620777
-4.873700 -0.130498 -42.458801 0.665548 -0.273446 -0.694418
-6.284900 -3.293098 -42.740200 -0.798151 -0.437452 0.414167
-6.305100 -3.188998 -42.664200 -0.831751 -0.287790 0.474685
-6.305000 -3.145898 -42.765202 -0.557298 0.464003 -0.688528
-6.283600 -3.260598 -42.819099 -0.561388 0.396496 -0.726341
-4.403000 0.740802 -42.296398 -0.321574 0.687246 -0.651326
-4.755200 -0.005198 -42.071899 -0.779900 0.205054 -0.591327
-4.646800 0.331902 -41.725201 -0.795282 0.129978 0.592090
-4.455900 0.673002 -41.581402 -0.391583 0.624195 0.676015
-3.489600 -4.298298 -42.276299 -0.638508 -0.250893 0.727561
-3.596900 -4.364298 -42.337002 -0.880520 0.173467 0.441084
-2.982200 -4.655498 -42.235600 0.538408 -0.426405 0.726798
-3.003000 -4.466998 -42.177399 0.459639 -0.314676 0.830470
-6.101900 -3.276698 -42.635601 0.712577 -0.422071 0.560411
-6.145700 -3.347498 -42.718601 0.498276 -0.655507 0.567461
-5.528300 -4.187998 -42.719898 0.568957 -0.394513 0.721519
-5.786500 -4.097498 -42.720600 -0.755242 0.049776 0.653523
-5.782400 -4.370998 -42.863602 -0.678732 -0.685080 0.264443
-5.620700 -4.388498 -42.856400 0.352763 -0.873775 0.334666
-3.582300 0.201602 -40.906898 -0.045991 -0.770714 0.635487
-3.165500 -0.001498 -40.934700 -0.441054 -0.531266 0.723319
-2.973500 0.767002 -40.759998 0.134861 0.410535 0.901791
-3.374700 0.879902 -40.751202 0.275826 0.333476 0.901486
-4.505200 2.158702 -41.297798 -0.601123 -0.653981 0.459243
-4.470200 3.383902 -41.035198 -0.725333 0.059145 0.685812
-4.477800 2.302002 -42.316799 -0.582568 -0.519852 -0.624744
-5.942500 -1.786698 -42.847099 -0.675314 0.000610 -0.737510
-5.979700 -1.507398 -42.987900 -0.610004 0.311777 -0.728446
-5.441600 -1.780998 -42.946301 0.641469 -0.242866 -0.727653
-5.546000 -1.963398 -42.842899 0.680960 -0.295419 -0.670034
-5.523800 -2.944698 -42.525101 -0.633290 0.087558 0.768914
-5.488800 -2.850298 -42.764301 -0.625904 0.209967 -0.751061
-5.760700 -3.278898 -42.714298 -0.861599 -0.002136 -0.507553
-5.753800 -3.310098 -42.535999 -0.750694 -0.141057 0.645375
-2.905000 -4.539098 -42.618500 0.873714 -0.059633 -0.482742
-2.396800 0.812402 -40.875702 0.479568 0.567705 0.669088
-2.928500 1.026402 -41.569801 -0.094119 0.943968 -0.316263
-3.732300 5.462902 -42.291000 -0.330058 0.920194 -0.210334
-3.936700 5.139102 -41.155300 -0.575732 0.486007 0.657491
-5.081000 -3.793598 -42.520401 -0.746635 -0.202734 0.633534
-4.705900 -3.947298 -42.612301 0.820429 -0.384045 0.423505
-4.859600 -4.395098 -42.805500 0.530717 -0.101962 -0.841365
-4.829700 -4.433898 -42.664600 0.787072 -0.361278 0.499954
-4.888100 -4.514698 -42.700001 0.736412 -0.432203 0.520402
-4.908400 -4.483898 -42.800598 0.596728 0.124393 -0.792718
-4.023900 -0.539198 -41.753101 0.412275 0.059420 -0.909085
-3.763100 -0.248498 -41.420300 0.809229 -0.451766 0.375500
-4.376100 -2.317898 -42.102798 0.488662 0.110874 0.865352
-4.306400 -4.886898 -42.692799 0.570879 -0.299356 0.764489
-4.297500 -5.033698 -42.704800 0.678610 -0.352062 0.644581
-4.285200 -4.946298 -42.878502 0.723685 0.210761 -0.657125
-4.302100 -4.855998 -42.799999 0.707450 0.538102 -0.458144
-3.811900 -3.054298 -42.656502 0.682974 0.103519 -0.723045
-4.267400 -2.825098 -42.611599 -0.548112 0.620563 -0.560717
-4.172800 -2.791898 -42.484600 -0.634175 0.623768 -0.456801
-3.552400 1.369902 -41.529900 -0.017670 0.972594 -0.231697
-3.329600 1.139302 -41.561001 0.507706 0.700674 -0.501236
-4.090400 0.611002 -42.101501 -0.480880 0.599536 -0.639729
-3.269100 -0.215098 -41.271500 0.762200 -0.367534 0.532853
-4.232700 -4.579498 -42.735901 0.604999 -0.134007 -0.784845
-4.146900 -4.363598 -42.736801 0.677236 0.008576 -0.735679
-4.156300 -4.429998 -42.507000 0.671407 -0.293924 0.680258
-4.234200 -4.590798 -42.564800 0.548296 -0.477218 0.686728
-4.190500 -2.917498 -42.271500 -0.551408 0.408307 0.727439
-4.294100 -3.015898 -42.187801 -0.629322 0.241859 0.738517
-3.833800 -3.000998 -42.280201 0.783685 -0.186651 0.592395
-4.794500 -2.537498 -42.420200 -0.847377 0.376629 -0.374248
-4.776400 -2.115298 -42.410599 -0.779656 0.439283 -0.446181
-4.440800 -2.582298 -42.502300 0.670888 0.393628 -0.628407
-3.832900 0.121002 -41.870499 0.401044 -0.147893 -0.904019
-3.789500 0.455102 -41.892799 0.490677 0.537278 -0.685965
-3.648400 0.284402 -41.205898 0.776818 0.315531 0.544908
-3.715600 -0.032298 -41.290001 0.735038 -0.412336 0.538163
-2.557800 4.605602 -41.092701 0.764275 0.179083 0.619495
-2.829700 3.848602 -40.874901 0.545030 0.054689 0.836604
-2.845800 3.695702 -42.744598 0.608570 0.135838 0.781762
-2.574300 4.452402 -42.885899 0.692557 0.003021 -0.721335
-2.893000 1.560502 -41.824100 -0.278329 0.357707 -0.891385
-2.330200 1.040402 -41.700802 0.354228 -0.733421 -0.580126
-2.918700 1.024302 -41.638000 -0.099734 -0.845790 -0.524064
-3.306100 -3.060498 -42.806801 -0.512192 0.272408 -0.814478
-3.283800 -3.410898 -42.762501 -0.482040 -0.152409 -0.862758
-3.466200 -3.262998 -42.157101 -0.809534 0.022279 0.586627
-3.396300 -3.161598 -42.177502 -0.750542 0.263649 0.605884
-3.255600 -2.970098 -42.756699 -0.518052 0.227027 -0.824641
-4.320500 0.082502 -41.738800 0.465102 -0.531938 0.707572
-4.125900 0.336002 -42.229500 0.625721 -0.419538 -0.657582
-4.173700 0.270402 -41.624500 0.522599 -0.507675 0.684896
-5.642500 -3.709698 -42.771400 -0.621876 0.110996 -0.775170
-5.751200 -3.950098 -42.771500 -0.876461 -0.210669 -0.432875
-5.735900 -3.899098 -42.688099 -0.789453 -0.029359 0.613086
-5.645400 -3.698198 -42.602798 -0.618000 -0.225867 0.753014
-5.944100 -2.778398 -42.688801 0.479965 -0.430860 -0.764153
-5.635600 -2.290398 -42.877499 0.554704 -0.404157 -0.727256
-5.638400 -2.291398 -42.656700 0.679128 -0.532823 0.504807
-5.889400 -2.778998 -42.598999 0.775414 -0.374493 0.508347
-3.673900 2.947002 -40.945301 -0.408185 -0.100375 -0.907346
-2.560300 3.108102 -40.925701 0.473525 0.421155 -0.773522
-2.302800 2.907502 -40.938000 0.818262 0.313791 -0.481613
-4.032800 0.644502 -42.280499 0.721641 0.392743 -0.570025
-4.085700 0.576802 -41.565399 0.656758 0.326273 0.679800
-2.670900 -3.305198 -42.070099 0.631428 -0.000061 0.775414
-2.741400 -3.252998 -42.067699 0.288675 -0.179357 0.940458
-5.994700 -1.955898 -42.580299 -0.548753 0.296426 0.781640
-5.583700 -2.185598 -42.527199 0.490005 -0.325419 0.808679
-2.657400 2.891502 -39.515301 0.497696 -0.133580 0.856990
-3.804700 2.090302 -40.106998 -0.737480 -0.542955 0.401593
-2.578400 2.143702 -40.099800 0.530320 -0.791498 0.303720
-2.380000 2.517902 -39.886501 0.847682 -0.243355 0.471358
-5.311700 -3.488698 -42.579700 0.707907 -0.255135 0.658589
-5.292400 -3.166598 -42.599899 0.785333 -0.127445 0.605762
-2.275800 0.568902 -40.923901 0.786065 -0.000519 0.618091
-3.597500 1.110402 -40.709801 -0.095584 0.650502 0.753441
-6.219600 -2.817298 -42.603401 -0.714499 0.348827 0.606433
-6.026700 -3.149698 -42.531898 0.567949 -0.663472 0.486984
-6.102200 -3.090198 -42.661701 0.411145 -0.480392 -0.774682
-5.428600 -3.957198 -42.842602 0.674795 -0.153264 -0.721885
-4.842200 -1.565998 -42.464699 0.827235 0.069643 -0.557451
-4.873200 -1.989698 -42.670300 0.704459 -0.115116 -0.700308
-5.264800 -1.749298 -42.663898 -0.573290 0.441054 -0.690481
-5.037900 -1.416398 -42.456501 -0.510666 0.437513 -0.740104
-2.767200 -3.941298 -42.534000 0.844447 -0.293924 -0.447737
-2.647500 -3.452698 -42.584099 0.795343 -0.250679 -0.551836
-2.780000 -3.534298 -42.134300 0.468978 -0.315989 0.824732
-2.928600 -4.057598 -42.186199 0.508255 -0.135197 0.850490
-2.911300 5.294702 -42.287701 0.541459 0.800165 -0.257881
-3.759800 5.303602 -41.271500 -0.177892 0.866085 0.467116
-2.938800 5.145302 -41.268501 0.423780 0.733696 0.531053
-4.018300 0.342302 -41.116699 -0.261574 0.483444 0.835353
-4.159400 0.513002 -41.803501 -0.550401 0.700308 -0.454482
-4.826100 -2.878198 -42.227001 -0.552843 -0.129368 0.823176
-4.765100 -2.656998 -42.209099 -0.612568 -0.114139 0.782098
-4.895400 -2.693498 -42.564701 -0.778314 0.395245 -0.487838
-4.879400 -3.251698 -42.654099 -0.744621 0.155644 -0.649037
-4.476500 -4.230198 -42.481300 -0.728874 -0.051790 0.682669
-4.069700 -4.229498 -42.469299 0.650838 -0.441847 0.617359
-4.058900 -3.736598 -42.405800 0.613849 -0.304605 0.728263
-4.422200 -4.510898 -42.714699 -0.639576 0.187262 -0.745537
-4.489200 -4.160298 -42.676399 -0.817377 0.134190 -0.560198
-3.704200 0.080802 -41.769798 -0.688742 0.035920 -0.724082
-3.728900 -0.628398 -41.697102 -0.587298 0.224891 -0.777459
-3.787800 -0.286098 -41.312901 -0.803552 -0.170629 0.570208
-3.838600 -3.244998 -42.232700 0.694449 -0.251137 0.674245
-3.816100 -2.875498 -42.493198 0.803461 0.095126 -0.587664
-4.430900 -5.268798 -42.941898 0.392956 -0.504349 -0.768883
-3.726100 -0.071698 -41.176899 -0.680258 -0.180303 0.710410
-3.281100 0.175602 -41.087898 0.601001 0.306681 0.738029
-3.658800 0.249802 -41.082001 -0.472457 0.512772 0.716788
-5.068900 -4.004398 -42.549000 -0.580126 -0.066805 0.811762
-5.070400 -4.167198 -42.772900 -0.729911 -0.055147 -0.681295
-5.043600 -3.873798 -42.571701 -0.662099 -0.216803 0.717338
-5.029400 -4.180898 -42.610298 -0.486740 -0.130650 0.863704
-3.979500 3.095702 -40.945999 -0.551469 -0.213263 -0.806452
-3.120400 0.257902 -41.744400 -0.890316 -0.114414 -0.440687
-3.452200 -4.247598 -42.753899 -0.439131 0.529679 -0.725639
-5.480800 -2.423098 -42.331299 -0.707297 0.126408 0.695486
-5.376900 -2.230598 -42.402000 -0.783715 0.272103 0.558306
-4.624000 0.252802 -41.866100 0.689322 -0.114017 0.715384
-4.879700 -0.132698 -41.994301 0.482925 -0.502548 0.717063
-6.116200 -3.525198 -42.878399 0.500412 -0.833430 0.234291
-6.278800 -3.465598 -42.892200 -0.743065 -0.657582 0.124149
-6.111900 -3.499398 -42.947899 0.590197 -0.335551 -0.734184
-6.147800 -3.314998 -42.794102 0.793908 0.364544 -0.486587
-3.410200 -2.640698 -42.033100 -0.871395 0.066225 0.486068
-4.910900 1.055102 -42.038200 0.559130 0.610096 0.561357
-5.389700 0.861302 -41.996399 -0.723472 0.328471 0.607135
-5.361000 -0.038698 -42.049301 -0.719260 -0.068514 0.691336
-5.688100 -3.396998 -42.584202 -0.697623 -0.400952 0.593738
-2.071700 1.859902 -41.406700 0.704489 0.580432 0.408338
-2.464600 1.977002 -41.408199 -0.110324 0.933561 0.340983
-2.276600 1.084302 -40.996498 0.620930 -0.547960 0.560503
-3.511900 2.287302 -42.311501 0.133549 -0.681082 -0.719901
-6.176900 -3.122798 -42.657398 0.606677 -0.056215 -0.792932
-6.293100 -3.089898 -42.717300 -0.563952 0.085086 -0.821406
-6.315300 -2.988798 -42.745701 -0.619068 0.116794 -0.776574
-5.338000 -2.147598 -42.626301 -0.670034 0.408765 -0.619617
-3.564000 -4.223198 -42.273399 -0.915525 -0.113254 0.385907
-3.425400 -4.106498 -42.690201 -0.612720 -0.017579 -0.790094
-3.412700 -4.018198 -42.283798 -0.726524 0.303903 0.616230
-3.537200 0.461002 -41.716702 0.456191 -0.418500 -0.785302
-4.125900 3.496702 -40.739498 -0.744560 0.374950 -0.552263
-4.165800 3.281402 -39.521400 -0.714316 0.018830 0.699545
-5.086900 -3.728998 -42.722401 -0.801447 0.170385 -0.573229
-4.546400 -4.755498 -42.699200 -0.856166 -0.005463 0.516617
-4.246800 -4.818698 -42.662498 0.639637 -0.467391 0.610218
-4.253700 -4.865898 -42.747002 0.148534 -0.865841 -0.477737
-5.121800 -4.430998 -42.763302 -0.385601 0.901334 -0.197211
-5.154600 -4.422998 -42.701401 -0.931486 -0.260994 -0.253304
-4.046500 -2.537698 -42.084301 -0.257790 0.231483 0.938047
-3.984000 -2.098298 -42.263401 -0.681478 0.481246 -0.551317
-4.178200 -2.693298 -42.048801 -0.655660 -0.138707 0.742180
-4.141500 -4.241398 -42.674801 0.561632 -0.157842 -0.812159
-4.273300 -3.563698 -42.366600 -0.713858 -0.156438 0.682577
-4.364200 -3.920798 -42.513802 -0.806024 0.265816 0.528794
-4.411400 -2.701798 -42.291199 0.767846 -0.159581 0.620411
-2.505300 -2.840298 -42.698200 0.754936 -0.132817 -0.642140
-2.612300 -3.059998 -42.545898 0.857143 0.060060 -0.511521
-2.054400 1.372902 -41.244598 0.912778 -0.119755 0.390423
-2.097600 1.327102 -41.670300 0.765343 -0.290323 -0.574358
-2.078500 1.861802 -41.694000 0.710654 0.463759 -0.529008
-2.536900 -3.112298 -42.547901 0.881405 0.355724 -0.310678
-4.932500 -2.100198 -42.185799 0.522843 -0.336650 0.783105
-5.022200 -2.312098 -42.384899 0.637837 0.237312 0.732658
-5.773300 -4.355498 -42.930401 -0.564379 -0.430006 -0.704642
-5.759500 -4.043498 -42.901901 -0.563891 0.472518 -0.677267
-5.502100 -4.136098 -42.900600 0.745659 0.031495 -0.665548
-5.611500 -4.375998 -42.923302 0.450911 -0.625080 -0.637135
-6.124500 -3.233498 -42.728901 0.819666 0.333934 -0.465407
-5.324100 -1.859798 -42.179298 -0.624409 0.287362 0.726279
-4.980900 -1.924098 -42.242001 0.344340 0.203955 0.916410
-5.176600 -1.774498 -42.233799 -0.432508 0.431318 0.791742
-4.521600 0.733202 -41.746799 -0.371441 -0.876949 0.304880
-4.239000 1.765502 -41.240601 -0.084109 0.406842 0.909604
-4.597800 1.831302 -41.239300 -0.419691 0.488540 0.764946
-5.699900 -3.517598 -42.570801 -0.714682 -0.075137 0.695364
-4.072600 0.669902 -41.741901 0.209143 -0.934080 0.289346
-3.539400 2.144002 -41.292500 0.108127 -0.866421 0.487442
-5.542400 -2.089798 -42.866100 0.775658 -0.076418 -0.626484
-6.024000 -1.860298 -42.879700 -0.661275 0.440077 -0.607440
-5.291800 -3.457498 -42.794300 0.705741 -0.201819 -0.679098
-5.701000 -3.487898 -42.779701 -0.711966 0.102634 -0.694632
-5.682900 -3.374298 -42.720299 -0.693197 -0.066012 -0.717704
-4.429000 -0.254598 -42.085499 0.730979 -0.218207 -0.646535
-3.316700 -2.546998 -41.974701 -0.704825 0.045137 0.707907
-3.170000 -2.192498 -42.441502 -0.550584 0.528062 -0.646504
-2.465300 1.979602 -41.786800 -0.118625 0.749962 -0.650716
-2.424600 3.791702 -40.565201 0.851955 0.201209 -0.483352
-5.186400 -4.502698 -42.836700 -0.725669 0.427503 -0.539048
-5.161700 -4.586998 -42.669998 -0.603351 -0.010743 0.797388
-5.101500 -4.461698 -42.662498 -0.430738 -0.308939 0.847926
-4.038900 -3.595098 -42.639099 0.642109 -0.073611 -0.763024
-4.355100 -3.855398 -42.725399 -0.578906 0.235542 -0.780602
-4.253300 -3.422198 -42.599899 -0.725242 0.113224 -0.679098
-3.285100 1.102902 -41.639500 -0.603992 -0.608570 -0.514573
-3.361200 1.511702 -41.954201 -0.115848 0.195776 -0.973754
-3.298600 1.708202 -41.533901 -0.460433 0.824641 -0.328532
-5.489300 -4.036498 -42.829899 0.733238 -0.076357 -0.675619
-5.703900 -3.969298 -42.827801 -0.242317 0.891690 -0.382244
-4.151200 -2.500498 -42.516998 -0.647114 0.288461 -0.705679
-3.685600 -2.449398 -42.483898 0.718436 0.162755 -0.676260
-4.435000 -5.298498 -42.878201 0.335307 -0.922147 0.192724
-4.599400 -5.263798 -42.874001 -0.698813 -0.679495 0.223334
-4.832400 -4.190498 -42.636299 0.759270 -0.275796 0.589404
-4.873400 -4.176898 -42.794899 0.446669 -0.142003 -0.883328
-3.208200 4.501802 -40.373402 0.068789 0.993408 0.091494
-2.651500 4.180002 -40.086300 0.599200 0.728599 0.331736
-2.645300 4.146802 -40.563999 0.525132 0.524583 -0.670064
-3.212900 4.465902 -40.564899 0.038789 0.726585 -0.685965
-2.520600 -1.754398 -42.164902 0.851070 -0.005310 -0.525010
-2.646900 -1.664998 -41.477600 0.493789 -0.380474 0.781884
-2.653200 -2.589398 -41.814602 0.534837 -0.201300 0.820582
-2.518100 -2.234598 -42.272598 0.902890 0.216163 -0.371532
-3.112200 -4.926098 -42.445099 0.464400 -0.506882 0.726188
-3.057800 -4.982598 -42.754200 0.800897 -0.129612 -0.584582
-3.196300 -5.298398 -42.545898 0.308267 -0.856166 0.414655
-5.273100 -3.135398 -42.816299 0.619770 -0.080325 -0.780633
-5.193800 -2.796598 -42.752998 0.665548 -0.229102 -0.710288
-5.237700 -2.890998 -42.506901 0.582995 -0.470107 0.662618
-5.440700 -1.604498 -42.502998 0.717887 -0.186407 0.670675
-5.522000 -1.970998 -42.407501 0.415418 -0.583636 0.697684
-5.412100 -1.540898 -42.837200 0.790735 0.043519 -0.610553
-6.272700 -3.439798 -42.961700 -0.489822 -0.055940 -0.869991
-5.098700 1.132502 -42.421101 -0.126835 0.830653 -0.542100
-5.103600 1.130702 -42.040298 -0.143223 0.818720 0.555986
-4.137700 0.348902 -40.896702 -0.695151 0.163305 0.700034
-4.181300 0.200002 -40.930801 -0.704337 -0.562639 0.432752
-3.720900 0.145802 -40.924500 0.104129 -0.876400 0.470168
-5.446200 -3.721298 -42.598400 0.530625 -0.350597 0.771661
-3.282700 1.145102 -40.673801 -0.593249 -0.476211 0.649037
-2.916000 1.066502 -40.672199 0.101047 -0.681021 0.725211
-2.890400 1.601302 -40.668499 0.180944 0.578326 0.795465
-3.370500 1.801002 -40.392700 -0.093844 -0.994018 0.055635
-3.737900 2.479502 -41.111599 -0.688620 -0.079409 -0.720725
-3.317600 2.112702 -41.091999 -0.057680 -0.674795 -0.735710
-6.060100 -1.696398 -42.413101 -0.760826 -0.026765 0.648366
-5.782600 -1.396298 -42.506302 -0.606342 0.358745 0.709647
-5.753900 -1.332698 -42.840599 -0.395245 0.618000 -0.679556
-3.300000 -3.901898 -42.661301 -0.467879 0.069247 -0.881039
-4.478200 0.984002 -42.484798 -0.286386 -0.540788 -0.790887
-4.193500 2.018802 -42.348598 0.050935 0.785730 -0.616413
-3.544100 1.397202 -42.393101 0.459243 -0.480026 -0.747398
-4.847300 1.359802 -42.482399 -0.733940 -0.029603 -0.678518
-4.029200 0.920702 -42.479900 0.271645 -0.583605 -0.765221
-3.425000 -0.526298 -41.655499 0.675100 -0.051180 -0.735893
-4.126900 -4.293598 -42.520302 0.687460 -0.547319 0.477248
-4.619600 -3.169898 -42.679298 0.467208 -0.116245 -0.876461
-4.396700 -2.642198 -42.645401 0.570757 0.448653 -0.687674
-4.327300 -2.826898 -42.307701 0.867061 -0.113468 0.485092
-4.202400 -0.010698 -41.262600 -0.685934 -0.110050 0.719260
-4.577900 -2.188198 -42.043098 -0.328929 0.170751 0.928770
-5.498600 -4.050098 -42.719002 0.579638 -0.405744 0.706656
-6.314100 -3.048398 -42.584499 -0.784173 -0.040925 0.619160
-2.511700 2.532902 -41.104401 0.539079 -0.280740 -0.794061
-4.906000 1.057002 -42.418999 0.585284 0.582202 -0.564318
-2.709600 2.577202 -41.030899 0.656667 -0.448256 0.606464
-5.969700 -1.849698 -42.627102 -0.929014 -0.246803 0.275643
-3.536400 -4.794498 -42.510101 -0.864254 -0.179937 0.469741
-3.587700 -5.232298 -42.625500 -0.732047 -0.651570 0.198798
-3.521900 -5.101798 -42.855400 -0.516068 -0.263100 -0.815119
-3.482500 -4.850998 -42.819199 -0.522446 0.184973 -0.832331
-3.130500 -5.167898 -42.775799 0.563891 -0.532304 -0.631367
-3.135000 -1.606198 -42.289902 -0.553850 0.106296 -0.825800
-4.540300 -1.775098 -42.213902 -0.728538 0.463363 -0.504471
-4.055500 -4.163998 -42.681099 0.718589 -0.264901 -0.642964
-5.123100 -4.380698 -42.618801 -0.593371 -0.061495 0.802545
-2.561100 3.822602 -39.729900 0.676199 0.323557 0.661855
-2.655300 -3.047598 -41.883801 0.460768 -0.455489 0.761681
-5.573200 -2.026398 -42.622799 0.822962 -0.359508 0.439833
-3.740900 2.557502 -39.893902 -0.555254 -0.517258 0.651234
-6.136100 -3.163298 -42.557701 0.103916 -0.717307 0.688925
-6.291300 -3.130198 -42.625999 -0.792657 -0.353038 0.496963
-2.987800 -4.375098 -42.141998 0.466811 -0.191046 0.863430
-4.046500 2.706202 -39.894501 -0.677480 -0.688375 0.259041
-6.184800 -2.814498 -42.690201 -0.471206 0.122562 -0.873440
-3.589300 1.144202 -41.341900 0.353404 -0.713950 0.604419
-4.695100 -3.584398 -42.674099 0.667379 0.033967 -0.743919
-4.541100 -4.715098 -42.792900 -0.655904 0.305612 -0.690176
-4.423600 -4.522198 -42.547901 -0.635090 -0.250679 0.730583
-4.696400 -2.300098 -42.003502 -0.503861 0.125095 0.854640
-3.233700 -2.499398 -42.814201 -0.448225 0.373638 -0.812037
-3.377500 1.347602 -41.260300 0.641774 -0.438643 0.629017
-3.331600 1.601402 -42.439701 0.671163 -0.142430 -0.727470
-3.340100 2.118602 -42.135899 0.590320 0.773766 -0.229713
-3.384900 1.866102 -41.156200 0.502731 0.460952 0.731254
-3.397600 -3.491898 -42.259800 -0.844234 -0.230232 0.483963
-4.973300 -2.424798 -42.287498 0.648762 -0.017396 0.760765
-4.904800 -4.660598 -42.722301 0.801324 -0.325236 0.502060
-5.170900 -4.863798 -42.747398 -0.558763 -0.689932 0.460158
-5.010300 -4.893898 -42.781502 0.427412 -0.872158 0.237983
-3.634500 0.419202 -41.784000 -0.434156 0.738670 -0.515580
-3.673600 0.407902 -42.129299 0.592639 -0.185583 -0.783746
-4.134000 0.462002 -42.135601 -0.660634 -0.321085 -0.678518
-5.713300 -3.982898 -42.717499 -0.588061 -0.177160 0.789148
-4.892000 1.107402 -41.502701 -0.733757 -0.356670 0.578234
-5.443300 -3.732698 -42.768200 0.698965 -0.064882 -0.712180
-3.118300 -0.463198 -42.309601 -0.552110 0.398114 -0.732566
-2.360500 -0.806098 -42.140202 0.830592 -0.053255 -0.554308
-5.180100 -4.835098 -42.810799 -0.745445 -0.408551 -0.526627
-4.929500 -4.578698 -42.887199 0.529954 0.112400 -0.840510
-5.019600 -4.865098 -42.844799 0.287118 -0.590838 -0.753929
-3.256900 0.345002 -41.789902 0.645619 0.518632 -0.560472
-3.295300 1.747502 -40.867001 -0.472884 0.807184 0.353221
-3.360300 1.403302 -40.907101 -0.986480 -0.006378 0.163610
-4.257200 -0.344498 -41.648399 -0.845119 0.158208 -0.510575
-3.269000 -1.589798 -41.617199 -0.830622 -0.255043 0.494949
-4.552300 2.084702 -42.347301 -0.371563 0.811640 -0.450697
-5.440300 -3.971998 -42.686298 0.674001 -0.402539 0.619404
-3.036200 -0.537698 -41.099998 -0.362102 0.510269 0.780023
-3.378800 -0.877898 -41.313099 -0.860378 0.038362 0.508194
-2.583500 -1.219498 -41.266899 0.529984 -0.390088 0.752922
-2.554900 -0.698598 -41.030800 0.492782 0.170263 0.853328
-2.796900 -0.122398 -42.159401 -0.076876 0.904843 -0.418714
-3.115600 -0.253098 -40.987499 -0.542711 -0.674764 0.500137
-2.357200 -0.382998 -41.134201 0.528886 -0.768883 0.359233
-2.336500 -0.283298 -42.090199 0.745842 0.570330 -0.344096
3 0 1 2
3 3 4 5
3 6 7 8
3 6 8 9
3 9 10 6
3 11 12 13
3 14 15 16
3 17 18 19
3 20 21 22
3 22 23 20
3 24 25 26
3 26 27 24
3 28 29 30
3 31 32 33
3 34 35 36
3 36 37 34
3 38 39 40
3 40 41 38
3 42 43 44
3 45 42 44
3 46 47 48
3 46 48 49
3 50 39 38
3 38 51 50
3 52 53 54
3 54 55 52
3 56 57 58
3 56 58 59
3 60 61 0
3 0 62 60
3 63 64 65
3 65 66 63
3 67 68 69
3 67 69 70
3 71 29 49
3 48 71 49
3 72 25 73
3 72 73 58
3 74 1 75
3 76 77 18
3 78 79 80
3 80 81 78
3 82 83 84
3 84 13 82
3 85 86 87
3 87 88 85
3 89 90 91
3 92 93 94
3 95 5 4
3 96 97 98
3 99 96 98
3 100 101 102
3 103 104 12
3 12 105 103
3 106 107 108
3 109 106 108
3 110 111 112
3 112 113 110
3 114 115 116
3 117 118 119
3 117 119 120
3 120 121 117
3 122 123 124
3 125 126 127
3 128 125 127
3 129 130 131
3 132 129 131
3 133 134 135
3 123 136 137
3 124 123 137
3 119 138 139
3 140 131 141
3 142 143 144
3 144 145 142
3 67 146 147
3 148 72 58
3 93 92 149
3 59 93 149
3 132 150 151
3 132 151 152
3 152 129 132
3 153 126 125
3 154 155 156
3 154 156 157
3 158 159 160
3 161 158 160
3 59 58 73
3 73 93 59
3 162 74 163
3 164 162 163
3 165 108 107
3 107 166 165
3 167 168 169
3 167 169 170
3 167 170 17
3 171 172 173
3 174 175 97
3 97 96 174
3 176 177 178
3 113 112 2
3 102 179 89
3 89 180 102
3 6 87 181
3 181 7 6
3 182 95 183
3 184 182 183
3 185 15 186
3 185 187 15
3 185 186 188
3 76 187 77
3 133 189 134
3 24 190 73
3 30 191 47
3 46 30 47
3 192 193 33
3 192 33 68
3 192 68 67
3 36 194 195
3 195 37 36
3 196 197 198
3 196 198 199
3 196 199 51
3 137 136 42
3 137 42 45
3 200 120 139
3 194 201 202
3 194 202 203
3 203 195 194
3 45 124 137
3 70 204 146
3 205 206 207
3 0 2 208
3 62 0 208
3 209 210 211
3 203 202 35
3 35 34 203
3 212 156 155
3 155 31 212
3 213 214 30
3 213 215 214
3 213 30 46
3 56 216 190
3 56 190 57
3 217 218 21
3 187 185 77
3 76 219 16
3 76 16 187
3 220 85 221
3 88 222 221
3 100 91 90
3 81 223 224
3 225 226 227
3 228 97 175
3 229 230 173
3 17 170 219
3 17 219 76
3 168 231 11
3 232 233 121
3 205 234 235
3 235 236 205
3 159 237 138
3 160 159 138
3 31 155 238
3 239 31 238
3 240 241 242
3 242 243 240
3 41 40 244
3 244 199 41
3 123 43 42
3 136 123 42
3 245 238 246
3 247 245 246
3 248 249 250
3 204 251 146
3 249 248 252
3 253 60 62
3 62 208 253
3 66 254 255
3 66 255 63
3 256 257 258
3 123 259 43
3 260 261 200
3 236 262 206
3 205 236 206
3 20 23 263
3 223 264 265
3 266 223 265
3 169 103 105
3 5 95 178
3 178 225 5
3 267 268 269
3 270 271 272
3 273 274 126
3 275 226 276
3 275 276 180
3 180 91 275
3 181 277 278
3 278 7 181
3 11 13 84
3 279 79 78
3 78 280 279
3 279 77 185
3 185 188 279
3 281 282 283
3 283 284 281
3 285 286 287
3 287 288 285
3 289 290 71
3 289 291 290
3 289 71 48
3 292 293 294
3 147 292 294
3 295 296 65
3 65 297 295
3 197 38 41
3 41 298 197
3 299 35 202
3 300 299 202
3 122 44 247
3 247 246 122
3 59 149 301
3 56 59 301
3 301 302 303
3 301 303 56
3 304 146 251
3 251 128 304
3 305 306 307
3 308 143 309
3 309 310 308
3 64 311 312
3 64 63 311
3 312 313 64
3 33 32 293
3 293 68 33
3 28 214 314
3 158 28 314
3 315 316 317
3 315 318 316
3 317 319 315
3 163 74 75
3 17 76 18
3 15 14 280
3 280 186 15
3 277 86 8
3 8 278 277
3 85 88 221
3 180 276 3
3 102 180 3
3 1 113 2
3 4 320 95
3 174 96 222
3 171 321 172
3 322 323 324
3 19 322 324
3 83 325 326
3 326 84 83
3 162 164 110
3 235 115 262
3 262 236 235
3 117 237 159
3 159 118 117
3 157 43 259
3 259 154 157
3 52 55 242
3 52 242 273
3 52 273 327
3 211 328 150
3 133 135 329
3 309 133 329
3 201 194 36
3 36 330 201
3 44 122 124
3 253 331 61
3 253 61 60
3 332 140 141
3 289 333 334
3 334 291 289
3 75 110 164
3 164 163 75
3 142 145 135
3 65 64 313
3 297 65 313
3 256 258 69
3 335 336 290
3 290 337 335
3 261 338 285
3 285 288 261
3 207 306 116
3 116 115 207
3 217 263 134
3 189 217 134
3 280 78 224
3 13 12 104
3 13 104 339
3 227 100 3
3 340 267 173
3 172 340 173
3 111 110 61
3 114 270 272
3 98 97 228
3 100 102 3
3 324 323 231
3 341 224 266
3 342 22 21
3 234 207 115
3 115 235 234
3 233 232 343
3 139 233 343
3 43 157 247
3 251 257 125
3 251 125 128
3 344 141 254
3 254 66 344
3 143 345 133
3 133 309 143
3 207 206 307
3 245 239 238
3 346 151 328
3 328 347 346
3 347 39 50
3 348 213 46
3 46 49 348
3 349 345 142
3 329 310 309
3 150 350 211
3 240 243 55
3 54 240 55
3 156 245 247
3 161 348 28
3 28 158 161
3 317 351 252
3 252 319 317
3 110 113 162
3 19 324 167
3 167 17 19
3 322 352 170
3 220 9 85
3 222 353 174
3 4 276 226
3 88 10 353
3 226 275 227
3 220 354 174
3 174 353 220
3 98 171 354
3 354 99 98
3 187 16 15
3 11 355 168
3 121 356 232
3 357 358 359
3 357 359 360
3 361 118 314
3 361 314 215
3 193 212 33
3 37 195 295
3 295 297 37
3 199 198 298
3 199 298 41
3 330 36 35
3 330 35 299
3 67 147 294
3 300 202 201
3 294 362 192
3 192 67 294
3 22 342 282
3 282 281 22
3 310 329 144
3 308 310 144
3 311 63 332
3 69 68 292
3 292 256 69
3 334 335 337
3 334 337 291
3 261 356 200
3 114 116 270
3 363 80 265
3 363 265 364
3 364 365 363
3 224 223 266
3 355 104 103
3 355 103 168
3 184 366 176
3 184 183 366
3 184 176 182
3 101 90 269
3 101 269 229
3 367 368 94
3 178 177 225
3 171 175 174
3 171 174 354
3 8 86 85
3 9 8 85
3 219 170 352
3 165 166 325
3 1 74 162
3 73 190 216
3 93 73 216
3 118 159 158
3 158 314 118
3 245 156 212
3 245 212 193
3 274 241 53
3 369 274 53
3 350 129 152
3 152 211 350
3 248 370 318
3 318 315 248
3 361 160 138
3 140 150 132
3 150 328 151
3 260 200 343
3 368 302 301
3 368 367 302
3 301 94 368
3 350 255 130
3 130 129 350
3 257 256 371
3 371 125 257
3 334 333 336
3 336 335 334
3 338 372 373
3 373 285 338
3 342 142 134
3 134 263 342
3 165 109 108
3 374 264 375
3 375 376 374
3 105 12 11
3 231 105 11
3 95 377 183
3 229 269 268
3 229 268 230
3 378 379 305
3 110 75 61
3 230 268 175
3 230 175 171
3 182 178 95
3 339 380 82
3 82 13 339
3 363 375 81
3 363 81 80
3 316 359 358
3 306 305 270
3 270 116 306
3 260 381 338
3 260 287 381
3 338 261 260
3 291 337 290
3 204 70 69
3 69 258 204
3 140 332 63
3 197 298 198
3 382 250 249
3 249 316 382
3 207 234 205
3 383 127 369
3 383 304 127
3 369 327 383
3 384 385 386
3 386 387 384
3 128 127 304
3 200 139 343
3 384 388 372
3 384 372 385
3 209 244 40
3 209 40 210
3 55 243 242
3 31 239 362
3 30 214 28
3 24 73 25
3 349 218 217
3 167 324 231
3 168 167 231
3 14 16 219
3 220 221 99
3 88 87 6
3 88 6 10
3 227 275 91
3 227 91 100
3 78 81 224
3 177 320 4
3 4 226 177
3 10 9 220
3 220 353 10
3 354 220 99
3 352 18 77
3 77 14 352
3 325 83 109
3 217 189 349
3 26 25 72
3 148 26 72
3 215 314 214
3 362 32 31
3 127 126 369
3 328 211 210
3 328 210 347
3 370 250 382
3 382 318 370
3 389 390 148
3 389 24 390
3 148 58 57
3 148 57 389
3 67 70 146
3 142 345 143
3 295 195 203
3 203 312 295
3 386 385 381
3 381 286 386
3 303 367 216
3 244 50 51
3 51 199 244
3 65 296 344
3 344 66 65
3 293 292 68
3 29 191 30
3 285 373 386
3 286 285 386
3 23 22 281
3 281 284 23
3 217 20 263
3 186 224 341
3 188 186 341
3 83 82 106
3 183 377 366
3 267 89 179
3 173 267 179
3 216 367 94
3 305 307 378
3 267 340 268
3 95 320 377
3 168 103 169
3 107 380 166
3 165 325 109
3 282 342 263
3 263 283 282
3 343 232 288
3 343 288 287
3 259 122 246
3 246 154 259
3 273 153 383
3 327 273 383
3 152 151 346
3 346 209 152
3 382 316 318
3 161 160 361
3 361 215 161
3 197 196 51
3 38 197 51
3 312 311 296
3 312 296 295
3 381 287 286
3 302 367 303
3 255 350 150
3 126 274 369
3 238 154 246
3 119 118 361
3 315 319 252
3 248 315 252
3 2 112 111
3 331 2 111
3 166 380 325
3 352 322 19
3 18 352 19
3 171 98 321
3 321 228 340
3 177 226 225
3 222 88 353
3 3 276 4
3 221 222 96
3 221 96 99
3 106 82 380
3 352 14 219
3 355 11 84
3 326 355 84
3 1 162 113
3 24 27 390
3 49 29 28
3 49 28 348
3 33 212 31
3 53 241 240
3 53 240 54
3 209 346 50
3 50 244 209
3 373 391 387
3 386 373 387
3 119 361 138
3 140 132 131
3 296 311 332
3 332 344 296
3 260 343 287
3 92 94 301
3 149 92 301
3 254 141 131
3 131 130 254
3 258 257 251
3 204 258 251
3 191 336 333
3 191 71 336
3 47 191 333
3 190 24 389
3 57 190 389
3 133 345 349
3 349 189 133
3 188 341 79
3 188 79 279
3 375 264 223
3 81 375 223
3 326 339 104
3 181 87 86
3 277 181 86
3 91 180 89
3 331 111 61
3 379 271 270
3 379 270 305
3 340 228 175
3 101 179 102
3 104 355 326
3 364 374 376
3 364 376 365
3 316 358 317
3 114 262 115
3 288 232 356
3 288 356 261
3 122 259 123
3 371 256 146
3 304 371 146
3 63 255 140
3 135 145 144
3 144 329 135
3 384 387 391
3 391 388 384
3 120 119 139
3 50 346 347
3 143 308 144
3 245 193 239
3 307 306 207
3 2 331 253
3 253 208 2
3 254 130 255
3 371 153 125
3 247 44 43
3 233 237 117
3 233 117 121
3 317 358 357
3 351 317 357
3 75 1 0
3 75 0 61
3 376 375 363
3 365 376 363
3 323 105 231
3 230 171 173
3 228 321 98
3 182 176 178
3 93 216 94
3 269 90 89
3 89 267 269
3 377 320 176
3 377 176 366
3 326 325 380
3 380 339 326
3 280 224 186
3 79 341 266
3 266 80 79
3 283 263 23
3 23 284 283
3 385 372 338
3 385 338 381
3 71 290 336
3 256 292 147
3 146 256 147
3 312 203 34
3 34 313 312
3 135 134 142
3 201 330 299
3 201 299 300
3 215 213 348
3 215 348 161
3 332 141 344
3 45 44 124
3 193 192 362
3 193 362 239
3 142 218 349
3 216 56 303
3 152 209 211
3 37 297 313
3 37 313 34
3 293 32 362
3 294 293 362
3 29 71 191
3 27 26 148
3 390 27 148
3 21 20 217
3 266 265 80
3 280 14 77
3 279 280 77
3 106 109 83
3 8 7 278
3 100 90 101
3 153 273 126
3 320 177 176
3 340 175 268
3 225 227 3
3 225 3 5
3 169 323 322
3 322 170 169
3 107 106 380
3 21 218 142
3 142 342 21
3 114 272 307
3 114 307 206
3 206 262 114
3 200 356 121
3 200 121 120
3 247 157 156
3 242 241 274
3 273 242 274
3 210 40 39
3 347 210 39
3 373 372 388
3 388 391 373
3 48 47 333
3 333 289 48
3 370 248 250
3 369 53 52
3 369 52 327
3 252 351 249
3 307 272 378
3 150 140 255
3 371 304 383
3 383 153 371
3 238 155 154
3 138 237 233
3 138 233 139
3 359 316 249
3 360 359 249
3 360 249 351
3 351 357 360
3 265 264 374
3 265 374 364
3 105 323 169
3 179 101 229
3 229 173 179
3 340 172 321
3 272 271 379
3 378 272 379
