ply
format ascii 1.0
comment Created by Blender 2.92.0 - www.blender.org
element vertex 251
property float x
property float y
property float z
property float nx
property float ny
property float nz
element face 490
property list uchar uint vertex_indices
end_header
-3.198200 2.960802 -37.599400 -0.714469 -0.697562 -0.053926
-3.522400 3.452802 -38.435200 -0.969878 -0.044679 0.239448
-3.423600 3.198102 -38.491600 -0.794000 -0.589343 0.148930
-2.367100 4.235402 -38.960499 0.630696 0.771294 0.085238
-2.264600 3.838502 -38.233200 0.781335 0.536058 0.319529
-2.267500 4.047902 -39.145802 0.676382 0.735282 0.042665
-2.645800 0.929501 -25.464100 0.542833 -0.828303 -0.138554
-2.692200 1.163501 -26.434401 0.731773 -0.640461 -0.232948
-2.049100 1.236101 -25.150900 0.750938 -0.611744 -0.248573
-3.487900 0.629301 -26.582199 0.038881 -0.971160 -0.235206
-3.487900 0.499001 -25.967600 0.169591 -0.935606 -0.309549
-3.763900 0.697301 -26.137100 -0.526261 -0.804895 -0.274117
-3.779000 0.795101 -26.648899 -0.781640 -0.575457 -0.240547
-3.085600 3.144802 -39.508202 -0.007508 -0.386914 -0.922056
-3.465800 3.220302 -39.495998 -0.479659 -0.300668 -0.824305
-2.893700 4.454802 -39.359200 0.108402 0.799890 -0.590228
-2.659800 4.335802 -39.393600 0.296701 0.663137 -0.687124
-3.105100 1.755901 -24.338100 0.058565 -0.268380 0.961516
-3.075000 1.922501 -24.311199 0.185492 -0.154210 0.970458
-3.212400 1.834701 -24.247801 0.164068 -0.315989 0.934446
-4.437200 1.029401 -24.641500 -0.548082 -0.767663 0.332041
-4.804900 1.462801 -24.633301 -0.892453 -0.426405 0.147099
-4.513800 1.022101 -25.076799 -0.611255 -0.791406 0.000549
-3.451900 3.477502 -37.531898 -0.986755 -0.158483 -0.033601
-3.451900 3.454402 -36.620399 -0.939360 0.333323 0.080203
-3.438000 3.668702 -37.562801 -0.858638 0.505966 0.081729
-3.365500 0.485701 -25.597401 0.201086 -0.960204 0.193793
-3.289000 0.562401 -25.398800 0.148961 -0.965972 0.211341
-3.580100 0.580301 -25.411800 -0.296640 -0.925077 0.237068
-3.549400 0.503701 -25.610300 -0.295419 -0.928098 0.226478
-2.875500 1.907001 -24.313700 -0.315958 -0.145756 0.937468
-2.875500 2.215001 -24.201799 0.076876 0.265908 0.960906
-3.197300 2.146801 -24.259800 -0.031251 -0.099704 0.994507
-2.617200 3.162902 -39.427700 -0.033967 -0.354747 -0.934324
-2.425600 4.192802 -39.370300 0.416578 0.612110 -0.672140
-2.287800 4.094202 -39.432598 0.046785 0.893246 -0.447096
-2.535200 3.170302 -39.473499 -0.581866 -0.544847 -0.603748
-4.590300 1.112201 -25.155001 -0.856258 -0.420362 -0.300150
-4.896500 1.982501 -24.782000 -0.941069 0.199377 -0.273110
-4.115900 1.969901 -25.854401 -0.755577 0.484146 -0.441206
-4.146700 1.304901 -25.868799 -0.879604 -0.083712 -0.468215
-3.641000 2.650001 -24.783100 -0.187933 0.982147 -0.006073
-4.269000 2.620001 -24.695101 -0.246284 0.968505 0.036134
-3.503500 2.588001 -24.591600 -0.051210 0.833277 0.550432
-2.831300 2.775102 -37.598801 0.161809 -0.985870 -0.042817
-3.113300 2.926202 -38.535400 -0.385968 -0.921934 -0.031648
-2.817500 4.118402 -38.235100 0.084689 0.901425 0.424512
-2.739700 4.289502 -38.625702 0.220557 0.903409 0.367656
-2.436700 2.830402 -38.520401 0.473830 -0.878719 0.057436
-2.193100 3.357802 -38.326599 0.930967 -0.293191 0.217444
-2.722400 1.670501 -24.289600 0.095767 -0.103519 0.989990
-2.416200 0.866901 -24.496700 0.311319 -0.797845 0.516190
-1.896000 1.269401 -24.494101 0.698233 -0.474136 0.536332
-3.962800 0.791301 -25.951599 -0.780755 -0.582995 -0.224677
-2.291600 3.982302 -39.605701 -0.678091 0.332499 -0.655446
-2.300500 3.826302 -39.600399 -0.461745 0.232643 -0.855953
-3.472800 1.741001 -24.340500 -0.151341 -0.199438 0.968139
-3.304600 1.726101 -24.342899 -0.006836 -0.452071 0.891934
-4.039400 0.843601 -24.640301 -0.233619 -0.877102 0.419599
-2.200900 3.027802 -39.263901 0.669729 -0.704276 -0.235389
-2.533800 2.937402 -39.278500 0.100864 -0.851039 -0.515275
-2.462300 3.187102 -39.672298 -0.621509 -0.537248 -0.570116
-4.008600 1.018001 -24.472401 -0.032197 -0.459731 0.887448
-4.329900 1.229201 -24.438299 -0.069430 -0.191351 0.979034
-4.437200 1.171601 -24.463499 -0.385998 -0.487381 0.783227
-2.860400 1.721201 -24.312500 -0.232704 -0.155065 0.960082
-2.338500 3.707902 -39.634701 -0.573016 0.473495 -0.668905
-3.151500 3.078801 -33.475101 0.021149 0.986999 0.159246
-3.183800 3.792002 -37.558701 -0.200995 0.938932 0.279214
-3.687400 0.496501 -25.952200 -0.417402 -0.871364 -0.257759
-2.034900 3.534802 -39.042301 0.977874 -0.204169 0.045503
-2.478900 3.744502 -37.457699 0.511399 0.769738 0.381970
-2.478900 3.135002 -37.524899 0.900571 -0.423444 0.097995
-2.408300 3.666502 -37.455002 0.627186 0.129307 0.768029
-3.503500 0.469501 -25.879000 0.088229 -0.986328 -0.139073
-2.692200 1.799001 -29.343000 0.844722 -0.522019 -0.117893
-2.738000 2.534901 -33.562801 0.744591 -0.660543 -0.096072
-2.584900 2.225301 -29.196699 0.939207 0.342967 0.015625
-4.896500 1.865601 -24.537800 -0.907163 0.025727 0.419965
-4.759100 1.531301 -24.483000 -0.646596 -0.338572 0.683523
-2.253300 3.179802 -39.627102 0.560991 -0.697226 -0.446211
-2.073400 3.735902 -39.614899 0.693991 -0.083804 -0.715049
-2.139000 3.615102 -39.634399 0.793023 0.064089 -0.605762
-3.550700 3.430102 -39.354099 -0.769555 0.198584 -0.606861
-3.198200 4.497802 -39.243599 -0.368053 0.829188 -0.420606
-3.824800 1.388801 -26.677099 -0.973205 -0.024903 -0.228523
-3.028600 2.862401 -25.043699 -0.183935 0.977844 0.099734
-2.326600 3.568702 -39.827499 -0.369640 0.546617 -0.751366
-2.334600 3.372302 -39.859200 -0.333964 -0.227241 -0.914762
-2.738000 2.325001 -24.308599 0.062166 0.578204 0.813501
-1.803800 2.436901 -24.615999 0.504013 0.422681 0.753166
-2.217300 2.821201 -24.693800 0.265938 0.868160 0.418928
-2.339600 2.795501 -25.302401 0.363903 0.890103 -0.274270
-1.956900 2.268601 -25.496000 0.848201 0.384289 -0.364452
-2.355300 2.061401 -26.615000 0.888852 0.327647 -0.320170
-2.952000 0.834101 -24.486799 -0.000305 -0.723411 0.690390
-3.289000 0.846301 -24.562300 -0.126743 -0.678701 0.723380
-3.013500 0.630401 -25.434799 0.439039 -0.898068 -0.026460
-3.365500 1.882301 -24.255400 -0.241035 -0.163854 0.956572
-3.212400 2.194602 -33.664101 -0.235817 -0.959532 -0.153813
-3.297100 4.463702 -39.032299 -0.563952 0.820643 0.092013
-2.194400 3.682502 -38.227798 0.906491 0.183142 0.380352
-4.697600 2.432001 -24.585600 -0.653340 0.715232 0.248024
-2.492700 2.902901 -33.441200 0.937925 0.342326 0.055605
-3.013500 2.549801 -29.190701 0.061769 0.991272 0.116245
-3.151500 2.367701 -26.689501 -0.110111 0.983520 -0.143315
-2.783800 1.849601 -24.245399 -0.057955 -0.116825 0.991455
-2.630700 1.788601 -24.348101 0.326945 -0.020264 0.944823
-2.661500 2.136101 -24.292000 0.368236 0.089022 0.925443
-2.783800 2.094201 -24.221300 0.169042 -0.089602 0.981506
-3.733900 3.426502 -39.044498 -0.995575 -0.073489 -0.058199
-3.508500 3.093302 -39.283901 -0.619160 -0.742485 -0.255562
-3.487900 1.579501 -29.424801 -0.896207 -0.415479 -0.155492
-3.534300 2.242601 -29.209101 -0.878811 0.477096 -0.004791
-3.427000 3.035902 -33.497299 -0.793542 0.602466 0.085391
-3.350400 2.449301 -33.607700 -0.950987 -0.301889 -0.066836
-2.936900 2.501901 -24.636600 -0.047212 0.791406 0.609424
-3.457700 2.395701 -24.266001 -0.216620 0.510239 0.832270
-2.160800 3.406702 -39.497101 0.943663 -0.261086 -0.203131
-2.046500 3.646702 -39.349701 0.967040 -0.211371 -0.141728
-3.702500 0.866101 -24.590300 0.007874 -0.714560 0.699484
-4.253400 2.482401 -24.515800 -0.077517 0.596179 0.799066
-3.580100 1.856701 -24.384100 -0.268136 0.042024 0.962432
-1.635600 1.888401 -24.580500 0.891842 -0.064058 0.447737
-1.712200 2.438501 -24.724400 0.872250 0.477432 0.105899
-3.310900 4.084502 -38.410900 -0.635701 0.694571 0.336772
-3.451900 3.457702 -37.984501 -0.993805 -0.077425 0.079348
-3.059300 0.679201 -25.737101 0.542009 -0.820246 -0.182745
-3.071100 2.977402 -39.333698 -0.114200 -0.893979 -0.433271
-2.254200 3.352102 -39.831902 0.502182 -0.481368 -0.718345
-2.190100 3.505602 -39.822399 0.700919 0.181097 -0.689840
-4.621100 1.597101 -24.410101 -0.213538 -0.149052 0.965484
-3.779000 2.033501 -26.634800 -0.804743 0.568743 -0.169958
-2.442800 3.994502 -38.239201 0.435224 0.831446 0.345286
-1.865300 1.876401 -25.373100 0.928404 -0.148320 -0.340587
-2.016700 3.894602 -39.061798 0.874783 0.469649 0.118992
-2.016400 3.901402 -39.293400 0.914579 0.403912 -0.018525
-2.121000 4.017502 -39.631199 0.435835 0.574358 -0.692892
-3.779000 2.251601 -24.428499 -0.183782 0.260537 0.947783
-4.559600 2.236101 -24.431000 -0.242836 0.297494 0.923307
-3.243200 1.375601 -29.504101 -0.016480 -0.972777 -0.231117
-3.304600 0.490101 -25.813999 0.454665 -0.705985 -0.542955
-4.712700 1.889401 -24.394100 -0.374798 0.087924 0.922910
-4.512400 2.255601 -27.360701 0.007019 -0.967986 -0.250893
-4.742000 2.363401 -27.360399 -0.559587 -0.782128 -0.274087
-4.481600 2.747101 -29.654699 -0.851863 -0.509354 -0.121769
-4.849300 1.802001 -25.610201 0.426618 -0.685202 0.590289
-5.017500 1.594901 -25.906799 -0.250404 -0.958190 0.138218
-4.757100 1.722801 -26.168501 0.156743 -0.979217 -0.128574
-4.374300 1.785501 -26.059799 0.588488 -0.763207 0.266732
-4.588900 1.792401 -26.340300 0.145268 -0.899899 -0.411115
-4.374300 2.070101 -26.677799 0.779900 -0.571917 -0.254250
-4.267000 3.378002 -40.245201 -0.955535 -0.294382 -0.014954
-4.236900 3.824202 -40.225601 -0.752007 0.658345 0.032533
-4.267000 3.781602 -40.712502 -0.774346 0.496048 -0.392773
-5.170600 2.352801 -26.021400 -0.830012 0.544328 -0.121342
-5.032500 2.506101 -25.898600 -0.464827 0.884701 0.034364
-4.833600 2.602501 -26.611601 -0.513230 0.856868 0.048372
-4.956000 2.468801 -26.649300 -0.867580 0.476699 -0.141514
-3.731200 3.112202 -40.567902 0.790918 -0.389813 -0.471664
-4.053100 3.364102 -40.826698 -0.374096 -0.564348 -0.735862
-3.945800 3.428702 -40.849899 0.596057 -0.081881 -0.798730
-4.206200 3.751702 -39.806702 -0.864193 0.489944 0.114322
-4.221200 3.437702 -39.772598 -0.971099 -0.214331 0.104678
-4.175400 3.460902 -39.255402 -0.979919 -0.178869 0.088046
-4.374300 2.524201 -29.721800 -0.288125 -0.947935 -0.135441
-4.435800 3.128701 -32.475399 -0.973418 -0.208167 -0.095187
-4.374300 2.960101 -32.485199 -0.674703 -0.729270 -0.113407
-4.083800 3.274702 -35.498798 -0.238502 -0.968780 -0.067629
-4.252000 2.923201 -32.441399 0.227760 -0.968657 -0.098941
-4.144700 3.381701 -32.287601 0.602924 0.789026 0.117862
-3.838500 3.389201 -35.431499 0.729118 -0.684255 0.013215
-3.792700 3.493101 -35.398499 0.967193 0.230079 0.107425
-5.078900 1.862701 -25.716801 -0.694601 -0.515244 0.501999
-5.232000 2.076101 -26.263100 -0.888760 -0.097385 -0.447829
-5.308600 2.034201 -26.070801 -0.983062 -0.152928 -0.100772
-3.838500 3.912702 -40.195599 0.532640 0.776330 -0.336985
-3.945800 3.919702 -40.360001 0.244575 0.911527 -0.330546
-4.007300 3.890302 -39.917500 -0.380078 0.924467 0.028993
-3.807700 3.959602 -39.741299 0.114170 0.993164 -0.023225
-3.593800 3.834002 -39.843498 0.888730 0.438185 -0.134587
-5.170600 2.408101 -25.516300 -0.746879 0.589007 0.308512
-5.063300 2.266801 -25.273600 -0.667409 -0.066073 0.741722
-4.956000 2.373001 -25.257099 -0.108768 0.604450 0.789148
-4.267000 2.587301 -29.729000 0.845058 -0.533555 -0.033570
-4.098900 3.742501 -35.409401 -0.223518 0.972015 0.072085
-3.869200 3.935502 -38.326500 0.086612 0.990326 0.108219
-4.007300 3.756302 -38.370499 -0.856319 0.516098 0.018067
-4.252000 2.881401 -29.732901 0.981231 0.167028 0.096316
-4.359300 3.156101 -29.706699 0.392376 0.904996 0.164251
-4.144700 3.461702 -38.366600 -0.999939 -0.002686 0.007843
-4.022300 3.124902 -40.549000 -0.467208 -0.769341 -0.435621
-4.971700 2.306101 -26.707100 -0.913663 -0.153356 -0.376385
-4.175400 3.380902 -40.609001 -0.853084 -0.419141 -0.310648
-4.113900 3.608902 -40.921101 -0.204627 0.123997 -0.970946
-4.543100 2.052801 -26.779600 0.041292 -0.900662 -0.432539
-4.053100 3.829102 -40.721401 0.365459 0.811823 -0.455336
-3.701000 2.966502 -40.292000 0.629414 -0.726554 -0.275491
-4.895100 2.514901 -27.336901 -0.982177 -0.025025 -0.186132
-4.680500 3.030701 -29.693501 -0.947661 0.318979 -0.011597
-4.221200 3.461002 -35.503201 -0.994324 -0.088961 -0.057985
-4.405100 2.593001 -27.225700 0.900143 0.428236 0.079501
-4.374300 2.423901 -27.235600 0.988311 0.151524 0.016022
-4.343600 2.635801 -28.113199 0.934996 0.348491 0.065371
-4.007300 3.017502 -39.754902 -0.431684 -0.881283 0.192114
-3.654600 3.076502 -39.844799 0.775628 -0.610401 0.160558
-3.746900 3.181602 -39.365200 0.701376 -0.680013 0.213507
-3.991600 3.155702 -39.286400 -0.409223 -0.896237 0.171026
-4.573200 2.665201 -26.502899 0.212806 0.968444 0.129643
-4.573200 2.770601 -27.165001 0.250832 0.953276 0.168279
-4.742000 2.733501 -27.237200 -0.579089 0.812891 0.061800
-5.032500 1.814001 -26.270399 -0.466384 -0.719901 -0.513962
-4.818600 2.150601 -26.813900 -0.524735 -0.713889 -0.463668
-3.746900 3.368702 -38.364101 0.861599 -0.506119 0.038240
-3.731200 3.671802 -38.317101 0.975585 0.207831 0.070742
-4.558200 2.916601 -28.019501 -0.035188 0.999268 0.014679
-4.359300 2.327001 -27.316401 0.899899 -0.425062 -0.097232
-4.343600 2.243201 -26.584499 0.998321 -0.032960 -0.047365
-4.435800 2.832301 -27.850800 0.731651 0.679312 0.056307
-4.466500 3.410301 -32.382301 -0.703482 0.710593 -0.010834
-4.359300 2.487601 -26.563601 0.895993 0.442854 0.032441
-4.558200 2.595101 -25.867901 0.290963 0.941801 0.168310
-4.297800 2.354601 -25.922100 0.944334 0.302561 0.128971
-4.405100 2.347201 -25.525700 0.776605 0.113285 0.619678
-4.864400 2.151801 -25.224899 0.147282 -0.406110 0.901852
-4.022300 3.000902 -40.203899 -0.528947 -0.844417 -0.084506
-4.696200 2.518701 -25.532400 0.118320 0.897031 0.425764
-4.022300 3.199502 -38.374001 -0.286172 -0.957305 0.040345
-4.053100 3.094101 -32.332199 0.965941 -0.257790 0.021973
-4.313500 2.133801 -26.005800 0.987365 -0.135624 0.081851
-4.141500 0.547501 -24.343100 -0.641804 0.744316 0.184454
-4.019100 0.441001 -23.917999 -0.616596 0.161596 0.770470
-3.268700 0.527201 -23.761801 0.209815 0.436628 0.874813
-2.916700 0.613101 -24.907700 0.559862 0.720725 -0.408704
-3.529100 0.564001 -25.246599 0.110324 0.506455 -0.855159
-3.498400 0.693301 -25.012300 -0.013062 0.985900 -0.166631
-3.574900 0.135601 -25.276600 -0.059664 -0.557146 -0.828242
-3.529100 -0.087799 -24.580000 -0.264016 -0.957366 -0.117161
-4.004100 0.307101 -24.918400 -0.816248 -0.366649 -0.446364
-3.804600 0.256901 -25.226500 -0.610248 -0.363750 -0.703726
-3.743700 0.517001 -25.232500 -0.431898 0.464064 -0.773339
-2.672000 -0.038199 -24.684999 0.414808 -0.844783 -0.337992
-2.564700 0.086301 -24.727100 0.732810 -0.381390 -0.563433
-2.672000 -0.067699 -24.272900 0.581652 -0.695303 0.422132
-3.514000 -0.072499 -24.134899 -0.202521 -0.856685 0.474349
-4.110800 0.588401 -24.632999 -0.647755 0.739525 -0.182897
-2.672000 0.130001 -24.235201 0.809107 0.238014 0.537278
-4.187300 0.357801 -24.610201 -0.924558 -0.296915 -0.238685
-4.203000 0.364801 -24.380199 -0.942167 -0.306497 0.135441
-2.534000 0.131001 -24.694799 0.974792 0.111179 -0.193396
-3.758700 0.614101 -24.938499 -0.350566 0.878567 -0.324320
3 0 1 2
3 3 4 5
3 6 7 8
3 9 10 11
3 9 11 12
3 13 14 15
3 15 16 13
3 17 18 19
3 20 21 22
3 23 24 25
3 26 27 28
3 28 29 26
3 30 31 32
3 32 18 30
3 33 34 35
3 35 36 33
3 37 38 39
3 37 39 40
3 41 42 43
3 44 0 45
3 46 3 47
3 44 48 49
3 50 51 52
3 12 11 53
3 35 54 55
3 56 57 19
3 58 53 28
3 59 60 33
3 59 36 61
3 62 63 64
3 30 17 65
3 66 35 55
3 67 68 25
3 10 69 11
3 48 59 70
3 48 70 49
3 71 72 73
3 16 15 47
3 10 74 69
3 75 76 77
3 66 36 35
3 30 18 17
3 78 21 79
3 61 80 59
3 55 81 82
3 82 66 55
3 21 20 64
3 79 21 64
3 17 19 57
3 83 84 14
3 53 85 12
3 41 43 86
3 44 49 72
3 71 76 72
3 87 88 61
3 89 90 91
3 92 93 94
3 41 39 42
3 18 32 19
3 95 96 27
3 0 2 45
3 95 97 6
3 19 32 98
3 36 66 61
3 0 44 99
3 37 22 21
3 84 100 47
3 4 72 101
3 38 102 39
3 103 71 67
3 21 78 38
3 77 104 105
3 5 35 34
3 106 107 108
3 106 108 109
3 28 53 69
3 29 28 69
3 110 111 2
3 102 38 78
3 89 31 108
3 112 113 114
3 112 114 115
3 37 53 22
3 116 43 117
3 70 59 118
3 118 119 70
3 72 4 73
3 99 44 76
3 50 52 107
3 24 23 115
3 115 114 24
3 117 32 31
3 56 19 98
3 28 120 58
3 59 33 36
3 119 118 82
3 119 82 81
3 121 42 102
3 98 122 56
3 83 110 100
3 100 84 83
3 67 25 24
3 90 123 124
3 33 13 16
3 16 34 33
3 125 126 23
3 125 25 68
3 125 68 46
3 9 7 127
3 76 103 77
3 31 89 116
3 120 56 62
3 96 120 28
3 28 27 96
3 13 128 111
3 111 14 13
3 129 130 80
3 64 131 79
3 56 63 62
3 84 15 14
3 105 132 39
3 43 116 86
3 33 60 128
3 0 126 1
3 4 133 71
3 71 73 4
3 8 134 123
3 123 52 8
3 113 104 67
3 135 136 5
3 108 31 109
3 88 87 130
3 129 88 130
3 80 61 88
3 80 88 129
3 58 62 64
3 131 63 56
3 94 7 75
3 94 93 134
3 108 107 52
3 60 48 45
3 128 60 45
3 46 133 3
3 102 42 39
3 71 68 67
3 38 37 21
3 0 99 115
3 136 137 5
3 17 96 95
3 95 65 17
3 6 51 95
3 2 1 110
3 27 97 95
3 138 121 139
3 7 9 140
3 7 140 75
3 37 40 53
3 91 116 89
3 61 66 87
3 125 1 126
3 15 84 47
3 108 123 90
3 89 108 90
3 23 0 115
3 137 35 5
3 95 51 50
3 97 27 127
3 45 2 111
3 87 66 82
3 130 87 82
3 102 139 121
3 98 32 117
3 9 12 112
3 67 24 114
3 51 6 8
3 51 8 52
3 124 93 92
3 0 23 126
3 117 43 138
3 105 92 94
3 115 140 112
3 35 137 54
3 120 57 56
3 127 27 26
3 141 127 26
3 14 111 110
3 118 80 130
3 130 82 118
3 64 63 131
3 81 137 136
3 112 12 85
3 113 112 85
3 134 8 7
3 142 122 138
3 142 138 139
3 13 33 128
3 125 23 25
3 45 48 44
3 42 121 43
3 67 114 113
3 117 31 116
3 57 120 96
3 17 57 96
3 72 49 101
3 137 81 55
3 55 54 137
3 64 20 58
3 56 122 131
3 113 85 132
3 85 40 39
3 132 85 39
3 52 123 108
3 3 133 4
3 71 103 76
3 16 47 3
3 86 116 91
3 134 7 94
3 75 77 94
3 106 109 30
3 79 142 78
3 70 101 49
3 48 60 59
3 139 102 78
3 78 142 139
3 68 133 46
3 104 77 103
3 124 123 134
3 124 134 93
3 47 100 125
3 22 53 58
3 58 20 22
3 98 117 138
3 122 98 138
3 44 72 76
3 53 11 69
3 113 132 105
3 105 104 113
3 5 34 3
3 50 65 95
3 74 29 69
3 45 111 128
3 26 29 74
3 106 30 65
3 135 5 4
3 9 112 140
3 85 53 40
3 91 92 86
3 92 91 124
3 127 7 6
3 6 97 127
3 86 105 39
3 39 41 86
3 105 86 92
3 115 99 140
3 4 101 135
3 106 65 50
3 74 141 26
3 110 83 14
3 135 70 119
3 135 119 136
3 50 107 106
3 136 119 81
3 76 75 140
3 140 99 76
3 74 10 127
3 142 131 122
3 121 138 43
3 59 80 118
3 125 46 47
3 74 127 141
3 103 67 104
3 68 71 133
3 58 120 62
3 125 100 110
3 1 125 110
3 70 135 101
3 79 131 142
3 109 31 30
3 105 94 77
3 127 10 9
3 124 91 90
3 3 34 16
3 143 144 145
3 146 147 148
3 149 150 151
3 152 153 154
3 155 156 157
3 157 158 155
3 159 160 161
3 162 163 164
3 165 145 166
3 165 166 167
3 168 169 167
3 170 171 172
3 173 147 146
3 155 174 175
3 176 177 178
3 174 155 158
3 176 179 180
3 181 182 183
3 184 165 167
3 185 186 187
3 188 170 189
3 187 162 164
3 164 190 187
3 159 191 160
3 158 192 174
3 193 154 194
3 194 160 193
3 151 150 195
3 196 177 197
3 198 199 145
3 145 144 198
3 200 185 187
3 200 187 190
3 199 189 170
3 201 202 203
3 204 205 206
3 207 204 206
3 157 208 209
3 209 210 157
3 193 152 154
3 195 148 211
3 211 212 195
3 196 159 161
3 143 145 165
3 213 214 172
3 203 188 215
3 216 202 217
3 197 205 204
3 209 218 215
3 218 209 201
3 151 195 143
3 180 205 197
3 216 184 188
3 185 172 214
3 166 199 219
3 180 179 186
3 195 144 143
3 209 208 220
3 201 209 220
3 208 221 222
3 208 222 220
3 206 213 207
3 176 197 177
3 215 189 198
3 198 210 215
3 167 166 200
3 203 215 218
3 174 211 175
3 177 196 178
3 198 192 158
3 154 153 196
3 181 155 175
3 148 223 224
3 166 185 200
3 184 216 143
3 184 143 165
3 224 183 182
3 173 182 175
3 186 179 178
3 157 156 221
3 208 157 221
3 153 162 178
3 182 173 146
3 146 224 182
3 210 198 158
3 158 157 210
3 200 190 168
3 188 189 215
3 180 206 205
3 163 204 207
3 163 152 225
3 225 204 163
3 156 183 226
3 207 164 163
3 201 203 218
3 219 199 170
3 213 171 168
3 168 227 213
3 166 145 199
3 197 159 196
3 195 212 144
3 212 211 192
3 212 192 198
3 198 144 212
3 156 226 221
3 213 227 207
3 206 180 214
3 214 213 206
3 189 199 198
3 168 167 200
3 167 169 184
3 147 173 175
3 187 186 178
3 220 217 202
3 220 202 201
3 162 187 178
3 211 147 175
3 224 146 148
3 170 228 171
3 168 171 169
3 148 149 223
3 181 183 156
3 196 153 178
3 220 222 229
3 220 229 217
3 179 176 178
3 182 181 175
3 148 150 149
3 228 169 171
3 190 227 168
3 188 184 228
3 156 155 181
3 161 160 194
3 183 223 226
3 153 152 163
3 163 162 153
3 211 148 147
3 161 194 196
3 216 203 202
3 166 219 185
3 223 149 229
3 223 229 222
3 151 217 229
3 197 225 191
3 197 191 159
3 226 223 221
3 160 191 193
3 150 148 195
3 224 223 183
3 172 219 170
3 172 185 219
3 151 229 149
3 164 207 227
3 190 164 227
3 211 174 192
3 223 222 221
3 194 154 196
3 180 186 214
3 184 169 228
3 185 214 186
3 216 188 203
3 176 180 197
3 151 143 216
3 191 225 152
3 193 191 152
3 209 215 210
3 204 225 197
3 151 216 217
3 228 170 188
3 172 171 213
3 230 231 232
3 233 234 235
3 236 237 238
3 239 236 238
3 234 236 239
3 239 240 234
3 241 242 243
3 243 244 237
3 237 241 243
3 238 245 240
3 239 238 240
3 231 244 232
3 245 230 235
3 246 232 243
3 230 245 247
3 248 230 247
3 234 242 236
3 243 232 244
3 248 244 231
3 249 246 243
3 238 247 245
3 250 245 235
3 250 240 245
3 241 236 242
3 242 234 233
3 249 242 233
3 231 230 248
3 237 236 241
3 243 242 249
3 237 244 248
3 237 248 247
3 230 232 233
3 240 250 235
3 237 247 238
3 240 235 234
3 233 235 230
3 233 232 246
3 246 249 233
