ply
format ascii 1.0
comment Created by Blender 2.92.0 - www.blender.org
element vertex 257
property float x
property float y
property float z
property float nx
property float ny
property float nz
element face 510
property list uchar uint vertex_indices
end_header
-5.088500 0.986800 -9.037100 0.630573 0.227729 0.741935
-4.759700 1.153100 -9.283500 0.598682 0.618732 0.508621
-4.898900 1.421100 -8.569500 0.948241 0.095401 0.302805
-1.371400 2.008701 -23.061399 0.716910 0.439589 0.541063
-1.931600 1.823201 -22.758200 0.192602 0.484695 0.853175
-1.565700 1.457301 -22.740601 0.718040 0.046510 0.694418
-3.759100 2.354101 -22.898899 0.252998 0.837306 0.484603
-3.561900 2.543901 -23.684601 0.486648 0.862941 -0.135868
-4.505400 2.452101 -23.653299 -0.539384 0.827448 0.155950
-4.472400 2.243001 -22.711800 -0.470107 0.711661 0.522019
-4.054600 -0.648900 -8.103500 -0.460097 -0.887814 0.006684
-4.593000 0.009500 -8.157900 -0.716056 -0.534440 0.449019
-4.397400 -0.204700 -8.678600 -0.441908 -0.866543 -0.231910
-4.037300 1.067700 -7.836500 -0.414197 0.832728 0.367351
-3.808300 0.936500 -7.490200 -0.177496 0.700949 0.690725
-2.996200 1.105900 -8.079900 0.433576 0.862056 0.262398
-4.968800 1.167401 -12.941400 -0.637806 0.759850 -0.125614
-5.262400 1.032000 -12.117100 -0.853816 0.485000 -0.188971
-4.897300 1.231601 -11.978100 -0.550523 0.809168 -0.205176
-3.753800 1.016201 -15.955100 0.763695 0.634083 0.121097
-3.399400 1.147401 -18.712999 0.708579 0.686972 0.161107
-4.080300 1.218201 -16.090000 -0.040162 0.999146 0.006043
-4.545100 1.185601 -12.957700 0.193396 0.981017 -0.012329
-4.083600 0.965101 -12.841900 0.686605 0.726981 -0.005402
-5.048200 0.038400 -9.315100 -0.074709 -0.967467 -0.241615
-5.796900 0.223300 -9.548900 -0.415113 -0.878689 -0.235664
-5.351100 0.228200 -10.104600 -0.240883 -0.917875 -0.315317
-5.225500 1.677300 -8.568900 0.081057 0.909909 0.406720
-5.015100 1.529700 -8.395600 0.517411 0.666341 0.536882
-4.476200 0.866201 -22.090300 -0.893887 -0.413343 0.173376
-4.587900 0.962701 -22.667400 -0.923795 -0.354411 0.144780
-4.241900 0.487201 -22.612400 -0.491195 -0.866421 0.089450
-4.148400 0.464601 -22.168800 -0.487655 -0.872494 0.029908
-1.406800 1.153901 -23.589001 0.878536 -0.475295 -0.047029
-1.328600 1.722901 -23.871700 0.984954 0.011902 -0.172369
-1.272800 1.829301 -23.447500 0.994507 0.102420 0.020508
-1.312700 1.407101 -23.239700 0.953429 -0.233070 0.191321
-2.448500 2.412601 -23.236700 -0.753777 0.553758 0.353740
-2.234200 2.671301 -23.598801 -0.161931 0.972350 0.168096
-2.465500 2.506901 -23.563200 -0.795770 0.590777 0.132939
-2.993100 -0.461700 -8.595400 0.322886 -0.793908 -0.515183
-2.704000 -0.095300 -8.667300 0.714591 -0.374187 -0.591021
-2.572100 -0.191000 -8.186300 0.897397 -0.435804 -0.068697
-2.860900 -0.520300 -8.152600 0.495254 -0.868709 0.004486
-1.446800 2.413801 -23.365499 0.636708 0.588000 0.498825
-1.425800 2.526201 -23.710600 0.671438 0.740867 0.015564
-3.077200 1.123101 -24.273001 -0.334513 0.050386 -0.941008
-3.000000 1.433901 -24.250500 -0.361705 0.505661 -0.783227
-2.769100 1.580901 -24.343901 -0.688589 0.482345 -0.541429
-4.521200 0.902601 -24.168699 -0.572436 -0.335673 -0.748070
-4.600900 0.826301 -23.766001 -0.968810 -0.216193 -0.120914
-4.697900 1.172201 -23.647301 -0.963836 -0.194586 -0.181982
-1.349300 2.086001 -23.579500 0.977813 0.207465 0.028687
-6.009400 0.368800 -9.491200 -0.771538 -0.620930 -0.138279
-5.513100 -0.149500 -8.742400 -0.426771 -0.848292 0.313395
-3.650200 1.171301 -11.336200 0.917936 -0.134770 -0.373089
-3.936900 1.174201 -11.664400 0.696158 0.462722 -0.548814
-3.727000 1.300100 -11.411900 0.677908 0.488907 -0.548936
-3.687700 1.330701 -18.770500 0.270272 0.955870 0.114872
-4.305900 1.480700 -11.163600 0.162847 0.981780 -0.097812
-4.017500 1.517100 -11.122800 0.037385 0.980560 0.192541
-4.040600 0.349500 -7.285100 -0.504257 0.018616 0.863338
-3.136300 0.403700 -7.221600 0.276040 0.341960 0.898221
-5.381700 1.052900 -8.287300 0.337138 -0.434431 0.835200
-5.282900 0.801100 -8.712700 0.570513 0.032807 0.820612
-5.093400 1.326600 -8.225300 0.449599 0.017090 0.893063
-3.524100 0.421901 -23.532400 -0.208045 -0.962889 -0.171728
-3.368400 0.516201 -23.857901 -0.340678 -0.757958 -0.556230
-2.771300 0.261201 -23.990900 0.023225 -0.927702 -0.372570
-1.924800 0.736101 -23.884899 0.604419 -0.770592 -0.202063
-2.290000 0.517601 -24.005199 0.430616 -0.842647 -0.323160
-1.978700 0.869601 -24.500000 0.379070 -0.577563 -0.722983
-2.613000 -0.121000 -7.800900 0.902158 -0.322428 0.286599
-1.637200 0.935401 -23.708500 0.670644 -0.721122 -0.173772
-1.653200 1.104501 -24.188101 0.757988 -0.556719 -0.339793
-1.482000 1.139001 -23.936600 0.768242 -0.572893 -0.285623
-4.404900 1.168301 -21.086000 -0.985290 0.137211 0.101749
-4.495600 1.359301 -22.008301 -0.965606 0.161046 0.203955
-6.110600 0.910200 -8.678000 -0.871212 0.177496 0.457625
-5.916300 1.479300 -8.978900 -0.689291 0.704672 0.168157
-6.126300 1.262600 -9.213400 -0.849971 0.526811 -0.000214
-5.102800 0.508901 -12.948700 -0.943022 -0.312113 -0.115238
-5.242700 0.557001 -12.121600 -0.881222 -0.442305 -0.166753
-3.872500 0.580901 -12.786800 0.983184 -0.087436 0.160131
-3.600300 0.540101 -15.920200 0.983276 -0.132084 0.125309
-4.625400 -0.017300 -9.197900 -0.040101 -0.977722 -0.205969
-5.129400 -0.133200 -8.547400 -0.268014 -0.734123 0.623859
-6.167100 0.528100 -8.855600 -0.909513 -0.328440 0.254677
-6.086400 0.496300 -9.413100 -0.781671 -0.614643 -0.105594
-5.993800 0.271500 -8.818400 -0.540483 -0.836695 0.088015
-1.459500 2.057301 -24.408701 0.646474 0.218909 -0.730796
-1.423700 2.419901 -24.057899 0.685903 0.608539 -0.398968
-1.366100 1.924901 -23.928200 0.978790 0.067049 -0.193548
-4.700400 1.095801 -23.224501 -0.969268 -0.237403 0.064302
-4.739900 1.605301 -22.969700 -0.969451 0.057680 0.238289
-4.814000 1.609901 -23.489901 -0.996582 -0.006165 -0.082064
-2.617700 1.996601 -23.819201 -0.747703 0.629688 -0.210730
-2.501900 2.473401 -23.929701 -0.813868 0.557421 -0.163823
-2.538300 2.129001 -24.298500 -0.807703 0.394330 -0.438246
-2.655000 1.834501 -24.052099 -0.771111 0.541307 -0.335124
-3.491900 1.820601 -22.478901 0.163976 0.876522 0.452528
-3.800000 1.838901 -22.519199 0.044588 0.818171 0.573199
-3.859900 1.762801 -22.135401 0.028993 0.981689 0.188116
-3.240300 0.182500 -9.071700 0.608386 -0.328867 -0.722251
-3.852800 0.150900 -9.653100 0.271249 -0.917570 -0.290567
-3.602300 0.334400 -9.727100 0.811029 -0.386517 -0.439070
-2.306400 2.276301 -24.430599 -0.228980 0.535508 -0.812860
-2.290100 2.620201 -24.003500 -0.242409 0.899716 -0.362896
-1.365400 1.468901 -24.047899 0.908567 -0.181616 -0.376110
-4.560800 1.230901 -24.011900 -0.890957 -0.035005 -0.452681
-4.385700 1.214501 -24.280001 -0.366008 -0.201880 -0.908414
-5.766700 1.071400 -8.270500 -0.465194 0.219459 0.857540
-4.764700 0.560700 -8.461900 -0.575304 0.383862 0.722251
-4.648500 0.762500 -8.497100 -0.511490 0.673574 0.533494
-4.699000 0.107201 -12.950200 -0.345225 -0.938475 -0.004730
-4.762000 0.171901 -12.045200 -0.329081 -0.943785 0.030061
-4.166100 0.171401 -11.984000 0.617145 -0.785852 0.038728
-4.728000 0.238600 -11.274500 -0.263070 -0.964751 0.001679
-5.420600 0.659900 -11.389700 -0.842219 -0.484054 -0.237342
-3.193500 -0.272400 -7.286100 0.125614 -0.571368 0.810999
-3.767900 -0.688500 -7.774800 -0.217078 -0.889431 0.402142
-2.846300 -0.234300 -7.437500 0.563616 -0.547838 0.618183
-2.629200 0.778500 -8.254400 0.855007 0.516556 0.045473
-2.865400 0.460100 -7.411900 0.620624 0.452254 0.640522
-1.709600 1.216701 -24.514601 0.593677 -0.248817 -0.765221
-2.516700 1.455101 -24.613400 -0.253273 0.109378 -0.961180
-4.737800 2.065401 -23.311501 -0.929167 0.360271 0.082614
-4.135300 0.383201 -21.188299 -0.607166 -0.792199 -0.061007
-5.456400 0.507100 -8.600700 0.249672 -0.097262 0.963408
-5.612100 0.852100 -8.290700 0.154546 -0.334697 0.929533
-5.842600 0.615200 -8.371700 -0.329234 -0.313425 0.890683
-4.403300 0.353000 -7.691900 -0.782586 0.026978 0.621937
-4.039800 1.643401 -21.079100 -0.297617 0.938169 0.176763
-4.015600 1.329901 -18.676300 -0.377819 0.922575 0.077792
-3.576500 1.553501 -21.250700 0.242286 0.959716 0.142125
-4.827100 1.555600 -9.289500 0.815821 0.514695 0.263588
-4.468300 1.230600 -9.742500 0.557787 0.782189 0.277474
-5.957500 0.378500 -8.547400 -0.589953 -0.501480 0.632771
-5.572300 0.196200 -8.604500 -0.321879 -0.467727 0.823145
-4.622700 0.840201 -23.303801 -0.924650 -0.371502 0.083621
-2.314000 2.430101 -23.178101 -0.048891 0.789178 0.612171
-2.411100 2.282601 -23.026300 -0.446791 0.569262 0.690115
-2.526500 2.026001 -22.990900 -0.308512 0.790185 0.529496
-2.495200 0.321300 -8.238400 0.996063 0.087924 0.009949
-2.750000 0.222900 -7.452100 0.782800 0.110569 0.612323
-2.749900 -0.014500 -7.473400 0.757042 -0.126835 0.640919
-2.686500 0.555301 -22.082600 0.469771 -0.868374 0.158727
-2.355000 0.506701 -22.773600 0.407788 -0.880367 0.242073
-1.971700 0.979501 -22.516600 0.699088 -0.580920 0.416852
-2.360200 0.882901 -21.923599 0.825007 -0.268929 0.496994
-4.696400 1.650201 -23.892700 -0.954222 -0.059114 -0.293161
-3.640900 0.554000 -9.744100 0.901547 0.356639 -0.244911
-3.201800 0.365100 -9.050700 0.649220 0.246071 -0.719657
-4.841300 0.140100 -8.446800 -0.599841 0.042695 0.798944
-3.613200 1.223601 -11.065700 0.931028 0.217597 0.292917
-3.789000 1.074100 -10.683300 0.926481 0.334178 0.173040
-3.863200 0.803300 -11.071300 0.917844 -0.395672 -0.031129
-3.612500 1.188700 -11.181200 0.993622 -0.063875 -0.092715
-4.292100 1.071601 -16.035101 -0.670522 0.733696 -0.109806
-4.694800 0.561401 -16.215300 -0.991485 0.055208 -0.117771
-3.785700 1.463400 -11.237900 0.450880 0.886685 -0.102115
-4.899500 0.323100 -8.465100 -0.498856 0.128788 0.857051
-3.129200 0.672301 -18.792500 0.981994 -0.103488 0.158025
-3.513300 0.143601 -18.916000 0.412305 -0.911008 0.002930
-3.230800 0.327601 -21.164400 0.302652 -0.952971 0.013581
-2.749000 0.649301 -24.410500 -0.164556 -0.519089 -0.838710
-2.652100 1.107301 -24.521400 -0.298227 -0.145482 -0.943327
-5.581500 0.375300 -10.219800 -0.477798 -0.812372 -0.334239
-5.811900 0.650600 -10.333600 -0.823206 -0.373547 -0.427473
-3.219300 1.935301 -23.073299 0.276284 0.948546 0.154546
-2.581400 2.067801 -23.568199 -0.722770 0.690725 0.021424
-2.692700 1.689801 -24.207500 -0.810389 0.565569 -0.152806
-3.214600 1.558401 -23.846800 0.126072 0.737266 -0.663717
-3.254300 1.849101 -23.670601 0.384442 0.743828 -0.546678
-2.607800 0.325000 -8.662600 0.829676 0.040803 -0.556688
-4.958600 1.464401 -11.360100 -0.295938 0.919462 -0.258766
-5.208700 1.281500 -11.344500 -0.673055 0.664052 -0.325541
-5.581900 1.417001 -10.152000 -0.747703 0.558428 -0.359233
-5.439600 0.952100 -11.387000 -0.902127 0.302957 -0.307169
-4.012500 0.939101 -11.937000 0.983123 0.084841 -0.161962
-4.122100 0.161201 -12.868900 0.535752 -0.838404 0.100070
-4.088700 1.040000 -8.857000 0.048036 0.998688 -0.016938
-3.646100 0.875300 -8.874900 0.401135 0.723350 -0.561968
-5.667800 1.605300 -8.726100 -0.469619 0.816675 0.335307
-5.457500 1.438400 -8.418900 -0.310068 0.633290 0.709067
-5.950400 0.370900 -9.721900 -0.633900 -0.721824 -0.277688
-6.142100 0.646300 -9.854500 -0.873959 -0.282754 -0.395215
-3.638200 0.570701 -23.839300 -0.113163 -0.820185 -0.560778
-4.506400 0.494801 -23.480000 -0.603717 -0.796533 -0.032044
-2.486500 2.230601 -23.334900 -0.950591 0.268838 0.155187
-3.552300 1.671401 -22.134501 0.193640 0.937071 0.290414
-2.956400 1.541601 -21.939699 0.336375 0.883969 0.324656
-2.827100 1.277201 -21.017799 0.715812 0.662618 0.220222
-2.692700 0.783801 -21.060499 0.910825 -0.332530 0.244453
-4.599100 2.492601 -24.076300 -0.548112 0.726005 -0.415265
-3.568000 0.432301 -22.666500 -0.034242 -0.998779 -0.035279
-2.932800 0.414601 -22.701500 0.073336 -0.993744 0.084078
-3.109100 0.427501 -22.125000 0.165136 -0.985992 -0.022767
-3.589800 0.392001 -22.185900 -0.027161 -0.996429 -0.079684
-6.083800 0.957300 -9.851100 -0.862514 0.333201 -0.380779
-6.318000 0.696400 -9.336000 -0.977905 -0.199286 -0.062624
-5.853800 1.377100 -9.788000 -0.715201 0.622669 -0.317362
-4.165700 1.140900 -12.051100 0.555559 0.794885 -0.243812
-4.457800 0.854501 -18.722200 -0.982086 0.186224 -0.028199
-3.968600 0.972700 -9.549500 0.613483 0.789453 -0.018525
-3.213000 0.183800 -7.185600 0.146641 -0.051393 0.987823
-3.062500 0.276101 -23.569700 -0.109806 -0.991699 0.066622
-2.851700 0.346801 -23.336599 0.088961 -0.982513 0.163518
-3.565200 0.455101 -23.127701 -0.060060 -0.997131 0.045747
-4.674800 0.250100 -10.542900 -0.082339 -0.994018 -0.071627
-4.019000 0.381100 -10.865000 0.869259 -0.487259 -0.083377
-3.978200 0.384300 -11.229900 0.865749 -0.473251 -0.162694
-4.170500 0.165000 -11.252900 0.407239 -0.912687 -0.033174
-5.584700 1.650501 -9.687500 -0.469344 0.872402 -0.136296
-3.404800 1.214001 -24.216499 -0.044008 0.044160 -0.998047
-4.541700 0.626101 -23.921499 -0.586413 -0.676321 -0.445723
-3.366600 1.506501 -24.155800 0.288980 0.441389 -0.849483
-3.309700 1.523401 -24.040100 0.476882 0.799463 -0.365215
-2.981700 1.487701 -24.153700 -0.355144 0.830317 -0.429395
-1.466500 2.211001 -23.232700 0.625233 0.529984 0.572832
-3.077300 1.388201 -21.114500 0.311075 0.935118 0.169530
-3.424100 1.798901 -24.172199 0.782800 0.177892 -0.596271
-4.539000 1.709001 -24.353399 -0.491195 -0.090762 -0.866268
-2.177600 0.475801 -23.427500 0.413770 -0.910306 0.008332
-4.616700 2.056101 -24.292801 -0.593493 0.236946 -0.769127
-4.445000 0.104001 -16.180401 -0.546983 -0.834681 -0.063845
-4.153600 0.215600 -10.790100 0.334910 -0.940275 -0.060488
-3.186000 1.183200 -8.522800 0.260170 0.910794 -0.320444
-3.820700 1.165600 -8.565500 -0.154515 0.980407 -0.122044
-4.658700 2.069201 -23.734501 -0.967071 0.235603 -0.095950
-3.490300 -0.037100 -9.075400 0.232521 -0.760308 -0.606464
-5.831100 0.961200 -10.292800 -0.855098 0.292398 -0.428114
-3.907100 0.048101 -16.042801 0.413343 -0.909177 0.050203
-4.417700 0.964000 -8.571100 -0.347789 0.893948 0.282540
-3.483000 1.906201 -23.941200 0.953551 0.244881 -0.175268
-2.069400 1.471101 -22.262400 0.484909 0.613392 0.623341
-2.780200 1.692801 -22.514500 0.171972 0.860408 0.479659
-4.742900 1.323900 -12.072500 -0.186102 0.945006 -0.268868
-3.976000 0.862601 -11.591200 0.941313 -0.229316 -0.247597
-4.186700 0.198601 -18.958099 -0.586657 -0.805506 -0.083316
-1.564100 1.057401 -23.013500 0.772759 -0.527024 0.353618
-4.118300 1.254100 -10.356200 0.573290 0.800928 0.172613
-4.627400 1.418401 -22.509399 -0.963408 0.081790 0.255196
-1.499000 1.634901 -24.258499 0.894742 -0.166082 -0.414502
-3.558800 0.958301 -24.201000 -0.090854 -0.333720 -0.938261
-3.288900 0.867101 -24.219200 -0.301645 -0.333720 -0.893094
-4.755300 1.690100 -10.009500 0.388318 0.921049 0.028993
-4.227000 0.980200 -8.281100 -0.424390 0.904080 0.049776
-4.989300 1.795200 -9.528700 0.264748 0.961821 0.069033
-1.813300 0.693901 -23.269400 0.630573 -0.768334 0.109470
-4.361100 1.651001 -21.947100 -0.613239 0.743034 0.267953
-4.397500 1.855801 -22.311300 -0.447096 0.697256 0.560289
-3.463600 2.236501 -24.014400 0.792901 0.413312 -0.447707
-5.427900 1.636900 -10.187600 -0.489822 0.827601 -0.274087
-4.316500 0.454401 -23.055700 -0.455611 -0.883480 0.108829
-3.444300 1.743301 -24.076700 0.954588 0.295907 -0.034364
-2.800200 0.836900 -8.677700 0.611347 0.541887 -0.576678
3 0 1 2
3 3 4 5
3 6 7 8
3 8 9 6
3 10 11 12
3 13 14 15
3 16 17 18
3 19 20 21
3 19 21 22
3 19 22 23
3 24 25 26
3 27 28 2
3 29 30 31
3 31 32 29
3 33 34 35
3 36 33 35
3 37 38 39
3 40 41 42
3 42 43 40
3 44 45 38
3 46 47 48
3 49 50 51
3 45 44 52
3 53 25 54
3 55 56 57
3 21 20 58
3 56 59 60
3 61 62 14
3 63 64 65
3 66 67 68
3 69 70 71
3 72 43 42
3 73 69 74
3 73 74 75
3 76 77 29
3 0 2 65
3 78 79 80
3 16 81 82
3 23 83 84
3 24 85 86
3 87 88 89
3 90 91 92
3 93 94 95
3 96 97 98
3 96 98 99
3 100 101 102
3 103 104 105
3 106 107 91
3 91 90 106
3 92 34 108
3 109 110 49
3 111 63 65
3 64 112 113
3 81 114 115
3 115 82 81
3 115 116 117
3 115 117 118
3 118 82 115
3 119 120 43
3 43 121 119
3 122 15 123
3 32 76 29
3 106 90 124
3 124 125 106
3 126 9 8
3 73 75 33
3 32 127 76
3 128 129 130
3 14 13 131
3 131 61 14
3 132 133 134
3 135 1 136
3 113 0 64
3 130 137 138
3 51 50 139
3 139 93 51
3 140 37 141
3 4 141 142
3 72 143 144
3 144 145 72
3 45 91 107
3 38 45 107
3 146 147 148
3 148 149 146
3 110 109 150
3 105 151 152
3 54 153 138
3 154 155 156
3 156 157 154
3 16 158 159
3 160 154 157
3 157 57 160
3 11 131 161
3 11 161 153
3 162 163 164
3 165 166 71
3 118 117 167
3 167 168 118
3 169 142 170
3 171 99 98
3 99 172 173
3 174 41 103
3 152 174 103
3 175 176 177
3 178 176 18
3 83 179 180
3 181 182 136
3 183 111 184
3 168 167 185
3 185 186 168
3 187 66 188
3 189 142 141
3 100 190 191
3 192 193 149
3 194 8 7
3 195 196 197
3 195 197 198
3 199 200 80
3 199 80 201
3 200 78 80
3 179 202 56
3 159 158 133
3 133 203 159
3 155 204 151
3 61 120 119
3 205 121 145
3 205 145 144
3 144 62 205
3 94 9 126
3 71 124 74
3 72 121 43
3 11 153 86
3 206 207 208
3 164 198 197
3 104 85 209
3 105 210 151
3 211 212 179
3 21 158 16
3 79 213 201
3 201 80 79
3 214 49 110
3 139 215 188
3 216 217 218
3 4 3 219
3 191 190 134
3 134 220 191
3 221 216 222
3 207 223 147
3 147 196 207
3 222 150 224
3 184 65 28
3 28 27 184
3 128 161 64
3 225 114 159
3 20 192 220
3 226 210 105
3 13 227 228
3 100 169 6
3 71 70 165
3 66 187 67
3 200 199 186
3 171 218 99
3 8 194 229
3 230 103 40
3 230 40 10
3 230 10 12
3 168 186 231
3 168 231 178
3 178 118 168
3 58 220 134
3 232 180 225
3 113 233 1
3 111 129 63
3 93 139 30
3 208 207 196
3 7 173 234
3 191 235 236
3 237 23 22
3 222 214 110
3 32 31 195
3 195 198 32
3 52 92 91
3 91 45 52
3 53 138 89
3 156 238 55
3 239 203 76
3 127 239 76
3 26 209 85
3 26 85 24
3 85 12 11
3 217 172 218
3 240 36 5
3 128 64 63
3 167 117 209
3 46 166 165
3 7 6 169
3 227 182 181
3 59 241 155
3 163 232 225
3 163 225 239
3 213 79 183
3 89 138 137
3 94 93 30
3 30 242 94
3 243 92 108
3 222 216 214
3 237 202 23
3 191 149 235
3 214 216 47
3 46 214 47
3 187 244 245
3 67 187 245
3 201 177 231
3 231 199 201
3 78 130 111
3 1 0 113
3 180 114 225
3 58 20 220
3 241 246 136
3 13 247 113
3 229 126 8
3 36 35 3
3 135 248 27
3 27 2 135
3 98 106 125
3 125 48 98
3 165 68 67
3 245 165 67
3 193 164 146
3 149 193 146
3 226 209 117
3 226 117 212
3 211 156 210
3 20 162 192
3 114 81 159
3 161 112 64
3 128 130 138
3 150 229 224
3 33 249 73
3 222 224 221
3 143 122 123
3 123 144 143
3 100 6 101
3 189 141 37
3 50 49 215
3 214 244 49
3 138 153 161
3 138 161 128
3 16 22 21
3 179 238 211
3 210 155 151
3 131 13 112
3 161 131 112
3 235 149 5
3 68 165 70
3 88 185 53
3 250 76 132
3 74 243 108
3 126 95 94
3 205 119 121
3 119 205 61
3 59 202 237
3 19 84 162
3 56 60 160
3 130 78 87
3 137 130 87
3 101 251 250
3 147 223 249
3 7 252 194
3 192 149 191
3 100 236 142
3 125 166 46
3 188 215 187
3 22 16 18
3 183 184 27
3 156 155 210
3 225 159 203
3 18 17 178
3 253 175 177
3 10 131 11
3 252 234 221
3 252 221 224
3 252 224 194
3 33 75 108
3 173 169 170
3 170 96 173
3 172 234 173
3 223 207 68
3 193 162 164
3 120 10 40
3 40 43 120
3 241 136 204
3 16 159 81
3 248 246 253
3 247 228 181
3 103 105 152
3 110 150 222
3 70 69 223
3 101 6 9
3 42 143 72
3 100 102 190
3 71 166 125
3 254 188 66
3 66 208 254
3 167 26 25
3 25 185 167
3 53 89 88
3 136 246 135
3 133 58 134
3 175 253 246
3 246 59 175
3 11 86 85
3 251 242 77
3 77 250 251
3 240 5 148
3 1 135 2
3 255 234 172
3 172 217 255
3 207 206 68
3 164 197 146
3 104 230 12
3 104 12 85
3 17 82 118
3 178 17 118
3 180 232 84
3 84 83 180
3 54 25 24
3 111 65 184
3 95 126 229
3 229 150 95
3 71 125 124
3 100 191 236
3 103 230 104
3 9 251 101
3 240 249 33
3 240 33 36
3 95 51 93
3 92 243 90
3 247 181 233
3 248 253 213
3 162 84 232
3 162 232 163
3 175 237 18
3 175 18 176
3 78 111 79
3 198 164 127
3 198 127 32
3 70 223 68
3 124 90 243
3 74 124 243
3 220 192 191
3 33 108 34
3 76 250 77
3 64 0 65
3 61 205 62
3 56 202 59
3 239 225 203
3 55 238 56
3 88 87 200
3 18 237 22
3 139 50 215
3 48 125 46
3 38 140 44
3 174 256 122
3 143 174 122
3 37 140 38
3 249 223 69
3 69 73 249
3 101 250 102
3 129 111 130
3 160 57 56
3 20 19 162
3 59 237 175
3 15 227 13
3 233 113 247
3 194 224 229
3 75 74 108
3 250 132 102
3 88 186 185
3 255 221 234
3 149 148 5
3 256 174 152
3 231 177 176
3 176 178 231
3 212 116 179
3 115 114 180
3 180 116 115
3 181 136 1
3 233 181 1
3 2 28 65
3 51 95 150
3 150 109 51
3 170 39 97
3 170 97 96
3 140 141 219
3 219 44 140
3 210 226 212
3 210 212 211
3 38 107 97
3 39 38 97
3 52 35 34
3 34 92 52
3 49 51 109
3 214 46 245
3 245 244 214
3 54 138 53
3 182 152 151
3 151 204 182
3 133 132 76
3 203 133 76
3 211 238 156
3 120 61 131
3 131 10 120
3 123 15 14
3 123 14 62
3 68 206 66
3 69 71 74
3 72 145 121
3 3 5 36
3 251 9 94
3 94 242 251
3 113 112 13
3 241 59 246
3 17 16 82
3 23 84 19
3 24 86 54
3 87 89 137
3 219 3 35
3 52 219 35
3 254 139 188
3 189 37 39
3 4 219 141
3 143 42 41
3 143 41 174
3 97 107 106
3 97 106 98
3 148 147 249
3 249 240 148
3 231 186 199
3 213 253 177
3 248 213 183
3 183 27 248
3 58 133 158
3 155 60 59
3 228 227 181
3 7 169 173
3 46 165 245
3 26 167 209
3 63 129 128
3 218 171 48
3 47 218 48
3 172 99 218
3 103 41 40
3 60 155 154
3 154 160 60
3 21 58 158
3 55 157 156
3 177 201 213
3 102 132 134
3 102 134 190
3 196 147 146
3 196 146 197
3 189 39 170
3 235 5 236
3 256 227 15
3 122 256 15
3 7 234 252
3 208 196 195
3 30 139 254
3 254 31 30
3 246 248 135
3 54 86 153
3 179 83 23
3 179 23 202
3 127 164 163
3 163 239 127
3 157 55 57
3 256 152 182
3 182 227 256
3 100 142 169
3 255 217 216
3 200 186 88
3 185 25 53
3 216 221 255
3 173 96 99
3 247 13 228
3 104 226 105
3 117 116 212
3 179 116 180
3 182 204 136
3 183 79 111
3 242 30 29
3 29 77 242
3 254 208 195
3 254 195 31
3 189 170 142
3 4 142 236
3 5 4 236
3 218 47 216
3 49 244 187
3 215 49 187
3 44 219 52
3 200 87 78
3 56 238 179
3 162 193 192
3 155 241 204
3 104 209 226
3 144 123 62
3 206 208 66
3 98 48 171
