ply
format ascii 1.0
comment Created by Blender 2.92.0 - www.blender.org
element vertex 392
property float x
property float y
property float z
property float nx
property float ny
property float nz
element face 744
property list uchar uint vertex_indices
end_header
2.700200 2.600502 -42.297401 -0.700217 -0.441633 -0.560900
3.953600 5.002302 -42.889900 0.511887 0.390942 -0.764916
4.460800 3.407102 -42.301800 0.793298 0.023835 -0.608325
3.799700 -2.484098 -42.059502 -0.135502 0.075808 0.987854
3.737300 -2.044698 -42.238499 -0.694235 0.245308 -0.676595
3.712600 -2.642198 -42.015701 -0.619434 -0.197028 0.759911
4.530800 -4.853298 -42.682301 0.593921 0.096652 0.798669
4.572000 -5.002598 -42.698700 0.687277 -0.129429 0.714743
4.560100 -4.917898 -42.867500 0.637806 0.433485 -0.636586
4.526500 -4.822398 -42.788200 0.731407 0.243629 -0.636921
4.338500 -1.904798 -42.292599 -0.664022 0.265816 -0.698843
4.376300 -2.315698 -42.549301 -0.509354 0.068453 -0.857814
4.296400 -2.500498 -42.088501 -0.739860 -0.321024 0.591174
5.051300 -3.826598 -42.717999 0.792932 0.070986 -0.605121
5.104500 -3.938498 -42.765999 0.803156 0.198584 -0.561663
4.743500 -3.882598 -42.813202 -0.551500 0.010224 -0.834071
4.588200 -3.304498 -42.448002 -0.792047 -0.383892 0.474593
4.654800 -3.647598 -42.466499 -0.716514 -0.294351 0.632405
4.848100 -3.386298 -42.422798 0.530961 -0.029511 0.846858
3.499000 4.376902 -40.089802 0.414350 0.819300 0.396252
3.817000 3.835502 -39.658699 0.466384 0.581408 0.666646
3.817800 3.805302 -40.572899 0.509201 0.617328 -0.599628
3.502100 4.342402 -40.567402 0.505661 0.548631 -0.665792
2.259300 0.829902 -41.980801 -0.766961 0.278512 -0.578051
2.397700 1.073402 -41.932598 -0.280129 0.829371 -0.483352
3.077000 0.009002 -42.192299 0.615650 -0.310556 -0.724204
2.374300 -0.121898 -42.191002 -0.499680 -0.515091 -0.696371
3.356600 -4.181998 -42.659302 0.164861 0.208686 -0.963958
2.906300 -4.350298 -42.583500 -0.831935 0.127659 -0.539933
2.888400 -4.258398 -42.538502 -0.886807 -0.092959 -0.452651
5.421900 -2.308998 -42.771599 0.559496 0.404675 -0.723289
4.914500 -2.310698 -42.727901 -0.778375 0.262886 -0.570086
4.983300 -2.229098 -42.609299 -0.826716 0.267861 -0.494736
4.616100 0.255702 -42.477001 -0.778375 -0.093448 -0.620777
4.906000 1.057002 -42.418999 -0.585284 0.582202 -0.564318
5.383400 0.863702 -42.483898 0.682485 0.323038 -0.655599
5.355600 -0.036698 -42.464600 0.673635 0.182928 -0.716025
4.873700 -0.130498 -42.458801 -0.665548 -0.273446 -0.694418
6.305000 -3.145898 -42.765202 0.557298 0.464003 -0.688528
6.293100 -3.089898 -42.717300 0.563921 0.085086 -0.821406
6.305100 -3.188998 -42.664200 0.831751 -0.287790 0.474685
6.284900 -3.293098 -42.740200 0.798151 -0.437452 0.414167
6.283600 -3.260598 -42.819099 0.561388 0.396496 -0.726341
4.646800 0.331902 -41.725201 0.795282 0.129978 0.592090
4.755200 -0.005198 -42.071899 0.779900 0.205054 -0.591327
4.403000 0.740802 -42.296398 0.321574 0.687246 -0.651326
4.455900 0.673002 -41.581402 0.391583 0.624195 0.676015
2.982200 -4.655498 -42.235500 -0.535997 -0.438581 0.721335
3.596900 -4.364298 -42.337002 0.880520 0.173467 0.441054
3.489600 -4.298298 -42.276299 0.655904 -0.273568 0.703482
3.009800 -4.466998 -42.166698 -0.441694 -0.351695 0.825312
6.101900 -3.276698 -42.635601 -0.712577 -0.422071 0.560381
6.145700 -3.347498 -42.718601 -0.498276 -0.655507 0.567461
5.782400 -4.370998 -42.863602 0.678732 -0.685080 0.264443
5.786500 -4.097498 -42.720600 0.755242 0.049776 0.653523
5.528300 -4.187998 -42.719898 -0.568957 -0.394513 0.721519
5.620700 -4.388498 -42.856400 -0.352763 -0.873775 0.334666
2.973500 0.767002 -40.759998 -0.134861 0.410535 0.901791
3.165500 -0.001498 -40.934700 0.441054 -0.531266 0.723319
3.582300 0.201602 -40.906898 0.045991 -0.770714 0.635487
3.374700 0.879902 -40.751202 -0.275826 0.333476 0.901486
4.470200 3.383902 -41.035198 0.725333 0.059145 0.685812
4.505200 2.158702 -41.297798 0.601123 -0.653981 0.459243
4.477800 2.302002 -42.316799 0.582568 -0.519852 -0.624744
5.441600 -1.780998 -42.946301 -0.641469 -0.242866 -0.727653
5.979700 -1.507398 -42.987900 0.610034 0.311777 -0.728446
5.942500 -1.786698 -42.847099 0.675314 0.000610 -0.737510
5.546000 -1.963398 -42.842899 -0.680960 -0.295419 -0.670034
5.760700 -3.278898 -42.714298 0.861599 -0.002136 -0.507553
5.488800 -2.850298 -42.764301 0.625904 0.209967 -0.751061
5.523800 -2.944698 -42.525101 0.633290 0.087558 0.768914
5.753800 -3.310098 -42.535999 0.750694 -0.141057 0.645375
2.905000 -4.539098 -42.618500 -0.869533 -0.057741 -0.490432
2.928500 1.026402 -41.569801 0.094119 0.943968 -0.316263
2.396800 0.812402 -40.875702 -0.479568 0.567705 0.669088
3.936700 5.139102 -41.155300 0.575732 0.486007 0.657491
3.732300 5.462902 -42.291000 0.330058 0.920194 -0.210334
4.705900 -3.947298 -42.612301 -0.820429 -0.384045 0.423505
5.081000 -3.793598 -42.520401 0.746635 -0.202734 0.633534
4.888100 -4.514698 -42.700001 -0.736412 -0.432234 0.520432
4.829700 -4.433898 -42.664600 -0.787072 -0.361278 0.499954
4.859600 -4.395098 -42.805500 -0.530717 -0.101962 -0.841365
4.908400 -4.483898 -42.800598 -0.596728 0.124393 -0.792718
4.376100 -2.317898 -42.102798 -0.488662 0.110874 0.865383
3.763100 -0.248498 -41.420300 -0.809229 -0.451766 0.375500
4.023900 -0.539198 -41.753101 -0.412275 0.059420 -0.909085
4.285200 -4.946298 -42.878502 -0.723685 0.210761 -0.657125
4.430900 -5.268798 -42.941898 -0.392926 -0.504349 -0.768883
4.297500 -5.033698 -42.704800 -0.678610 -0.352062 0.644581
4.306400 -4.886898 -42.692799 -0.570879 -0.299356 0.764489
4.302100 -4.855998 -42.799999 -0.707480 0.538102 -0.458144
4.172800 -2.791898 -42.484600 0.634175 0.623768 -0.456801
4.267400 -2.825098 -42.611599 0.548112 0.620563 -0.560717
3.811900 -3.054298 -42.656502 -0.682974 0.103519 -0.723045
4.090400 0.611002 -42.101501 0.480880 0.599536 -0.639729
3.329600 1.139302 -41.561001 -0.507706 0.700674 -0.501236
3.552400 1.369902 -41.529900 0.017670 0.972594 -0.231697
3.269100 -0.215098 -41.271500 -0.762200 -0.367534 0.532853
4.156300 -4.429998 -42.507000 -0.671407 -0.293924 0.680258
4.146900 -4.363598 -42.736801 -0.677236 0.008576 -0.735679
4.232700 -4.579498 -42.735901 -0.604999 -0.134007 -0.784845
4.234200 -4.590798 -42.564800 -0.548296 -0.477187 0.686728
3.833800 -3.000998 -42.280201 -0.783685 -0.186651 0.592395
4.294100 -3.015898 -42.187801 0.629292 0.241859 0.738548
4.190500 -2.917498 -42.271500 0.551408 0.408307 0.727439
4.776400 -2.115298 -42.410599 0.779656 0.439283 -0.446181
4.794500 -2.537498 -42.420200 0.847377 0.376629 -0.374248
4.440800 -2.582298 -42.502300 -0.670888 0.393628 -0.628407
3.648400 0.284402 -41.205898 -0.776818 0.315531 0.544908
4.018300 0.342302 -41.116699 0.261574 0.483444 0.835353
3.789500 0.455102 -41.892799 -0.490677 0.537278 -0.685965
3.832900 0.121002 -41.870499 -0.401044 -0.147893 -0.904019
3.715600 -0.032298 -41.290001 -0.735038 -0.412336 0.538163
2.845800 3.695702 -42.744598 -0.608570 0.135838 0.781762
2.829700 3.848602 -40.874901 -0.545030 0.054689 0.836604
2.557800 4.605602 -41.092701 -0.764275 0.179083 0.619495
2.574300 4.452402 -42.885899 -0.692557 0.003021 -0.721335
2.918700 1.024302 -41.638000 0.099734 -0.845790 -0.524064
2.330200 1.040402 -41.700802 -0.354228 -0.733421 -0.580126
2.893000 1.560502 -41.824100 0.278329 0.357707 -0.891385
3.396300 -3.161598 -42.177502 0.784448 0.272835 0.556902
3.466200 -3.262998 -42.157101 0.829371 0.027161 0.558000
3.306100 -3.060498 -42.806801 0.511368 0.272439 -0.814997
3.255600 -2.970098 -42.756699 0.517441 0.226203 -0.825251
4.173700 0.270402 -41.624500 -0.522599 -0.507675 0.684896
4.125900 0.336002 -42.229500 -0.625721 -0.419538 -0.657582
4.320500 0.082502 -41.738800 -0.465102 -0.531938 0.707572
5.735900 -3.899098 -42.688099 0.789453 -0.029359 0.613086
5.751200 -3.950098 -42.771500 0.876461 -0.210669 -0.432875
5.642500 -3.709698 -42.771400 0.621876 0.110996 -0.775170
5.645400 -3.698198 -42.602798 0.618000 -0.225867 0.752983
5.638400 -2.291398 -42.656700 -0.679128 -0.532823 0.504807
5.635600 -2.290398 -42.877499 -0.554704 -0.404157 -0.727256
5.944100 -2.778398 -42.688801 -0.479965 -0.430860 -0.764153
5.889400 -2.778998 -42.598999 -0.775414 -0.374493 0.508347
2.302800 2.907502 -40.938000 -0.818262 0.313791 -0.481613
2.560300 3.108102 -40.925701 -0.473525 0.421155 -0.773522
3.673900 2.947002 -40.945301 0.408185 -0.100375 -0.907346
4.085700 0.576802 -41.565399 -0.656758 0.326273 0.679800
4.032800 0.644502 -42.280499 -0.721641 0.392743 -0.570025
2.814500 -3.252998 -42.018600 -0.196905 -0.193060 0.961211
2.740300 -3.305198 -42.018200 -0.551622 0.024873 0.833705
5.583700 -2.185598 -42.527199 -0.489975 -0.325449 0.808679
5.994700 -1.955898 -42.580299 0.548753 0.296426 0.781640
2.578400 2.143702 -40.099800 -0.530320 -0.791498 0.303720
3.804700 2.090302 -40.106998 0.737480 -0.542955 0.401593
2.657400 2.891502 -39.515301 -0.497696 -0.133580 0.856990
2.380000 2.517902 -39.886501 -0.847682 -0.243355 0.471358
5.292400 -3.166598 -42.599899 -0.785333 -0.127445 0.605762
5.311700 -3.488698 -42.579700 -0.707907 -0.255135 0.658589
2.275800 0.568902 -40.923901 -0.786065 -0.000519 0.618091
3.597500 1.110402 -40.709801 0.095584 0.650502 0.753441
6.102200 -3.090198 -42.661701 -0.411145 -0.480392 -0.774682
6.026700 -3.149698 -42.531898 -0.567949 -0.663472 0.486984
5.428600 -3.957198 -42.842602 -0.674795 -0.153264 -0.721885
5.264800 -1.749298 -42.663898 0.573290 0.441054 -0.690481
5.338000 -2.147598 -42.626301 0.670034 0.408765 -0.619617
4.873200 -1.989698 -42.670300 -0.704459 -0.115116 -0.700308
4.842200 -1.565998 -42.464699 -0.827235 0.069643 -0.557451
5.037900 -1.416398 -42.456501 0.510666 0.437513 -0.740104
2.804700 -3.534298 -42.099701 -0.474044 -0.307260 0.825129
2.648200 -3.452698 -42.582901 -0.811792 -0.252541 -0.526475
2.775700 -3.941298 -42.520500 -0.854427 -0.298746 -0.425031
2.956300 -4.057598 -42.142300 -0.440321 -0.137577 0.887234
3.759800 5.303602 -41.271500 0.177892 0.866085 0.467116
2.911300 5.294702 -42.287701 -0.541459 0.800165 -0.257881
2.938800 5.145302 -41.268501 -0.423780 0.733696 0.531053
4.159400 0.513002 -41.803501 0.550401 0.700308 -0.454482
4.879400 -3.251698 -42.654099 0.744621 0.155644 -0.649037
4.895400 -2.693498 -42.564701 0.778314 0.395245 -0.487838
4.826100 -2.878198 -42.227001 0.552843 -0.129368 0.823176
4.058900 -3.736598 -42.405800 -0.613849 -0.304605 0.728263
4.069700 -4.229498 -42.469299 -0.650838 -0.441847 0.617328
4.476500 -4.230198 -42.481300 0.728874 -0.051790 0.682669
4.489200 -4.160298 -42.676399 0.817377 0.134190 -0.560198
4.422200 -4.510898 -42.714699 0.639576 0.187262 -0.745537
3.787800 -0.286098 -41.312901 0.803552 -0.170629 0.570208
3.728900 -0.628398 -41.697102 0.587298 0.224891 -0.777459
3.704200 0.080802 -41.769798 0.688742 0.035920 -0.724082
4.038900 -3.595098 -42.639099 -0.642109 -0.073611 -0.763024
3.838600 -3.244998 -42.232700 -0.694479 -0.251137 0.674245
3.816100 -2.875498 -42.493198 -0.803461 0.095126 -0.587664
4.595300 -5.234098 -42.937302 0.642506 -0.255562 -0.722373
3.281100 0.175602 -41.087898 -0.601001 0.306681 0.738029
3.726100 -0.071698 -41.176899 0.680258 -0.180303 0.710410
3.658800 0.249802 -41.082001 0.472457 0.512772 0.716788
5.070400 -4.167198 -42.772900 0.729911 -0.055147 -0.681295
5.068900 -4.004398 -42.549000 0.580126 -0.066805 0.811762
5.029400 -4.180898 -42.610298 0.486740 -0.130650 0.863704
5.043600 -3.873798 -42.571701 0.662099 -0.216803 0.717338
3.979500 3.095702 -40.945999 0.551469 -0.213263 -0.806452
3.120400 0.257902 -41.744400 0.890316 -0.114414 -0.440687
3.452200 -4.247598 -42.753899 0.437910 0.530320 -0.725913
5.480800 -2.423098 -42.331299 0.707297 0.126408 0.695517
4.879700 -0.132698 -41.994301 -0.482925 -0.502548 0.717063
4.624000 0.252802 -41.866100 -0.689322 -0.114017 0.715384
6.147800 -3.314998 -42.794102 -0.793939 0.364544 -0.486557
6.111900 -3.499398 -42.947899 -0.590197 -0.335551 -0.734153
6.116200 -3.525198 -42.878399 -0.500412 -0.833461 0.234291
3.410200 -2.640698 -42.033100 0.881863 0.085360 0.463668
5.361000 -0.038698 -42.049301 0.719260 -0.068514 0.691336
5.389700 0.861302 -41.996399 0.723472 0.328471 0.607135
5.688100 -3.396998 -42.584202 0.697623 -0.400952 0.593738
2.276600 1.084302 -40.996498 -0.620930 -0.547960 0.560503
2.464600 1.977002 -41.408199 0.110324 0.933561 0.340983
2.071700 1.859902 -41.406700 -0.704489 0.580401 0.408338
3.511900 2.287302 -42.311501 -0.133549 -0.681082 -0.719901
6.315300 -2.988798 -42.745701 0.619068 0.116794 -0.776574
6.176900 -3.122798 -42.657398 -0.606677 -0.056215 -0.792932
5.098700 1.132502 -42.421101 0.126835 0.830653 -0.542100
3.425400 -4.106498 -42.690201 0.606952 -0.017701 -0.794519
3.564000 -4.223198 -42.273399 0.921415 -0.111118 0.372295
3.537200 0.461002 -41.716702 -0.456191 -0.418500 -0.785302
4.165800 3.281402 -39.521400 0.714316 0.018830 0.699545
4.125900 3.496702 -40.739498 0.744560 0.374950 -0.552263
5.086900 -3.728998 -42.722401 0.801447 0.170385 -0.573229
4.246800 -4.818698 -42.662498 -0.639637 -0.467391 0.610218
4.546400 -4.755498 -42.699200 0.856166 -0.005493 0.516617
4.253700 -4.865898 -42.747002 -0.148595 -0.865841 -0.477706
5.154600 -4.422998 -42.701401 0.931486 -0.260994 -0.253304
5.121800 -4.430998 -42.763302 0.385601 0.901334 -0.197211
4.178200 -2.693298 -42.048801 0.655660 -0.138707 0.742180
3.984000 -2.098298 -42.263401 0.681478 0.481246 -0.551317
4.046500 -2.537698 -42.084301 0.257790 0.231483 0.938047
4.141500 -4.241398 -42.674801 -0.561632 -0.157842 -0.812189
4.364200 -3.920798 -42.513802 0.806024 0.265816 0.528794
4.273300 -3.563698 -42.366600 0.713858 -0.156438 0.682577
4.411400 -2.701798 -42.291199 -0.767846 -0.159581 0.620411
4.765100 -2.656998 -42.209099 0.612568 -0.114139 0.782098
2.613100 -3.059998 -42.544498 -0.890011 0.103366 -0.444044
2.505300 -2.840298 -42.698200 -0.775597 -0.142338 -0.614948
2.097600 1.327102 -41.670300 -0.765343 -0.290323 -0.574358
2.054400 1.372902 -41.244598 -0.912778 -0.119755 0.390423
2.078500 1.861802 -41.694000 -0.710654 0.463759 -0.529008
2.538000 -3.112298 -42.545799 -0.896786 0.340617 -0.282296
4.932500 -2.100198 -42.185799 -0.522843 -0.336650 0.783105
5.022200 -2.312098 -42.384899 -0.637837 0.237312 0.732658
5.502100 -4.136098 -42.900600 -0.745659 0.031495 -0.665548
5.759500 -4.043498 -42.901901 0.563891 0.472518 -0.677267
5.773300 -4.355498 -42.930401 0.564379 -0.430006 -0.704642
5.611500 -4.375998 -42.923302 -0.450911 -0.625080 -0.637135
6.124500 -3.233498 -42.728901 -0.819666 0.333934 -0.465407
4.980900 -1.924098 -42.242001 -0.344340 0.203955 0.916410
5.324100 -1.859798 -42.179298 0.624409 0.287362 0.726279
5.176600 -1.774498 -42.233799 0.432508 0.431318 0.791742
4.597800 1.831302 -41.239300 0.419691 0.488540 0.764946
4.239000 1.765502 -41.240601 0.084109 0.406842 0.909604
4.521600 0.733202 -41.746799 0.371441 -0.876949 0.304880
5.699900 -3.517598 -42.570801 0.714682 -0.075137 0.695364
4.072600 0.669902 -41.741901 -0.209143 -0.934080 0.289346
3.539400 2.144002 -41.292500 -0.108127 -0.866421 0.487442
6.024000 -1.860298 -42.879700 0.661275 0.440077 -0.607440
5.542400 -2.089798 -42.866100 -0.775658 -0.076418 -0.626484
5.682900 -3.374298 -42.720299 0.693197 -0.066012 -0.717704
5.701000 -3.487898 -42.779701 0.711966 0.102634 -0.694632
5.291800 -3.457498 -42.794300 -0.705741 -0.201788 -0.679098
4.429000 -0.254598 -42.085499 -0.730979 -0.218207 -0.646535
3.170000 -2.192498 -42.441502 0.550584 0.528031 -0.646504
3.316700 -2.546998 -41.974701 0.711539 0.074557 0.698630
2.465300 1.979602 -41.786800 0.118625 0.749962 -0.650716
2.424600 3.791702 -40.565201 -0.851955 0.201209 -0.483352
5.161700 -4.586998 -42.669998 0.603351 -0.010743 0.797388
5.186400 -4.502698 -42.836700 0.725669 0.427503 -0.539048
5.101500 -4.461698 -42.662498 0.430738 -0.308939 0.847926
4.253300 -3.422198 -42.599899 0.725242 0.113224 -0.679098
4.355100 -3.855398 -42.725399 0.578906 0.235542 -0.780602
3.298600 1.708202 -41.533901 0.460433 0.824641 -0.328532
3.361200 1.511702 -41.954201 0.115848 0.195776 -0.973754
3.285100 1.102902 -41.639500 0.603992 -0.608600 -0.514573
5.703900 -3.969298 -42.827801 0.242317 0.891690 -0.382244
5.489300 -4.036498 -42.829899 -0.733238 -0.076357 -0.675619
3.685600 -2.449398 -42.483898 -0.718436 0.162755 -0.676260
4.151200 -2.500498 -42.516998 0.647114 0.288461 -0.705679
4.599400 -5.263798 -42.874001 0.698813 -0.679495 0.223334
4.435000 -5.298498 -42.878201 -0.335307 -0.922178 0.192724
4.832400 -4.190498 -42.636299 -0.759270 -0.275796 0.589404
4.873400 -4.176898 -42.794899 -0.446669 -0.142003 -0.883328
2.645300 4.146802 -40.563999 -0.525132 0.524583 -0.670064
2.651500 4.180002 -40.086300 -0.599200 0.728599 0.331736
3.208200 4.501802 -40.373402 -0.068789 0.993408 0.091494
3.212900 4.465902 -40.564899 -0.038789 0.726585 -0.685965
2.668600 -2.589398 -41.814602 -0.570879 -0.242256 0.784448
2.646900 -1.664998 -41.477600 -0.495071 -0.382397 0.780145
2.520600 -1.754398 -42.164902 -0.852504 -0.010743 -0.522568
2.518100 -2.234598 -42.272598 -0.914060 0.191473 -0.357494
3.057800 -4.982598 -42.754200 -0.800897 -0.129612 -0.584582
3.112200 -4.926098 -42.445099 -0.464431 -0.506974 0.726127
5.237700 -2.890998 -42.506901 -0.582995 -0.470107 0.662618
5.193800 -2.796598 -42.752998 -0.665548 -0.229102 -0.710288
5.273100 -3.135398 -42.816299 -0.619770 -0.080325 -0.780633
5.522000 -1.970998 -42.407501 -0.415418 -0.583636 0.697684
5.440700 -1.604498 -42.502998 -0.717887 -0.186407 0.670675
5.412100 -1.540898 -42.837200 -0.790765 0.043519 -0.610553
6.278800 -3.465598 -42.892200 0.743065 -0.657552 0.124149
6.272700 -3.439798 -42.961700 0.489822 -0.055940 -0.869991
5.103600 1.130702 -42.040298 0.143223 0.818720 0.555986
4.137700 0.348902 -40.896702 0.695151 0.163305 0.700034
3.720900 0.145802 -40.924500 -0.104129 -0.876400 0.470168
4.181300 0.200002 -40.930801 0.704337 -0.562639 0.432752
5.446200 -3.721298 -42.598400 -0.530625 -0.350597 0.771691
2.890400 1.601302 -40.668499 -0.180944 0.578326 0.795465
2.916000 1.066502 -40.672199 -0.101047 -0.681021 0.725211
3.282700 1.145102 -40.673801 0.593249 -0.476211 0.649037
3.737900 2.479502 -41.111599 0.688620 -0.079409 -0.720725
3.370500 1.801002 -40.392700 0.093844 -0.994018 0.055635
3.317600 2.112702 -41.091999 0.057680 -0.674795 -0.735710
5.782600 -1.396298 -42.506302 0.606342 0.358745 0.709647
6.060100 -1.696398 -42.413101 0.760826 -0.026765 0.648366
5.753900 -1.332698 -42.840599 0.395245 0.618000 -0.679556
3.300000 -3.901898 -42.661301 0.455000 0.067019 -0.887936
3.544100 1.397202 -42.393101 -0.459243 -0.480026 -0.747398
4.193500 2.018802 -42.348598 -0.050935 0.785730 -0.616413
4.478200 0.984002 -42.484798 0.286386 -0.540788 -0.790887
4.029200 0.920702 -42.479900 -0.271645 -0.583605 -0.765221
3.425000 -0.526298 -41.655499 -0.675130 -0.051180 -0.735893
4.126900 -4.293598 -42.520302 -0.687460 -0.547319 0.477248
4.327300 -2.826898 -42.307701 -0.867061 -0.113468 0.485092
4.396700 -2.642198 -42.645401 -0.570757 0.448653 -0.687674
4.619600 -3.169898 -42.679298 -0.467208 -0.116276 -0.876461
4.577900 -2.188198 -42.043098 0.328929 0.170751 0.928770
4.202400 -0.010698 -41.262600 0.685934 -0.110050 0.719260
3.283800 -3.410898 -42.762501 0.478622 -0.157109 -0.863826
5.498600 -4.050098 -42.719002 -0.579638 -0.405744 0.706626
6.219600 -2.817298 -42.603401 0.714499 0.348827 0.606433
6.314100 -3.048398 -42.584499 0.784173 -0.040925 0.619160
2.511700 2.532902 -41.104401 -0.539079 -0.280740 -0.794061
4.910900 1.055102 -42.038200 -0.559130 0.610096 0.561357
2.709600 2.577202 -41.030899 -0.656667 -0.448256 0.606464
5.969700 -1.849698 -42.627102 0.929014 -0.246803 0.275643
3.587700 -5.232298 -42.625500 0.732047 -0.651570 0.198798
3.536400 -4.794498 -42.510101 0.864254 -0.179968 0.469710
3.196300 -5.298398 -42.545898 -0.308267 -0.856166 0.414655
3.482500 -4.850998 -42.819199 0.522446 0.184973 -0.832331
3.521900 -5.101798 -42.855400 0.516068 -0.263100 -0.815119
3.130500 -5.167898 -42.775799 -0.563891 -0.532304 -0.631367
3.135000 -1.606198 -42.289902 0.553850 0.106296 -0.825800
4.540300 -1.775098 -42.213902 0.728538 0.463363 -0.504471
4.055500 -4.163998 -42.681099 -0.718589 -0.264901 -0.642964
5.123100 -4.380698 -42.618801 0.593371 -0.061495 0.802545
2.561100 3.822602 -39.729900 -0.676199 0.323557 0.661855
2.748600 -3.047598 -41.855801 -0.376873 -0.430403 0.820154
5.573200 -2.026398 -42.622799 -0.822962 -0.359508 0.439833
3.740900 2.557502 -39.893902 0.555254 -0.517258 0.651234
6.136100 -3.163298 -42.557701 -0.103885 -0.717307 0.688925
6.291300 -3.130198 -42.625999 0.792657 -0.353038 0.496963
3.000700 -4.375098 -42.121601 -0.427992 -0.225623 0.875149
4.046500 2.706202 -39.894501 0.677480 -0.688375 0.259041
6.184800 -2.814498 -42.690201 0.471206 0.122562 -0.873440
3.589300 1.144202 -41.341900 -0.353404 -0.713950 0.604419
4.695100 -3.584398 -42.674099 -0.667379 0.033967 -0.743919
4.541100 -4.715098 -42.792900 0.655904 0.305582 -0.690176
4.423600 -4.522198 -42.547901 0.635090 -0.250679 0.730583
4.696400 -2.300098 -42.003502 0.503861 0.125095 0.854640
3.233700 -2.499398 -42.814201 0.448225 0.373638 -0.812037
3.340100 2.118602 -42.135899 -0.590320 0.773766 -0.229713
3.331600 1.601402 -42.439701 -0.671163 -0.142430 -0.727470
3.377500 1.347602 -41.260300 -0.641774 -0.438643 0.629017
3.384900 1.866102 -41.156200 -0.502731 0.460952 0.731254
3.397600 -3.491898 -42.259800 0.866085 -0.220923 0.448408
3.413100 -4.018198 -42.283100 0.757439 0.293924 0.582965
5.376900 -2.230598 -42.402000 0.783715 0.272103 0.558306
4.973300 -2.424798 -42.287498 -0.648762 -0.017396 0.760765
5.170900 -4.863798 -42.747398 0.558763 -0.689932 0.460158
4.904800 -4.660598 -42.722301 -0.801324 -0.325236 0.502060
5.010300 -4.893898 -42.781502 -0.427412 -0.872158 0.237983
3.634500 0.419202 -41.784000 0.434156 0.738670 -0.515580
4.134000 0.462002 -42.135601 0.660634 -0.321085 -0.678518
3.673600 0.407902 -42.129299 -0.592639 -0.185614 -0.783746
5.713300 -3.982898 -42.717499 0.588061 -0.177160 0.789148
4.847300 1.359802 -42.482399 0.733940 -0.029603 -0.678518
4.892000 1.107402 -41.502701 0.733757 -0.356670 0.578234
5.443300 -3.732698 -42.768200 -0.698965 -0.064882 -0.712180
2.360500 -0.806098 -42.140202 -0.830592 -0.053255 -0.554308
3.118300 -0.463198 -42.309601 0.552080 0.398114 -0.732566
4.929500 -4.578698 -42.887199 -0.529954 0.112400 -0.840510
5.180100 -4.835098 -42.810799 0.745445 -0.408551 -0.526627
5.019600 -4.865098 -42.844799 -0.287118 -0.590838 -0.753929
3.256900 0.345002 -41.789902 -0.645619 0.518632 -0.560472
3.360300 1.403302 -40.907101 0.986480 -0.006378 0.163610
3.295300 1.747502 -40.867001 0.472884 0.807184 0.353221
4.257200 -0.344498 -41.648399 0.845119 0.158208 -0.510575
3.269000 -1.589798 -41.617199 0.830958 -0.254128 0.494858
4.552300 2.084702 -42.347301 0.371563 0.811640 -0.450697
5.440300 -3.971998 -42.686298 -0.674001 -0.402539 0.619404
2.583500 -1.219498 -41.266899 -0.529984 -0.390088 0.752922
3.378800 -0.877898 -41.313099 0.860378 0.038362 0.508194
3.036200 -0.537698 -41.099998 0.362102 0.510269 0.780023
2.554900 -0.698598 -41.030800 -0.492752 0.170263 0.853328
2.796900 -0.122398 -42.159401 0.076876 0.904843 -0.418714
2.357200 -0.382998 -41.134201 -0.528886 -0.768883 0.359233
3.115600 -0.253098 -40.987499 0.542711 -0.674764 0.500137
2.336500 -0.283298 -42.090199 -0.745842 0.570330 -0.344096
3 0 1 2
3 3 4 5
3 6 7 8
3 8 9 6
3 10 11 12
3 13 14 15
3 16 17 18
3 19 20 21
3 21 22 19
3 23 24 25
3 25 26 23
3 27 28 29
3 30 31 32
3 33 34 35
3 33 35 36
3 36 37 33
3 38 39 40
3 38 40 41
3 41 42 38
3 43 44 45
3 43 45 46
3 47 48 49
3 50 47 49
3 41 40 51
3 51 52 41
3 53 54 55
3 55 56 53
3 57 58 59
3 60 57 59
3 2 61 62
3 62 63 2
3 64 65 66
3 66 67 64
3 68 69 70
3 71 68 70
3 47 50 28
3 28 72 47
3 73 24 74
3 57 73 74
3 75 1 76
3 17 77 78
3 79 80 81
3 81 82 79
3 83 84 85
3 85 10 83
3 86 87 88
3 86 88 89
3 89 90 86
3 91 92 93
3 94 95 96
3 4 3 97
3 98 99 100
3 98 100 101
3 102 103 104
3 11 105 106
3 11 10 105
3 106 107 11
3 108 109 110
3 108 110 111
3 108 111 112
3 113 114 115
3 113 0 114
3 115 116 113
3 117 118 119
3 120 121 122
3 122 123 120
3 124 125 126
3 127 128 129
3 127 129 130
3 131 132 133
3 131 133 134
3 135 136 137
3 138 139 125
3 138 125 124
3 140 141 121
3 142 131 143
3 144 145 146
3 146 147 144
3 148 149 70
3 57 74 150
3 151 96 95
3 151 95 60
3 152 153 134
3 134 133 152
3 129 128 154
3 155 156 157
3 155 157 158
3 159 155 158
3 160 161 162
3 160 162 163
3 73 57 60
3 60 95 73
3 164 76 165
3 164 165 166
3 109 167 110
3 168 169 170
3 18 168 170
3 171 172 173
3 99 174 175
3 175 100 99
3 176 177 178
3 0 113 116
3 93 179 180
3 93 180 102
3 102 181 93
3 87 86 8
3 8 182 87
3 183 97 184
3 183 184 185
3 186 14 187
3 188 186 187
3 77 189 78
3 136 190 137
3 73 191 25
3 48 192 27
3 48 27 49
3 69 30 193
3 70 69 193
3 194 195 33
3 33 37 194
3 196 197 198
3 52 196 198
3 45 139 138
3 46 45 138
3 140 120 199
3 200 201 195
3 195 194 200
3 138 124 46
3 149 202 71
3 203 204 205
3 206 0 2
3 206 2 63
3 207 39 208
3 35 209 201
3 35 201 200
3 200 36 35
3 156 32 157
3 27 210 211
3 49 27 211
3 191 73 212
3 191 212 59
3 58 191 59
3 20 213 214
3 77 187 189
3 13 215 78
3 189 13 78
3 216 89 217
3 216 218 90
3 92 91 104
3 219 220 82
3 221 222 223
3 174 99 224
3 171 225 226
3 215 168 18
3 78 215 18
3 12 227 228
3 123 229 230
3 231 232 205
3 205 233 231
3 141 234 161
3 141 161 160
3 235 157 32
3 235 32 236
3 237 238 239
3 239 240 237
3 241 208 38
3 241 38 42
3 42 196 241
3 45 44 125
3 45 125 139
3 242 235 243
3 242 243 244
3 245 246 247
3 149 248 202
3 249 247 246
3 63 62 250
3 250 206 63
3 251 252 67
3 66 251 67
3 253 254 255
3 44 256 125
3 199 257 258
3 204 259 233
3 204 233 205
3 260 22 21
3 261 262 220
3 261 220 263
3 107 106 169
3 176 97 3
3 3 223 176
3 264 265 179
3 266 267 268
3 128 269 270
3 181 271 272
3 272 91 181
3 273 274 87
3 87 182 273
3 83 10 12
3 81 80 275
3 275 276 81
3 187 77 275
3 275 188 187
3 277 278 279
3 279 280 277
3 281 282 283
3 283 284 281
3 72 285 286
3 47 72 286
3 287 288 289
3 287 289 148
3 64 290 291
3 291 292 64
3 42 41 293
3 293 294 42
3 201 209 295
3 244 43 126
3 126 242 244
3 296 151 60
3 296 60 59
3 296 59 297
3 297 298 296
3 248 149 299
3 299 130 248
3 300 301 302
3 303 145 304
3 304 305 303
3 306 307 65
3 65 308 306
3 288 31 30
3 30 69 288
3 309 210 29
3 309 29 162
3 310 311 312
3 312 313 310
3 75 76 164
3 17 78 18
3 276 15 14
3 14 186 276
3 7 88 274
3 274 273 7
3 216 90 89
3 5 271 181
3 5 181 102
3 0 116 1
3 97 314 4
3 218 100 175
3 172 315 173
3 316 317 318
3 316 318 16
3 319 320 84
3 84 83 319
3 115 166 165
3 259 118 231
3 231 233 259
3 161 234 122
3 122 321 161
3 256 44 159
3 159 158 256
3 270 237 55
3 322 270 55
3 323 324 207
3 325 135 137
3 325 137 303
3 33 195 326
3 326 34 33
3 124 126 43
3 61 327 250
3 62 61 250
3 142 143 328
3 329 330 286
3 286 331 329
3 166 115 75
3 75 164 166
3 135 147 146
3 308 65 64
3 308 64 292
3 68 253 255
3 285 332 333
3 333 334 285
3 283 335 257
3 257 284 283
3 117 301 203
3 203 118 117
3 136 260 214
3 136 214 190
3 219 81 276
3 336 105 10
3 5 104 221
3 171 179 337
3 171 337 172
3 61 115 114
3 266 268 119
3 224 99 98
3 5 102 104
3 227 317 316
3 263 219 338
3 20 19 339
3 118 203 232
3 232 231 118
3 340 230 229
3 340 229 140
3 244 159 44
3 129 254 248
3 130 129 248
3 252 142 341
3 341 67 252
3 137 342 145
3 145 303 137
3 300 204 203
3 235 236 243
3 324 153 343
3 343 344 324
3 51 40 344
3 49 211 345
3 345 50 49
3 146 342 346
3 303 305 325
3 207 347 323
3 56 240 239
3 56 239 53
3 244 243 155
3 29 345 163
3 163 162 29
3 249 348 310
3 310 313 249
3 165 116 115
3 170 316 16
3 16 18 170
3 168 349 318
3 89 6 217
3 175 350 218
3 222 272 271
3 222 271 4
3 350 9 90
3 221 272 222
3 175 351 217
3 217 350 175
3 351 173 98
3 98 101 351
3 189 187 14
3 14 13 189
3 228 352 12
3 230 353 123
3 354 355 356
3 357 354 356
3 309 321 358
3 359 309 358
3 360 193 30
3 30 156 360
3 291 194 37
3 37 292 291
3 294 197 196
3 42 294 196
3 209 35 34
3 287 148 70
3 326 195 201
3 326 201 295
3 193 361 287
3 193 360 361
3 287 70 193
3 278 339 19
3 19 279 278
3 144 325 305
3 144 305 304
3 66 65 307
3 328 66 307
3 289 69 68
3 68 255 289
3 334 333 329
3 331 334 329
3 199 353 257
3 268 117 119
3 362 261 363
3 363 364 362
3 263 220 219
3 106 105 352
3 228 106 352
3 178 365 185
3 184 178 185
3 264 92 103
3 226 264 103
3 94 366 367
3 223 177 176
3 175 174 173
3 351 175 173
3 89 88 7
3 89 7 6
3 349 168 215
3 320 167 109
3 165 76 1
3 212 73 95
3 162 161 321
3 321 309 162
3 156 155 243
3 360 156 243
3 54 238 269
3 54 269 368
3 152 133 347
3 347 207 152
3 369 370 247
3 247 312 369
3 141 160 358
3 134 323 143
3 323 134 153
3 153 324 323
3 340 199 258
3 296 298 366
3 366 94 296
3 132 251 347
3 347 133 132
3 371 255 254
3 254 129 371
3 332 330 329
3 332 192 330
3 329 333 332
3 372 373 335
3 335 283 372
3 136 146 339
3 339 260 136
3 108 112 109
3 374 262 375
3 375 376 374
3 12 11 107
3 12 107 227
3 183 377 97
3 265 264 226
3 225 265 226
3 302 378 379
3 61 75 115
3 174 265 225
3 173 174 225
3 97 176 184
3 85 380 336
3 336 10 85
3 82 374 363
3 79 82 363
3 355 354 311
3 268 302 301
3 301 117 268
3 335 381 258
3 258 257 335
3 331 286 285
3 285 334 331
3 68 71 202
3 202 253 68
3 66 328 143
3 293 198 197
3 197 294 293
3 246 245 382
3 382 311 246
3 205 232 203
3 368 127 383
3 383 322 368
3 384 385 386
3 386 387 384
3 299 371 383
3 299 383 127
3 299 127 130
3 340 140 199
3 373 388 386
3 373 372 388
3 385 373 386
3 39 38 208
3 56 55 237
3 237 240 56
3 361 236 32
3 29 210 27
3 24 73 25
3 214 213 346
3 227 316 170
3 227 170 228
3 215 13 15
3 101 216 217
3 8 86 90
3 9 8 90
3 91 272 221
3 104 91 221
3 219 82 81
3 4 314 177
3 177 222 4
3 217 6 9
3 9 350 217
3 101 217 351
3 77 17 349
3 349 15 77
3 112 84 320
3 346 190 214
3 74 24 23
3 74 23 150
3 359 211 210
3 210 309 359
3 32 31 361
3 368 128 127
3 39 207 324
3 344 39 324
3 382 245 370
3 370 369 382
3 150 389 390
3 150 390 58
3 150 58 57
3 149 71 70
3 145 342 146
3 200 194 291
3 291 306 200
3 381 385 384
3 384 282 381
3 212 367 297
3 52 51 241
3 241 196 52
3 341 290 64
3 64 67 341
3 69 289 288
3 27 192 28
3 384 372 283
3 384 283 282
3 279 19 22
3 22 280 279
3 260 21 214
3 338 219 186
3 338 186 188
3 111 85 84
3 183 185 365
3 365 377 183
3 180 179 171
3 94 367 212
3 379 300 302
3 265 337 179
3 377 314 97
3 228 170 169
3 169 106 228
3 167 380 110
3 112 320 109
3 260 339 278
3 278 277 260
3 284 230 340
3 281 284 340
3 242 126 256
3 256 158 242
3 383 154 270
3 383 270 322
3 343 153 152
3 152 208 343
3 369 312 311
3 369 311 382
3 358 160 163
3 163 359 358
3 52 198 293
3 52 293 41
3 290 307 306
3 291 290 306
3 281 258 381
3 282 281 381
3 367 366 298
3 297 367 298
3 323 347 251
3 368 269 128
3 242 158 235
3 321 122 121
3 358 321 121
3 249 313 312
3 249 312 247
3 114 0 327
3 320 380 167
3 16 318 349
3 16 349 17
3 315 98 173
3 337 224 315
3 223 222 177
3 350 90 218
3 4 271 5
3 100 218 216
3 101 100 216
3 380 85 111
3 215 15 349
3 83 12 352
3 83 352 319
3 116 165 1
3 25 390 389
3 25 191 390
3 389 26 25
3 50 345 29
3 29 28 50
3 32 156 30
3 239 238 54
3 53 239 54
3 51 343 208
3 208 241 51
3 387 386 391
3 387 391 372
3 387 372 384
3 141 358 121
3 131 134 143
3 328 307 290
3 290 341 328
3 281 340 258
3 296 94 96
3 296 96 151
3 131 142 252
3 252 132 131
3 248 254 253
3 248 253 202
3 330 192 48
3 390 191 58
3 346 342 137
3 137 190 346
3 80 338 188
3 275 80 188
3 220 262 374
3 220 374 82
3 105 336 319
3 88 87 274
3 93 181 91
3 61 114 327
3 268 267 378
3 302 268 378
3 174 224 337
3 102 180 103
3 319 352 105
3 376 375 362
3 364 376 362
3 310 355 311
3 118 259 119
3 353 230 284
3 257 353 284
3 125 256 126
3 149 255 371
3 149 371 299
3 143 251 66
3 144 147 135
3 135 325 144
3 386 388 391
3 140 121 120
3 344 343 51
3 144 304 145
3 236 360 243
3 203 301 300
3 250 327 0
3 0 206 250
3 251 132 252
3 129 154 371
3 44 43 244
3 122 234 229
3 123 122 229
3 356 355 310
3 356 310 348
3 2 1 75
3 61 2 75
3 363 374 376
3 363 376 364
3 227 107 317
3 171 173 225
3 98 315 224
3 176 178 184
3 94 212 95
3 93 92 264
3 264 179 93
3 178 314 377
3 365 178 377
3 380 320 319
3 319 336 380
3 186 219 276
3 263 338 80
3 80 79 263
3 22 260 277
3 277 280 22
3 335 373 385
3 381 335 385
3 72 192 332
3 332 285 72
3 148 289 255
3 148 255 149
3 36 200 306
3 306 308 36
3 146 136 135
3 326 295 209
3 209 34 326
3 345 211 359
3 163 345 359
3 341 142 328
3 124 43 46
3 236 361 360
3 346 213 146
3 297 59 212
3 207 208 152
3 308 292 37
3 36 308 37
3 361 31 288
3 361 288 287
3 192 72 28
3 150 23 26
3 150 26 389
3 214 21 20
3 79 363 261
3 79 261 263
3 77 15 276
3 77 276 275
3 84 112 111
3 182 8 7
3 273 182 7
3 103 92 104
3 128 270 154
3 178 177 314
3 265 174 337
3 5 221 223
3 3 5 223
3 318 317 169
3 169 168 318
3 380 111 110
3 146 213 20
3 20 339 146
3 204 300 119
3 119 259 204
3 123 353 199
3 120 123 199
3 155 159 244
3 269 238 237
3 269 237 270
3 40 39 344
3 372 391 388
3 330 48 47
3 47 286 330
3 245 247 370
3 55 54 368
3 322 55 368
3 246 348 249
3 266 119 300
3 379 266 300
3 251 143 323
3 371 154 383
3 158 157 235
3 229 234 141
3 140 229 141
3 246 311 354
3 246 354 357
3 348 246 357
3 357 356 348
3 375 262 261
3 362 375 261
3 169 317 107
3 226 103 180
3 180 171 226
3 315 172 337
3 378 267 266
3 378 266 379
