ply
format ascii 1.0
comment Created by Blender 2.92.0 - www.blender.org
element vertex 229
property float x
property float y
property float z
property float nx
property float ny
property float nz
element face 450
property list uchar uint vertex_indices
end_header
9.239500 4.394900 -0.535900 -0.619282 0.715293 -0.323679
9.084000 4.451500 -0.075300 -0.697623 0.705313 -0.125736
9.779600 4.570200 -0.105300 0.282479 0.952483 -0.113804
9.814700 4.474700 -0.493300 0.389752 0.893002 -0.224982
9.581300 3.111000 -0.313700 0.072054 -0.700095 0.710379
9.794000 3.127100 -0.517000 0.510086 -0.852229 0.116092
9.821500 3.402600 -0.380100 0.576128 -0.243233 0.780297
9.247900 3.901900 -1.112000 -0.911954 0.352428 -0.209937
9.412500 4.317900 -1.098500 -0.544633 0.785028 -0.295053
9.556000 4.180300 -1.672000 -0.442427 0.856746 -0.264962
10.278700 2.255001 -8.896500 0.663503 0.716605 -0.214911
10.124900 2.332601 -8.933300 0.417096 0.863948 -0.282083
10.073200 2.400100 -8.599000 0.395093 0.914212 -0.089846
10.319400 2.131500 -8.501200 0.937651 0.040193 0.345164
10.175200 2.304200 -8.093400 0.966002 0.177496 0.187811
10.065600 2.045901 -8.193900 0.319407 -0.866756 0.382977
10.171000 1.923100 -8.512400 0.305429 -0.789270 0.532670
10.224500 1.731800 -8.736400 0.296823 -0.862087 0.410657
9.847700 1.802100 -8.884600 -0.637257 -0.749718 0.178259
9.876000 2.406200 -9.006900 0.097507 0.972900 -0.209571
9.829900 2.309601 -9.279900 -0.274361 0.467391 -0.840358
9.734700 2.375800 -9.011400 -0.579577 0.780023 -0.235786
9.050000 3.992900 -0.379600 -0.851192 0.387616 -0.353801
9.141600 3.925000 -0.524500 -0.780450 0.406812 -0.474685
9.605600 3.880800 -0.161400 0.110508 -0.709983 0.695456
9.228300 3.863100 -0.270100 -0.309763 -0.732688 0.605945
9.088500 4.354800 0.345500 -0.701895 0.536760 0.468154
9.329300 4.169300 0.604000 -0.172491 0.334147 0.926572
9.385100 4.521200 0.312900 -0.236335 0.817743 0.524766
9.525800 2.583100 -7.076300 -0.925871 0.353923 -0.132267
9.587500 2.230900 -7.775000 -0.835231 -0.549821 -0.005097
9.532300 2.343700 -7.037400 -0.809351 -0.584246 0.059847
10.079800 3.533700 -1.710800 0.676351 -0.732017 0.081606
9.632200 3.379100 -1.678600 -0.015442 -0.998291 0.056154
9.687600 2.802700 -4.403700 -0.380963 -0.902066 0.202765
9.887000 2.763700 -4.334300 0.374676 -0.902188 0.213538
9.726300 2.273600 -7.020600 -0.047334 -0.985198 0.164647
9.856700 2.197300 -9.133000 0.045869 -0.837947 -0.543779
9.793900 2.208400 -9.219600 -0.527970 -0.596667 -0.604297
10.089200 2.168500 -9.312200 0.635548 -0.306833 -0.708426
10.142500 2.192501 -9.116100 0.429121 0.286233 -0.856655
9.822200 4.335400 -1.027700 0.390515 0.895138 -0.214881
9.644800 2.205700 -8.343000 -0.903531 -0.421979 -0.074160
9.747700 2.121201 -8.295600 -0.575457 -0.815271 0.064364
10.017200 3.557400 -0.752800 0.904508 -0.371227 0.209845
10.070300 3.536900 -1.073900 0.755211 -0.655080 0.022217
10.137400 3.677500 -1.063300 0.993774 -0.012452 0.110569
10.233000 2.140200 -9.091300 0.532640 0.513840 -0.672475
10.440500 1.921600 -9.075400 0.779229 -0.209082 -0.590777
9.493700 4.460200 0.376400 0.016358 0.654256 0.756066
9.632600 4.475100 0.354400 0.261391 0.647359 0.715903
9.735200 3.226100 -0.776200 0.133488 -0.909055 -0.394635
9.898400 3.259900 -0.724500 0.745079 -0.534806 -0.398511
9.342700 3.420300 -0.996500 -0.252235 -0.926237 -0.280007
9.419700 3.222300 -0.592300 -0.093966 -0.908933 -0.406171
9.643500 4.003300 0.003600 0.199805 -0.948943 0.243965
9.255200 3.974400 0.048800 -0.215918 -0.965453 0.145756
9.484000 4.611800 0.167600 -0.149205 0.977386 0.149632
9.789900 2.483600 -8.321600 -0.247414 0.952239 -0.178838
9.666000 2.390701 -8.337600 -0.850063 0.513352 -0.117405
9.415500 2.981400 -4.366600 -0.906308 -0.418531 0.058290
9.808900 2.723700 -7.057800 0.272988 0.942289 -0.193762
9.747400 3.432300 -4.349000 0.240211 0.931333 -0.273598
10.003800 2.543100 -7.037100 0.972137 0.233833 0.014985
9.754800 2.065201 -8.631000 -0.829463 -0.540483 0.140812
9.865100 1.971300 -8.563400 -0.463454 -0.823664 0.326701
9.840700 2.080700 -8.262600 -0.320750 -0.921934 0.217048
8.808100 3.635300 -0.609300 -0.940336 0.104282 -0.323832
8.820000 3.687600 -0.463400 -0.851680 0.120792 0.509903
9.639900 2.263901 -8.683000 -0.998413 -0.019837 -0.052187
9.200500 3.981200 0.590500 -0.483413 -0.533799 0.693777
9.581000 3.897100 0.407400 0.219123 -0.937193 0.271340
9.552200 4.120300 0.598800 0.291635 -0.028504 0.956084
9.931800 1.733700 -9.010100 -0.348552 -0.800836 -0.486984
9.761300 2.024400 -9.063300 -0.548875 -0.392224 -0.738121
10.258200 1.732900 -9.031500 0.332774 -0.778436 -0.532243
9.955100 4.427000 -0.146400 0.861293 0.481246 -0.162908
9.659600 2.251900 -9.005200 -0.967406 0.090152 -0.236579
9.033900 3.297900 -0.674300 -0.402020 -0.750603 -0.524308
9.722100 1.999900 -8.955500 -0.906919 -0.405408 -0.114414
9.925100 2.334700 -7.010700 0.666738 -0.725822 0.169012
9.982900 3.078100 -4.307200 0.967284 0.240974 -0.078951
9.989700 4.073700 -1.634000 0.849940 0.512467 -0.122288
10.025800 4.377700 0.154200 0.822138 0.533525 0.198553
9.179700 3.637300 -0.460500 -0.162236 -0.232643 0.958922
9.931700 3.904100 -0.576200 0.933866 0.352092 0.062593
10.060200 3.853600 -1.065300 0.926389 0.364635 0.093936
9.930300 4.215000 -1.042600 0.875301 0.483169 -0.018036
10.194600 2.301501 -8.540300 0.717673 0.695181 0.040315
9.028700 3.948400 -0.307200 -0.903623 -0.236335 0.357189
8.860600 3.288900 -0.576500 -0.871029 -0.455061 -0.184942
9.202900 3.106100 -0.395300 -0.272500 -0.843074 0.463607
9.446400 3.194700 -4.374100 -0.908811 0.396741 -0.129002
9.543900 3.310900 -4.389200 -0.627766 0.748283 -0.214331
9.631000 2.686600 -7.089900 -0.456038 0.863277 -0.216193
10.078500 4.171300 0.369400 0.817072 -0.098086 0.568102
8.963100 4.099500 0.064600 -0.935911 -0.335002 0.108585
9.344000 3.845200 -1.676400 -0.897092 0.409040 -0.166936
9.950600 3.641700 -0.467600 0.845302 -0.225471 0.484329
9.999500 2.475101 -8.255700 0.405316 0.908994 -0.096835
9.718100 2.395801 -8.699900 -0.608570 0.789880 -0.075564
9.259000 3.529900 -1.694100 -0.904355 -0.417463 -0.088290
9.867100 4.192400 -1.590800 0.376141 0.901852 -0.212500
10.140300 3.655900 -1.688600 0.989868 0.120151 -0.075350
10.054500 3.770500 -1.673200 0.906003 0.410321 -0.103824
10.453400 2.024900 -8.812700 0.987121 0.025269 0.157933
9.939600 3.872700 -0.324900 0.863247 -0.326853 0.384594
9.115100 3.515500 -1.101400 -0.854396 -0.362133 -0.372600
9.641600 4.610700 0.147300 0.198889 0.958098 0.206091
8.974300 3.456600 -0.855200 -0.839290 -0.198157 -0.506211
9.889000 4.362700 -0.508600 0.933714 0.337870 -0.118229
9.744800 2.152101 -9.117100 -0.566485 -0.441237 -0.695944
9.812300 2.424001 -8.713900 -0.079165 0.992096 -0.097201
9.684900 3.306400 -1.061300 0.077090 -0.975921 -0.203925
8.999300 4.129000 0.222400 -0.916562 -0.293344 0.271737
9.975100 2.931100 -4.326800 0.963683 -0.264779 0.034547
9.237000 3.220600 -0.562100 -0.057894 -0.852321 -0.519791
9.228700 3.982400 0.162300 -0.362529 -0.931913 0.010102
9.815200 4.491500 0.227200 0.494919 0.708121 0.503555
10.035600 4.079600 0.066900 0.811731 -0.580584 0.063051
9.592200 0.324600 -8.431300 -0.633656 -0.652638 0.415326
9.488500 0.818900 -8.831500 -0.694876 -0.159062 -0.701285
9.570300 0.333200 -8.722700 -0.772240 -0.600879 -0.206244
10.306200 0.773200 -7.772500 0.810511 -0.573656 0.118107
10.128600 0.612800 -7.694800 0.484756 -0.858913 0.165075
10.055900 0.482200 -8.155800 0.528459 -0.829707 0.179632
10.249400 0.611700 -8.228300 0.697928 -0.710654 0.088412
10.054200 1.725900 -5.616300 -0.580401 0.788629 -0.202857
10.031200 1.578100 -6.999600 -0.158666 0.987243 -0.011841
9.882800 1.019700 -6.910700 -0.969817 -0.206397 0.129673
10.507600 3.196900 0.217500 0.553362 -0.212165 0.805414
10.547200 3.144300 0.039100 0.847957 -0.529405 -0.025880
10.571900 3.523100 -0.042900 0.942564 0.290353 -0.164953
9.621400 1.569100 -8.789900 -0.121586 0.960540 -0.250099
9.519900 1.502000 -8.908500 -0.475784 0.648061 -0.594623
9.622400 1.551100 -8.651600 -0.533799 0.783990 0.316782
9.646700 3.351600 -0.143800 -0.905881 -0.127323 -0.403882
9.849200 3.512200 -0.347100 -0.728538 0.510208 -0.457015
9.768900 3.292400 -0.282200 -0.863216 -0.260750 -0.432234
10.090400 1.365500 -8.934600 0.364818 0.510697 -0.778497
10.143000 0.921300 -8.998900 0.390027 0.038484 -0.919980
10.462900 1.892900 -3.243400 0.923734 -0.359081 0.133152
10.277600 1.804800 -3.136800 0.098209 -0.926633 0.362804
10.243900 1.364900 -4.403000 -0.167669 -0.947783 0.271218
10.434500 2.701400 -1.545300 0.933744 -0.306223 0.185186
10.443500 1.451500 -4.468100 0.913358 -0.396985 0.090335
9.683200 2.800000 -1.734100 -0.911069 0.243873 -0.332286
9.492800 2.907000 -1.197100 -0.996948 -0.047914 -0.061586
9.597100 3.098400 -1.132800 -0.770074 0.625751 -0.124058
10.309300 1.286300 -8.709800 0.902707 0.302683 -0.305734
9.911400 0.225100 -9.057300 0.531877 -0.784570 -0.318583
10.080700 0.464600 -8.952500 0.814325 -0.371776 -0.445631
9.992400 0.322700 -8.538900 0.519272 -0.842524 0.142979
10.402700 0.830300 -8.222800 0.987487 -0.152959 0.037782
10.324400 0.692300 -8.775600 0.886990 -0.304788 -0.346812
9.876300 3.367000 -0.705100 -0.847041 0.526780 -0.070650
9.913100 3.009000 -0.203300 -0.553148 -0.832057 -0.040895
10.086100 0.760500 -6.911200 -0.206519 -0.945982 0.249886
10.307900 0.866100 -6.949200 0.838313 -0.536912 0.094302
9.990100 3.718600 -0.224800 -0.174627 0.813807 -0.554247
9.957900 3.808600 -0.032900 -0.309305 0.943480 0.118961
10.343900 3.786600 -0.063500 0.456710 0.822565 -0.338755
9.578300 0.613300 -8.900100 -0.656270 -0.018220 -0.754265
9.716200 0.282000 -8.832900 -0.504166 -0.862880 -0.034883
9.600700 3.371200 0.041000 -0.965545 -0.041108 0.256844
9.865800 3.071300 0.202000 -0.428541 -0.566637 0.703726
9.764900 3.405100 0.184500 -0.287973 0.211676 0.933927
9.913300 0.345400 -9.131800 0.472213 0.031129 -0.880917
9.800900 0.201700 -9.059600 -0.290475 -0.917692 -0.270913
10.368400 3.142800 -1.200000 0.847011 0.481002 -0.226203
10.225500 3.423900 -0.946200 0.485153 0.820887 -0.301218
10.366500 3.251800 -0.867200 0.938414 0.315806 -0.139958
9.388400 1.301900 -8.887200 -0.915922 0.150273 -0.372082
9.453800 0.732800 -8.679300 -0.991333 -0.065981 0.113498
10.102500 2.841000 -0.708400 0.250526 -0.914457 0.317789
10.097800 2.681800 -1.062300 0.214820 -0.891201 0.399457
10.404000 2.917900 -1.107300 0.928892 -0.319773 0.186651
10.369100 3.026100 -0.762900 0.883297 -0.452162 0.123630
9.902800 3.145700 0.217800 -0.097293 0.036836 0.994568
10.362000 1.701200 -4.522100 0.882046 0.441145 -0.165319
10.376300 2.246800 -3.337500 0.864406 0.466781 -0.186682
10.027600 3.097200 -1.771000 -0.092654 0.880001 -0.465835
10.005300 3.423200 -1.177300 -0.122745 0.936491 -0.328440
10.386500 2.935800 -1.639300 0.818354 0.532975 -0.214850
10.315400 1.067200 -6.956000 0.986328 0.162236 -0.028138
9.898300 0.440100 -8.058900 -0.282846 -0.865535 0.413251
9.473500 0.520400 -8.629600 -0.690268 -0.651875 -0.313913
9.726500 0.818100 -8.040400 -0.940916 -0.124058 0.315073
9.831900 1.509000 -8.173500 -0.538041 0.816370 0.209845
10.075200 2.036400 -4.605900 -0.254402 0.917325 -0.306162
10.129200 2.503800 -3.324800 -0.242805 0.909207 -0.338176
10.235600 1.496400 -8.569900 0.652730 0.754997 -0.062319
10.173200 1.466000 -8.229700 0.634144 0.768883 0.081515
9.861700 2.985100 -0.010200 -0.524155 -0.850459 0.043886
9.999100 0.531700 -9.024700 0.291543 0.178594 -0.939695
9.826900 0.296700 -9.161300 -0.071535 -0.172399 -0.982421
10.316500 3.809400 0.068500 0.290170 0.807947 0.512803
10.006100 3.681000 0.093100 -0.178930 0.491409 0.852321
10.159800 2.512700 -1.448200 0.191198 -0.902890 0.384960
9.618500 2.751300 -1.141400 -0.585681 -0.779687 0.221351
9.725700 2.608000 -1.647800 -0.750053 -0.655293 0.089206
10.282000 1.124700 -7.796100 0.921506 0.387768 0.019776
10.226900 1.298900 -6.985500 0.881588 0.468886 -0.053774
10.219900 0.569700 -8.717600 0.675497 -0.737083 -0.019837
10.011300 2.078700 -3.199300 -0.997955 -0.004639 -0.063417
9.986100 1.644900 -4.498000 -0.969604 -0.232582 0.075777
10.499100 3.556200 0.109300 0.593921 0.373455 0.712546
9.780900 3.585200 -0.223400 -0.673177 0.533891 -0.511643
9.709800 3.643100 -0.003200 -0.735038 0.651753 0.186743
9.732300 2.870200 -0.762700 -0.604083 -0.653829 0.455550
10.184400 3.016500 -0.193600 0.338359 -0.934782 -0.107944
10.059900 1.901300 -3.157700 -0.743584 -0.641163 0.189611
10.005300 3.617100 -0.351500 -0.203436 0.862056 -0.464125
10.294100 3.635000 -0.241000 0.438032 0.729209 -0.525651
10.008400 3.432100 -0.960700 -0.323130 0.934477 -0.149297
9.656300 3.147300 -0.853500 -0.867336 0.427656 0.254524
9.560100 2.945000 -0.978100 -0.919095 -0.093783 0.382641
9.781200 3.234300 -1.164900 -0.625172 0.742332 -0.240944
9.756800 0.328300 -8.500000 0.051943 -0.982971 0.176183
10.410600 3.180000 -0.222200 0.830897 -0.518784 -0.201056
10.466700 3.458500 -0.203600 0.863613 0.233100 -0.447005
10.210700 3.044600 0.225600 0.122074 -0.513260 0.849483
9.837900 3.588100 0.106300 -0.223518 0.451643 0.863704
10.208800 2.933000 -0.002700 0.219001 -0.975433 0.023499
9.712100 0.341100 -9.103300 -0.714652 -0.048921 -0.697745
10.164800 3.689100 0.106700 -0.030244 0.285318 0.957945
9.953300 0.575100 -7.681500 -0.412427 -0.854060 0.316935
9.904700 1.497500 -7.810600 -0.984069 -0.047914 0.171148
9.787300 0.893700 -7.683200 -0.973785 -0.125889 0.189398
3 0 1 2
3 0 2 3
3 4 5 6
3 7 8 9
3 10 11 12
3 13 14 15
3 16 13 15
3 17 16 18
3 19 20 21
3 22 0 23
3 6 24 25
3 26 27 28
3 29 30 31
3 32 33 34
3 35 34 36
3 37 38 39
3 40 37 39
3 8 0 3
3 3 41 8
3 30 42 43
3 44 45 46
3 40 47 48
3 28 49 50
3 51 52 5
3 53 51 54
3 24 55 56
3 57 1 26
3 26 28 57
3 58 59 29
3 60 34 33
3 61 62 63
3 43 64 65
3 65 66 43
3 22 67 68
3 69 42 59
3 70 71 72
3 73 74 40
3 40 48 75
3 40 75 73
3 3 2 76
3 77 20 38
3 68 67 78
3 79 74 73
3 80 35 36
3 34 35 32
3 81 62 82
3 72 83 50
3 72 50 49
3 27 72 49
3 25 84 6
3 22 1 0
3 44 52 51
3 16 65 18
3 85 86 87
3 12 88 10
3 89 68 84
3 68 90 91
3 92 93 94
3 29 92 94
3 95 83 72
3 96 1 22
3 89 96 22
3 70 27 26
3 7 9 97
3 6 5 52
3 6 52 44
3 98 6 44
3 99 61 14
3 99 14 88
3 88 12 99
3 33 32 45
3 77 69 100
3 21 77 100
3 69 64 43
3 90 78 91
3 29 31 60
3 101 97 92
3 92 60 101
3 102 62 9
3 61 93 62
3 84 68 91
3 23 0 8
3 45 44 51
3 103 104 86
3 105 17 75
3 75 48 105
3 106 55 24
3 23 7 107
3 2 1 57
3 20 19 11
3 36 34 31
3 54 51 5
3 4 54 5
3 63 80 15
3 39 38 20
3 57 108 2
3 107 109 23
3 72 27 70
3 37 40 74
3 3 76 110
3 77 38 111
3 56 96 89
3 56 89 25
3 73 18 79
3 61 94 93
3 62 93 9
3 104 81 82
3 84 91 4
3 64 79 18
3 42 69 43
3 59 58 112
3 113 33 45
3 17 18 73
3 44 106 98
3 67 109 78
3 114 70 26
3 71 95 72
3 115 103 32
3 32 35 115
3 80 115 35
3 20 40 39
3 84 25 89
3 79 77 111
3 111 74 79
3 87 110 85
3 13 105 10
3 10 88 13
3 106 46 85
3 78 109 107
3 98 24 6
3 27 49 28
3 80 81 115
3 91 116 54
3 66 15 80
3 26 1 96
3 96 114 26
3 70 114 117
3 109 67 22
3 55 95 71
3 87 3 110
3 65 16 15
3 65 15 66
3 59 100 69
3 117 96 56
3 78 116 91
3 62 81 63
3 82 62 102
3 94 58 29
3 50 83 118
3 25 24 56
3 117 114 96
3 21 20 77
3 45 32 103
3 45 103 46
3 16 17 105
3 105 13 16
3 46 106 44
3 53 101 33
3 113 53 33
3 116 78 53
3 119 106 76
3 66 80 36
3 91 54 4
3 30 29 59
3 59 42 30
3 95 119 83
3 98 106 24
3 107 53 78
3 46 86 85
3 10 105 48
3 82 87 86
3 82 102 87
3 86 104 82
3 64 77 79
3 8 41 102
3 8 102 9
3 37 74 111
3 36 31 30
3 30 43 66
3 30 66 36
3 97 9 93
3 93 92 97
3 71 117 56
3 112 12 11
3 101 53 107
3 110 76 106
3 75 17 73
3 102 41 87
3 59 112 100
3 78 90 68
3 18 65 64
3 80 63 81
3 103 115 104
3 61 99 94
3 50 118 108
3 117 71 70
3 22 23 109
3 55 119 95
3 87 41 3
3 13 88 14
3 106 119 55
3 53 113 51
3 54 116 53
3 83 119 76
3 15 14 63
3 101 60 33
3 34 60 31
3 11 40 20
3 68 89 22
3 21 100 112
3 112 19 21
3 57 28 50
3 50 108 57
3 40 11 10
3 10 47 40
3 46 103 86
3 51 113 45
3 23 8 7
3 84 4 6
3 118 2 108
3 99 58 94
3 115 81 104
3 29 60 92
3 38 37 111
3 12 112 58
3 12 58 99
3 101 107 7
3 97 101 7
3 2 118 83
3 83 76 2
3 48 47 10
3 110 106 85
3 64 69 77
3 19 112 11
3 55 71 56
3 63 14 61
3 120 121 122
3 123 124 125
3 125 126 123
3 127 128 129
3 130 131 132
3 133 134 135
3 136 137 138
3 134 139 140
3 141 142 143
3 141 144 142
3 145 141 143
3 146 147 148
3 140 139 149
3 150 151 152
3 149 153 154
3 155 156 138
3 145 143 157
3 158 145 157
3 159 160 161
3 162 163 122
3 164 165 166
3 151 150 167
3 150 152 168
3 169 170 171
3 151 125 152
3 172 121 173
3 174 175 176
3 176 177 174
3 152 163 168
3 172 140 121
3 165 178 166
3 122 121 162
3 179 180 141
3 141 145 179
3 181 182 169
3 169 183 181
3 184 158 123
3 120 185 186
3 172 173 135
3 135 173 187
3 187 188 135
3 189 190 180
3 179 189 180
3 171 177 176
3 171 176 169
3 191 135 188
3 191 188 192
3 138 193 136
3 194 167 195
3 196 160 197
3 198 199 200
3 184 153 201
3 201 202 184
3 202 127 189
3 125 151 203
3 203 126 125
3 204 190 189
3 189 205 204
3 132 206 130
3 207 136 208
3 207 208 160
3 160 159 207
3 136 207 137
3 140 172 134
3 185 125 124
3 156 209 174
3 174 210 156
3 205 143 211
3 203 151 154
3 128 202 201
3 212 213 170
3 214 212 170
3 142 198 200
3 142 200 211
3 140 154 194
3 215 216 209
3 216 215 148
3 148 147 216
3 167 194 151
3 181 190 204
3 217 155 214
3 182 217 214
3 218 185 120
3 149 192 153
3 199 146 200
3 132 131 219
3 219 220 132
3 140 194 121
3 178 221 222
3 222 166 178
3 193 223 221
3 221 165 193
3 221 223 131
3 131 130 221
3 146 199 147
3 123 153 184
3 191 192 149
3 135 134 172
3 137 212 214
3 127 129 205
3 189 127 205
3 206 132 196
3 207 159 212
3 207 212 137
3 164 208 136
3 224 162 194
3 194 195 224
3 225 196 197
3 215 155 217
3 148 215 217
3 143 142 211
3 185 187 173
3 171 170 213
3 213 220 171
3 195 168 224
3 159 161 213
3 159 213 212
3 223 156 210
3 193 165 164
3 124 158 157
3 226 185 124
3 144 183 176
3 144 176 175
3 198 144 175
3 211 204 205
3 133 135 191
3 192 128 201
3 177 171 220
3 181 183 180
3 185 218 152
3 166 222 208
3 224 168 163
3 154 140 149
3 204 146 181
3 128 227 228
3 228 129 128
3 133 191 134
3 181 146 217
3 182 181 217
3 217 146 148
3 219 131 223
3 210 219 223
3 226 124 157
3 222 221 225
3 225 197 222
3 191 139 134
3 196 225 206
3 215 156 155
3 226 157 228
3 120 186 121
3 202 189 184
3 214 155 137
3 144 141 180
3 144 180 183
3 154 153 126
3 203 154 126
3 199 209 216
3 199 175 209
3 216 147 199
3 173 121 186
3 151 194 154
3 163 218 120
3 210 174 177
3 219 210 177
3 186 185 173
3 139 191 149
3 155 138 137
3 198 142 144
3 213 161 132
3 220 213 132
3 223 193 156
3 164 136 193
3 124 123 158
3 195 167 150
3 170 169 182
3 192 201 153
3 188 227 128
3 227 188 187
3 227 187 228
3 220 219 177
3 181 180 190
3 152 125 185
3 166 208 164
3 224 163 162
3 196 161 160
3 204 211 200
3 200 146 204
3 126 153 123
3 188 128 192
3 129 157 143
3 143 205 129
3 145 158 184
3 184 179 145
3 169 176 183
3 221 178 165
3 206 225 221
3 221 130 206
3 160 208 222
3 222 197 160
3 218 163 152
3 215 209 156
3 157 129 228
3 202 128 127
3 189 179 184
3 182 214 170
3 150 168 195
3 132 161 196
3 174 209 175
3 138 156 193
3 162 121 194
3 122 163 120
3 198 175 199
3 187 185 226
3 226 228 187
