ply
format ascii 1.0
comment Created by Blender 2.92.0 - www.blender.org
element vertex 228
property float x
property float y
property float z
property float nx
property float ny
property float nz
element face 448
property list uchar uint vertex_indices
end_header
-9.734700 4.180300 -1.672000 0.411481 0.861080 -0.298563
-9.722600 3.310900 -4.389200 0.627705 0.752495 -0.199194
-10.045800 4.192400 -1.590800 -0.372417 0.901456 -0.220527
-9.926200 3.432300 -4.349000 -0.238868 0.939970 -0.243690
-9.809700 2.686600 -7.089900 0.464583 0.861232 -0.205847
-9.987600 2.723700 -7.057800 -0.289346 0.940245 -0.179327
-9.900800 1.999900 -8.955500 0.906949 -0.405347 -0.114322
-10.110500 1.733700 -9.010100 0.348643 -0.800836 -0.486892
-9.940000 2.024400 -9.063300 0.548875 -0.392224 -0.738121
-9.209800 3.948400 -0.307200 0.902707 -0.237739 0.358562
-9.145500 4.099500 0.064600 0.926450 -0.352794 0.131199
-9.435100 3.974400 0.048800 0.237831 -0.957518 0.162908
-9.408000 3.863100 -0.270100 0.285745 -0.751152 0.595050
-10.249000 3.536900 -1.073900 -0.755211 -0.655080 0.022217
-9.863600 3.306400 -1.061300 -0.097964 -0.967040 -0.234993
-9.913900 3.226100 -0.776200 -0.178198 -0.912442 -0.368267
-10.233200 3.770500 -1.673200 -0.905728 0.412580 -0.097049
-10.319000 3.655900 -1.688600 -0.990997 0.125217 -0.047060
-10.316100 3.677500 -1.063300 -0.995209 -0.004028 0.097507
-10.457400 2.255001 -8.896500 -0.651723 0.730918 -0.202399
-10.303700 2.332601 -8.933300 -0.429609 0.864254 -0.261574
-10.321200 2.192501 -9.116100 -0.429151 0.286142 -0.856685
-10.411700 2.140200 -9.091300 -0.532640 0.513840 -0.672475
-9.784300 3.880800 -0.161400 -0.066225 -0.739006 0.670400
-10.214300 4.079600 0.066900 -0.817896 -0.570910 0.071200
-10.118300 3.872700 -0.324900 -0.868740 -0.331065 0.368267
-9.598500 3.222300 -0.592300 0.128330 -0.928587 -0.348155
-9.822200 4.003300 0.003600 -0.166875 -0.945585 0.279275
-9.268400 4.354800 0.345500 0.704215 0.534776 0.466933
-9.263700 4.451500 -0.075300 0.701804 0.699088 -0.136784
-9.662800 4.611800 0.167600 0.149602 0.977355 0.149602
-9.563800 4.521200 0.312900 0.237434 0.817866 0.524094
-9.704500 2.583100 -7.076300 0.928404 0.350536 -0.123112
-9.844700 2.390701 -8.337600 0.867672 0.476485 -0.141606
-10.178200 2.475101 -8.255700 -0.413617 0.904355 -0.105014
-10.353900 2.304200 -8.093400 -0.967101 0.184057 0.175451
-10.182500 2.543100 -7.037100 -0.968291 0.248512 0.025239
-9.759700 3.897100 0.407400 -0.218909 -0.937254 0.271249
-10.251900 2.400100 -8.599000 -0.415265 0.903470 -0.105991
-9.991000 2.424001 -8.713900 0.062960 0.990844 -0.119175
-9.293800 3.515500 -1.101400 0.812799 -0.401044 -0.422437
-9.521400 3.420300 -0.996500 0.270821 -0.917325 -0.291757
-9.437700 3.529900 -1.694100 0.906278 -0.414350 -0.083193
-10.129300 3.641700 -0.467600 -0.846858 -0.211676 0.487838
-10.195900 3.557400 -0.752800 -0.906857 -0.368267 0.204871
-10.026500 1.802100 -8.884600 0.643330 -0.747856 0.163671
-10.403200 1.731800 -8.736400 -0.316965 -0.863521 0.392193
-10.168400 4.073700 -1.634000 -0.852229 0.506455 -0.131046
-10.109000 4.215000 -1.042600 -0.873226 0.487075 -0.013306
-10.000900 4.335400 -1.027700 -0.397931 0.894284 -0.204566
-9.896900 2.395801 -8.699900 0.649495 0.756157 -0.079409
-9.968600 2.483600 -8.321600 0.238105 0.955168 -0.175817
-9.926400 2.121201 -8.295600 0.575457 -0.815271 0.064364
-9.818600 2.263901 -8.683000 0.999725 0.020875 0.007385
-9.823500 2.205700 -8.343000 0.911130 -0.398297 -0.105594
-9.923500 2.152101 -9.117100 0.566698 -0.440992 -0.695914
-10.035400 2.197300 -9.133000 -0.045869 -0.837947 -0.543779
-9.972600 2.208400 -9.219600 0.528123 -0.596606 -0.604236
-10.153800 2.931100 -4.326800 -0.961119 -0.273507 0.037812
-10.161600 3.078100 -4.307200 -0.961791 0.259499 -0.087039
-10.103800 2.334700 -7.010700 -0.668813 -0.717399 0.194891
-10.204500 4.377700 0.154200 -0.822138 0.533525 0.198553
-10.257200 4.171300 0.369400 -0.817072 -0.098086 0.568102
-9.212900 3.297900 -0.674300 0.403882 -0.749901 -0.523881
-8.989200 3.635300 -0.609300 0.948424 0.090426 -0.303751
-9.002100 3.687600 -0.463400 0.849849 0.119785 0.513199
-9.993900 4.491500 0.227200 -0.494919 0.708121 0.503555
-9.958300 4.570200 -0.105300 -0.282418 0.952483 -0.113804
-10.436900 1.732900 -9.031500 -0.332713 -0.778436 -0.532243
-10.133800 4.427000 -0.146400 -0.861293 0.481246 -0.162908
-10.067700 4.362700 -0.508600 -0.929380 0.344554 -0.132176
-9.838400 2.251900 -9.005200 0.967437 0.090152 -0.236457
-9.933500 2.065201 -8.631000 0.829432 -0.540513 0.140751
-10.054700 2.406200 -9.006900 -0.097446 0.972900 -0.209571
-9.905000 2.273600 -7.020600 0.067049 -0.979675 0.188940
-10.019400 2.080700 -8.262600 0.328410 -0.922941 0.200659
-9.766200 2.230900 -7.775000 0.835231 -0.549821 -0.005097
-9.711000 2.343700 -7.037400 0.808893 -0.583697 0.070315
-9.866300 2.802700 -4.403700 0.390484 -0.903867 0.174718
-9.594200 2.981400 -4.366600 0.908750 -0.415296 0.040620
-10.043800 1.971300 -8.563400 0.483108 -0.806787 0.340129
-9.181100 4.129000 0.222400 0.915799 -0.314463 0.249733
-9.408800 3.982400 0.162300 0.409040 -0.911985 -0.030183
-10.258500 3.533700 -1.710800 -0.681600 -0.726096 0.090243
-10.632200 2.024900 -8.812700 -0.987121 0.025300 0.157872
-10.349700 1.923100 -8.512400 -0.323985 -0.768090 0.552293
-10.498100 2.131500 -8.501200 -0.937620 0.040254 0.345256
-9.153200 3.456600 -0.855200 0.846126 -0.241859 -0.474929
-9.321100 3.925000 -0.524500 0.776208 0.460402 -0.430677
-9.230500 3.992900 -0.379600 0.776757 0.491623 -0.393597
-9.380100 3.981200 0.590500 0.484359 -0.533952 0.692984
-10.244300 2.045901 -8.193900 -0.336741 -0.871212 0.357158
-9.760000 3.111000 -0.313700 -0.055696 -0.704733 0.707236
-9.415700 3.220600 -0.562100 0.015839 -0.873897 -0.485824
-9.820300 4.610700 0.147300 -0.198889 0.958098 0.206091
-9.381700 3.106100 -0.395300 0.228614 -0.861873 0.452620
-9.359200 3.637300 -0.460500 0.145238 -0.223792 0.963744
-9.426700 3.901900 -1.112000 0.913114 0.337443 -0.228706
-9.591200 4.317900 -1.098500 0.514786 0.804559 -0.296030
-9.418300 4.394900 -0.535900 0.636586 0.717124 -0.283608
-9.993400 4.474700 -0.493300 -0.393170 0.889737 -0.231849
-10.373300 2.301501 -8.540300 -0.712394 0.701437 0.020631
-9.972700 3.127100 -0.517000 -0.495315 -0.860744 0.117313
-10.077100 3.259900 -0.724500 -0.735496 -0.535874 -0.414533
-9.730900 4.120300 0.598800 -0.291757 -0.028413 0.956053
-9.811300 4.475100 0.354400 -0.261422 0.647359 0.715934
-9.810900 3.379100 -1.678600 0.019044 -0.997223 0.071932
-9.913400 2.375800 -9.011400 0.579852 0.779839 -0.235725
-9.625100 3.194700 -4.374100 0.909421 0.394360 -0.131932
-9.672400 4.460200 0.376400 -0.016358 0.654256 0.756066
-9.508200 4.169300 0.604000 0.173437 0.334086 0.926420
-9.522700 3.845200 -1.676400 0.901547 0.390576 -0.186132
-10.619200 1.921600 -9.075400 -0.779168 -0.209052 -0.590899
-10.110400 3.904100 -0.576200 -0.933866 0.352092 0.062593
-10.008600 2.309601 -9.279900 0.274453 0.467360 -0.840358
-10.065700 2.763700 -4.334300 -0.396252 -0.901089 0.176031
-10.000200 3.402600 -0.380100 -0.537400 -0.229560 0.811457
-10.267900 2.168500 -9.312200 -0.635548 -0.306833 -0.708426
-9.040600 3.288900 -0.576500 0.872372 -0.452925 -0.183752
-10.238900 3.853600 -1.065300 -0.930174 0.357250 0.084262
-10.351900 1.466000 -8.229700 -0.626240 0.775018 0.084506
-10.460700 1.124700 -7.796100 -0.937559 0.347789 0.002136
-10.405600 1.298900 -6.985500 -0.889248 0.454482 -0.051210
-10.545200 3.251800 -0.867200 -0.941710 0.311686 -0.126469
-10.547800 3.026100 -0.762900 -0.889706 -0.435774 0.135868
-10.589300 3.180000 -0.222200 -0.832942 -0.506760 -0.222175
-10.307900 2.503800 -3.324800 0.257271 0.893918 -0.366955
-10.555000 2.246800 -3.337500 -0.867214 0.458235 -0.194769
-10.565200 2.935800 -1.639300 -0.821863 0.532273 -0.202948
-10.171100 0.322700 -8.538900 -0.519272 -0.842524 0.142979
-9.935500 0.328300 -8.500000 -0.051912 -0.982971 0.176183
-10.077000 0.440100 -8.058900 0.263771 -0.862331 0.432142
-9.888500 3.643100 -0.003200 0.735038 0.651753 0.186743
-10.016600 3.588100 0.106300 0.299844 0.523270 0.797632
-9.943600 3.405100 0.184500 0.376965 0.191076 0.906278
-9.775800 3.098400 -1.132800 0.770074 0.625751 -0.124058
-9.835000 3.147300 -0.853500 0.867336 0.427656 0.254524
-9.738800 2.945000 -0.978100 0.919095 -0.093783 0.382641
-9.671500 2.907000 -1.197100 0.996948 -0.047914 -0.061586
-10.503100 0.692300 -8.775600 -0.886990 -0.304788 -0.346812
-10.177800 0.531700 -9.024700 -0.291543 0.178625 -0.939695
-10.259400 0.464600 -8.952500 -0.814325 -0.371746 -0.445631
-9.890800 0.341100 -9.103300 0.714652 -0.048891 -0.697745
-9.979600 0.201700 -9.059600 0.290475 -0.917692 -0.270913
-10.005600 0.296700 -9.161300 0.071535 -0.172399 -0.982421
-10.472800 3.635000 -0.241000 -0.438032 0.729209 -0.525651
-10.404200 3.423900 -0.946200 -0.485153 0.820887 -0.301218
-10.184000 3.617100 -0.351500 0.214667 0.850368 -0.480331
-10.645400 3.458500 -0.203600 -0.861934 0.225745 -0.453932
-9.632500 0.732800 -8.679300 0.991333 -0.065950 0.113498
-9.652200 0.520400 -8.629600 0.978790 -0.168523 0.116184
-10.581400 0.830300 -8.222800 -0.987487 -0.152959 0.037782
-10.488000 1.286300 -8.709800 -0.902707 0.302683 -0.305734
-9.904400 2.608000 -1.647800 0.750053 -0.655293 0.089206
-9.861900 2.800000 -1.734100 0.911069 0.243873 -0.332286
-9.797200 2.751300 -1.141400 0.585681 -0.779687 0.221351
-9.894900 0.282000 -8.832900 0.504166 -0.862880 -0.034883
-9.667200 0.818900 -8.831500 0.693350 -0.143834 -0.706046
-10.321700 0.921300 -8.998900 -0.390027 0.038484 -0.919980
-9.825400 3.351600 -0.143800 0.903531 -0.110324 -0.414014
-10.091800 3.009000 -0.203300 0.505234 -0.862880 -0.011200
-9.947600 3.292400 -0.282200 0.866634 -0.218818 -0.448378
-10.010600 1.509000 -8.173500 0.520585 0.820765 0.235145
-9.801200 1.551100 -8.651600 0.495956 0.849055 0.181921
-10.414300 1.496400 -8.569900 -0.649617 0.757530 -0.064058
-10.495200 3.809400 0.068500 -0.290139 0.807978 0.512772
-10.522600 3.786600 -0.063500 -0.456710 0.822565 -0.338755
-10.750600 3.523100 -0.042900 -0.942564 0.290292 -0.165105
-10.164800 1.644900 -4.498000 0.967101 -0.236579 0.093326
-10.061600 1.019700 -6.910700 0.970580 -0.192846 0.143986
-10.232900 1.725900 -5.616300 0.986847 0.161229 -0.011505
-10.253900 2.036400 -4.605900 0.259102 0.921751 -0.288430
-10.187100 3.432100 -0.960700 0.264534 0.956908 -0.119541
-10.055000 3.367000 -0.705100 0.807428 0.587970 -0.048158
-9.567100 1.301900 -8.887200 0.915952 0.150334 -0.371990
-10.398600 0.569700 -8.717600 -0.675497 -0.737083 -0.019837
-10.422600 1.364900 -4.403000 0.177099 -0.942228 0.284310
-10.190000 2.078700 -3.199300 0.996124 -0.028962 -0.082949
-10.281200 2.841000 -0.708400 -0.250526 -0.914457 0.317789
-9.911000 2.870200 -0.762700 0.604083 -0.653829 0.455550
-10.363100 3.016500 -0.193600 -0.305734 -0.948790 -0.079165
-10.234600 0.482200 -8.155800 -0.524857 -0.829615 0.190374
-10.132000 0.575100 -7.681500 0.397595 -0.872463 0.284036
-10.269100 1.365500 -8.934600 -0.364818 0.510697 -0.778497
-9.698600 1.502000 -8.908500 0.449995 0.687796 -0.569567
-9.959600 3.585200 -0.223400 0.679983 0.511979 -0.524857
-10.725900 3.144300 0.039100 -0.847957 -0.529405 -0.025880
-9.959900 3.234300 -1.164900 0.629475 0.737297 -0.245186
-10.484900 0.773200 -7.772500 -0.804193 -0.578875 0.134678
-10.428100 0.611700 -8.228300 -0.697928 -0.710654 0.088412
-10.083500 1.497500 -7.810600 0.630268 0.774285 0.056520
-10.686300 3.196900 0.217500 -0.579913 -0.240059 0.778466
-10.677900 3.556200 0.109300 -0.614124 0.393048 0.684317
-10.136600 3.808600 -0.032900 0.309305 0.943480 0.118961
-10.168800 3.718600 -0.224800 0.174627 0.813807 -0.554247
-10.389400 3.044600 0.225600 -0.118931 -0.528153 0.840754
-10.184800 3.681000 0.093100 0.152989 0.464919 0.872005
-10.343500 3.689100 0.106700 0.044984 0.288278 0.956481
-10.264800 0.760500 -6.911200 0.178655 -0.951964 0.248604
-10.209900 1.578100 -6.999600 0.183172 0.983001 -0.010102
-10.206300 3.097200 -1.771000 0.102695 0.885739 -0.452620
-9.779400 3.371200 0.041000 0.965545 -0.041108 0.256844
-9.757000 0.613300 -8.900100 0.656270 -0.018220 -0.754265
-10.613200 2.701400 -1.545300 -0.933744 -0.306223 0.185186
-10.641600 1.892900 -3.243400 -0.923734 -0.359111 0.133152
-10.456300 1.804800 -3.136800 -0.098209 -0.926633 0.362804
-10.338500 2.512700 -1.448200 -0.191198 -0.902890 0.384960
-10.027900 3.512200 -0.347100 0.727989 0.503739 -0.465041
-10.184000 3.423200 -1.177300 0.111637 0.933134 -0.341716
-10.582700 2.917900 -1.107300 -0.928892 -0.319773 0.186651
-10.276500 2.681800 -1.062300 -0.214820 -0.891201 0.399457
-10.090100 0.225100 -9.057300 -0.531877 -0.784570 -0.318583
-10.092000 0.345400 -9.131800 -0.472213 0.031129 -0.880917
-10.547100 3.142800 -1.200000 -0.847011 0.481002 -0.226203
-10.540700 1.701200 -4.522100 -0.884732 0.438856 -0.156896
-9.905200 0.818100 -8.040400 0.940916 -0.123997 0.315073
-10.622200 1.451500 -4.468100 -0.913358 -0.396985 0.090335
-10.307300 0.612800 -7.694800 -0.492752 -0.851894 0.177374
-10.387500 2.933000 -0.002700 -0.196204 -0.980529 0.002930
-10.494100 1.067200 -6.956000 -0.987640 0.151982 -0.038118
-9.749000 0.333200 -8.722700 0.704550 -0.658650 -0.264077
-9.770900 0.324600 -8.431300 0.601459 -0.660970 0.448653
-10.044500 3.071300 0.202000 0.428541 -0.566637 0.703726
-10.081500 3.145700 0.217800 0.124882 -0.009735 0.992096
-9.966000 0.893700 -7.683200 0.978210 -0.116062 0.171972
-10.486600 0.866100 -6.949200 -0.829279 -0.554003 0.073153
-10.040400 2.985100 -0.010200 0.497757 -0.866543 0.035768
-10.238600 1.901300 -3.157700 0.757042 -0.636189 0.148778
3 0 1 2
3 3 4 5
3 6 7 8
3 9 10 11
3 12 9 11
3 13 14 15
3 16 17 18
3 19 20 21
3 21 22 19
3 23 24 25
3 26 15 14
3 11 27 23
3 28 29 30
3 30 31 28
3 32 33 4
3 5 34 35
3 5 35 36
3 11 37 27
3 20 38 39
3 40 41 42
3 43 25 44
3 7 45 46
3 2 47 48
3 48 49 2
3 50 39 51
3 52 53 54
3 55 56 57
3 58 59 36
3 59 58 17
3 58 36 60
3 61 24 62
3 63 64 65
3 50 51 33
3 61 66 67
3 7 46 68
3 25 69 70
3 71 53 72
3 20 39 73
3 55 8 56
3 74 75 76
3 76 77 74
3 78 79 42
3 36 59 5
3 52 75 80
3 11 81 82
3 50 33 54
3 17 83 13
3 17 58 83
3 18 17 13
3 84 46 85
3 85 86 84
3 44 25 18
3 64 87 88
3 89 64 88
3 82 81 90
3 10 29 28
3 28 81 10
3 74 60 91
3 92 26 93
3 51 34 5
3 94 67 66
3 95 65 96
3 97 98 99
3 62 24 27
3 70 100 49
3 35 101 86
3 102 103 15
3 26 14 41
3 11 23 12
3 61 104 105
3 66 61 105
3 2 3 47
3 75 52 76
3 11 82 37
3 28 90 81
3 63 87 64
3 103 102 43
3 44 103 43
3 101 35 34
3 34 38 101
3 13 83 106
3 50 53 71
3 50 71 107
3 52 72 53
3 45 6 72
3 72 80 45
3 108 77 32
3 17 16 59
3 33 32 76
3 76 54 33
3 31 109 110
3 51 39 38
3 34 51 38
3 97 40 42
3 97 42 111
3 67 69 61
3 19 22 112
3 113 25 70
3 6 71 72
3 2 49 98
3 0 2 98
3 114 21 20
3 115 58 60
3 42 106 78
3 59 3 5
3 95 93 63
3 11 10 81
3 71 114 107
3 91 85 80
3 75 91 80
3 70 49 48
3 37 62 27
3 97 99 88
3 116 92 96
3 94 66 105
3 4 51 5
3 115 78 106
3 74 115 60
3 117 56 21
3 100 99 98
3 98 49 100
3 57 114 71
3 55 57 71
3 70 69 100
3 8 21 56
3 90 110 104
3 97 88 87
3 67 30 29
3 114 57 117
3 35 86 91
3 35 91 60
3 36 35 60
3 58 115 83
3 104 62 37
3 28 110 90
3 111 98 97
3 102 116 43
3 91 86 85
3 106 14 13
3 107 114 73
3 88 29 89
3 95 63 118
3 108 79 77
3 108 111 42
3 42 79 108
3 77 76 32
3 31 110 28
3 23 25 43
3 63 41 40
3 113 119 18
3 112 84 19
3 119 48 47
3 47 16 119
3 55 71 6
3 6 8 55
3 9 12 96
3 20 73 114
3 4 1 108
3 4 108 32
3 104 61 62
3 77 79 74
3 117 21 114
3 67 94 30
3 39 50 107
3 107 73 39
3 104 37 90
3 21 8 7
3 21 7 68
3 68 112 21
3 69 67 100
3 52 54 76
3 41 63 93
3 117 57 56
3 74 78 115
3 106 83 115
3 1 3 2
3 3 1 4
3 6 45 7
3 65 118 63
3 15 44 13
3 18 119 16
3 68 46 84
3 84 112 68
3 23 27 24
3 87 40 97
3 41 93 26
3 69 24 61
3 33 51 4
3 1 0 111
3 111 108 1
3 89 29 10
3 89 10 9
3 116 102 92
3 111 0 98
3 101 20 19
3 48 119 113
3 46 45 80
3 80 85 46
3 15 103 44
3 88 99 29
3 23 116 96
3 96 12 23
3 92 95 96
3 47 3 16
3 3 59 16
3 109 105 104
3 109 104 110
3 116 23 43
3 40 87 63
3 113 18 25
3 19 84 86
3 86 101 19
3 113 70 48
3 101 38 20
3 96 65 9
3 95 118 65
3 67 29 99
3 100 67 99
3 102 15 26
3 102 26 92
3 79 78 74
3 72 52 80
3 65 64 89
3 89 9 65
3 54 53 50
3 30 94 105
3 105 109 31
3 105 31 30
3 112 22 21
3 18 13 44
3 106 42 41
3 106 41 14
3 82 90 37
3 69 25 24
3 74 91 75
3 92 93 95
3 120 121 122
3 123 124 125
3 126 127 128
3 129 130 131
3 132 133 134
3 135 136 137
3 137 138 135
3 139 140 141
3 142 143 144
3 145 146 123
3 145 147 146
3 123 148 145
3 149 131 150
3 151 120 152
3 153 154 155
3 143 156 129
3 157 140 158
3 159 160 161
3 162 163 164
3 120 162 164
3 165 166 167
3 168 169 170
3 168 170 171
3 172 147 173
3 163 149 174
3 139 141 175
3 176 168 177
3 178 179 160
3 160 180 178
3 181 131 182
3 158 183 184
3 161 185 159
3 157 158 174
3 125 186 167
3 167 148 125
3 135 154 187
3 188 151 189
3 120 190 162
3 175 141 181
3 181 189 175
3 171 126 177
3 177 168 171
3 167 186 191
3 167 191 192
3 193 132 185
3 185 194 193
3 195 196 197
3 197 191 195
3 184 183 164
3 192 197 165
3 173 160 136
3 169 198 182
3 171 170 199
3 122 199 120
3 125 148 123
3 126 128 200
3 131 181 129
3 201 132 134
3 142 202 156
3 156 143 142
3 145 166 194
3 147 145 194
3 203 204 205
3 203 205 206
3 207 161 173
3 152 164 183
3 187 154 200
3 187 200 208
3 209 210 178
3 209 203 210
3 178 124 209
3 129 211 143
3 141 140 212
3 159 185 132
3 159 132 201
3 147 194 185
3 207 147 185
3 209 124 123
3 213 209 123
3 127 126 171
3 127 171 214
3 215 149 163
3 163 162 215
3 184 163 174
3 129 141 211
3 152 183 158
3 135 138 154
3 176 205 204
3 176 204 216
3 184 174 158
3 161 207 185
3 198 217 182
3 218 195 186
3 218 186 125
3 218 125 180
3 216 214 219
3 176 216 198
3 176 198 169
3 169 168 176
3 220 150 221
3 181 217 188
3 188 189 181
3 169 199 170
3 167 166 145
3 167 145 148
3 222 223 195
3 197 192 191
3 133 132 193
3 193 196 133
3 129 156 130
3 160 179 136
3 215 162 190
3 224 215 190
3 150 131 221
3 161 160 173
3 198 216 225
3 166 193 194
3 220 156 202
3 134 133 196
3 144 212 140
3 221 130 156
3 153 155 206
3 182 131 215
3 215 224 182
3 129 181 141
3 123 146 213
3 200 177 126
3 212 211 141
3 159 226 160
3 137 179 155
3 155 138 137
3 189 151 139
3 189 139 175
3 144 143 211
3 146 172 208
3 214 171 122
3 120 199 190
3 151 121 120
3 208 213 146
3 211 212 144
3 198 188 217
3 201 222 226
3 180 160 226
3 128 203 209
3 128 209 213
3 216 219 225
3 172 173 208
3 221 131 130
3 121 151 219
3 219 122 121
3 155 210 206
3 196 165 197
3 140 142 144
3 196 195 134
3 202 157 220
3 204 127 214
3 204 203 127
3 214 216 204
3 213 208 200
3 200 128 213
3 219 151 188
3 188 225 219
3 152 120 164
3 139 151 152
3 146 147 172
3 153 206 205
3 227 153 205
3 140 139 158
3 179 137 136
3 222 201 134
3 134 223 222
3 142 140 202
3 221 156 220
3 124 178 180
3 124 180 125
3 149 215 131
3 149 157 174
3 173 187 208
3 200 154 177
3 152 158 139
3 150 157 149
3 210 155 179
3 210 179 178
3 167 192 165
3 128 127 203
3 147 207 173
3 219 214 122
3 184 164 163
3 177 227 176
3 210 203 206
3 217 181 182
3 198 225 188
3 226 159 201
3 180 226 218
3 193 166 165
3 153 227 177
3 177 154 153
3 224 190 199
3 199 169 224
3 171 199 122
3 227 205 176
3 187 173 136
3 187 136 135
3 196 193 165
3 140 157 202
3 195 223 134
3 195 218 226
3 226 222 195
3 195 191 186
3 138 155 154
3 224 169 182
3 220 157 150
