ply
format ascii 1.0
comment Created by Blender 2.92.0 - www.blender.org
element vertex 134
property float x
property float y
property float z
property float nx
property float ny
property float nz
element face 264
property list uchar uint vertex_indices
end_header
-10.099100 3.719600 1.819700 -0.460341 0.749046 0.476424
-9.213400 3.413900 3.411200 -0.849483 0.373669 0.372417
-9.705100 3.751300 1.662300 0.047395 0.991302 0.122654
-7.767500 2.776300 5.656900 0.844691 0.525468 -0.101657
-8.213700 3.075300 5.772800 0.077883 0.978545 0.190619
-7.383300 2.391700 8.648600 0.136113 0.987365 0.080966
-6.950700 2.095799 8.521900 0.819086 0.503098 -0.275613
-8.573300 3.760700 -0.127700 0.561907 0.192969 -0.804346
-9.069700 3.498600 -0.262300 0.654683 0.361400 -0.663869
-9.133100 3.694400 -0.163000 0.483077 0.779687 -0.398358
-9.422700 3.589100 -0.437000 -0.360118 0.326640 -0.873836
-9.416900 3.291400 -0.409800 -0.150334 -0.367382 -0.917814
-9.975700 3.308700 -0.174200 -0.404370 -0.130680 -0.905179
-9.865500 3.001200 -0.071700 -0.332194 -0.784936 -0.522965
-9.794600 2.907700 0.298400 0.104495 -0.990051 0.093936
-10.130000 3.117100 0.035500 -0.190252 -0.654744 -0.731468
-6.294100 0.731400 11.148900 0.307169 -0.703024 0.641377
-5.769100 1.026900 10.891000 0.849300 -0.382488 0.363811
-6.304300 0.949300 11.320800 0.324809 -0.504044 0.800256
-6.074300 0.999000 10.155000 0.586383 -0.513596 -0.626362
-6.338100 0.801900 10.167800 0.505875 -0.673269 -0.539201
-6.518000 1.273600 9.672900 0.587695 -0.588733 -0.554949
-8.935600 3.241400 0.834600 0.514389 -0.853053 0.087619
-8.712400 3.441200 1.014200 0.929807 -0.355327 0.095798
-8.681100 3.500200 1.440800 0.984436 -0.046693 -0.169378
-6.256600 0.550600 10.851800 0.308603 -0.939451 0.148930
-10.098800 3.601100 1.880600 -0.795404 -0.260018 0.547441
-10.452800 3.631400 1.395400 -0.832270 -0.178228 0.524918
-10.044900 3.364800 1.263900 -0.326792 -0.873531 0.360698
-9.845600 3.378000 1.718400 -0.514206 -0.842982 0.157811
-9.257100 3.251900 0.570200 0.217414 -0.975524 -0.032594
-8.854200 3.256000 0.129700 0.450606 -0.862667 -0.229591
-8.876400 3.233500 0.650700 0.378002 -0.924345 0.051729
-8.955700 3.370700 -0.198400 0.640126 -0.462630 -0.613300
-7.681700 1.544899 9.905700 -0.979705 -0.200201 -0.007843
-7.588700 1.829900 10.689900 -0.854762 0.514786 0.065767
-7.325300 2.056900 10.528600 -0.557115 0.829676 0.034822
-9.327300 3.034100 -0.285000 0.233924 -0.731620 -0.640278
-7.651800 2.310100 8.683400 -0.613178 0.739067 0.278817
-7.865000 1.888600 8.675100 -0.975524 -0.134556 0.173803
-8.221000 2.146100 5.646300 -0.207648 -0.956908 -0.202948
-7.495600 1.447300 8.501100 -0.364940 -0.921354 -0.133641
-8.518000 2.517100 5.815200 -0.951537 -0.251473 0.176977
-10.548100 3.795300 0.493900 -0.572039 0.804010 -0.162084
-10.272400 3.903600 0.392700 -0.481552 0.835688 -0.263985
-10.350800 3.572100 0.026000 -0.462386 0.480972 -0.744865
-8.594100 3.343400 0.117200 0.675954 -0.649281 -0.348521
-8.486900 3.794900 0.121400 0.840510 0.539689 0.047456
-8.663500 3.715200 0.739100 0.751762 0.600971 0.271310
-8.663000 3.411200 0.670300 0.884762 -0.427168 0.186316
-10.365400 3.049500 0.771300 -0.111881 -0.749931 0.651936
-10.479400 2.743300 0.423300 -0.127903 -0.990295 0.054140
-6.258300 1.180500 11.409300 0.345317 -0.346843 0.872005
-6.560700 1.298000 11.518800 0.003388 -0.175268 0.984497
-10.144600 3.967400 0.362300 0.025575 0.964721 -0.261971
-10.030900 3.920100 0.750400 0.186712 0.980621 0.059236
-9.811600 3.732400 0.359400 0.124332 0.947752 -0.293680
-9.860800 3.760800 0.236600 0.436293 0.855220 -0.279672
-6.378500 1.778600 11.445100 0.166540 0.467055 0.868374
-5.828700 1.554900 11.183600 0.800928 0.148656 0.579974
-6.184200 2.271100 10.850700 0.406262 0.879910 0.246315
-10.785200 3.448400 0.845200 -0.889584 -0.013428 0.456526
-9.270200 2.949100 0.111000 0.370861 -0.926054 0.069582
-8.584700 3.817900 -0.081100 0.343089 0.842799 -0.414655
-9.347400 3.817400 0.229500 -0.067690 0.995758 -0.061830
-9.007100 3.807000 0.538600 0.043245 0.990692 0.128849
-6.951900 1.727300 8.441100 0.885800 -0.175756 -0.429456
-7.947500 2.319400 5.616400 0.571520 -0.744774 -0.344432
-7.746000 2.517100 5.618700 0.899136 -0.304880 -0.313944
-9.000300 3.021000 3.313700 -0.814936 -0.563402 0.135594
-6.620700 0.589900 10.131600 0.030335 -0.908231 -0.417310
-8.419600 2.962200 5.810400 -0.728629 0.600696 0.328929
-10.265300 3.919000 0.834300 -0.206122 0.974944 0.083499
-10.154800 3.878900 1.188400 -0.047304 0.982208 0.181585
-10.685000 2.880300 0.471900 -0.770531 -0.591021 0.238624
-10.669600 3.062200 0.030600 -0.604877 -0.397443 -0.690023
-6.742000 2.229300 10.659600 -0.166448 0.985900 -0.015687
-6.601800 2.309200 10.999100 -0.047731 0.928037 0.369335
-9.123600 3.765000 0.800900 -0.011383 0.981842 0.189245
-8.756600 3.671400 1.071700 0.671041 0.725364 0.153264
-5.730200 1.923100 10.582700 0.889309 0.455123 -0.043947
-6.059700 2.042599 10.172200 0.656178 0.667318 -0.352275
-6.336100 2.262200 10.489600 0.216254 0.972381 -0.087558
-7.157200 0.870800 10.498000 -0.590472 -0.801050 -0.097934
-6.874900 0.701200 11.103300 -0.202673 -0.968078 0.147313
-7.595700 1.228099 11.040100 -0.813593 -0.434828 0.385968
-10.397300 3.750600 1.379300 -0.625721 0.698325 0.347484
-10.472400 3.823300 0.981700 -0.586474 0.789666 0.179998
-10.856200 3.408000 0.544800 -0.997650 0.010987 0.067476
-8.308800 3.259100 3.214400 0.850154 0.514603 -0.111148
-9.308200 3.733000 1.554200 0.132725 0.989837 0.050813
-8.845500 3.552500 3.322000 0.111209 0.984649 0.134495
-8.321100 3.095600 3.172200 0.897244 -0.343913 -0.276803
-8.497300 2.896400 3.168200 0.572131 -0.764183 -0.297739
-9.626800 3.753000 1.041300 0.165410 0.982696 0.083041
-10.666300 3.102200 0.678800 -0.665731 -0.525681 0.529527
-10.707300 3.197700 0.224400 -0.966887 -0.127628 -0.220832
-6.013300 1.361799 11.347000 0.701437 -0.248421 0.668020
-6.322100 1.481200 11.516500 0.247963 0.078738 0.965545
-7.664200 1.329900 10.564500 -0.929746 -0.364452 -0.052004
-7.644200 1.536299 11.041300 -0.859340 0.174688 0.480605
-7.241100 2.124000 10.951900 -0.456404 0.800317 0.388775
-7.190800 1.518200 11.369200 -0.423475 0.287484 0.859035
-7.263100 1.163900 9.811400 -0.581683 -0.782464 -0.222175
-6.851100 0.991300 9.673500 0.018250 -0.843196 -0.537278
-8.761600 3.634900 1.458400 0.558000 0.829676 0.015290
-9.208100 3.734900 0.919500 0.052217 0.991577 0.118320
-9.748900 3.668800 -0.000200 -0.516160 0.746239 -0.420301
-9.748600 3.490100 -0.164100 -0.448256 0.662221 -0.600391
-10.192600 3.340300 -0.061700 -0.307321 -0.181188 -0.934172
-5.941400 1.626000 10.028300 0.831904 0.022675 -0.554399
-10.227400 3.675700 -0.067800 -0.331248 0.533067 -0.778497
-8.551700 3.681400 -0.073100 0.703299 -0.343547 -0.622333
-9.214200 3.122400 0.805300 0.164037 -0.962035 -0.217963
-5.728100 1.000300 10.551700 0.873135 -0.438612 -0.212653
-9.946200 3.534700 -0.121700 0.026978 0.551927 -0.833430
-10.593100 3.411500 -0.014400 -0.506668 0.235206 -0.829402
-10.496500 3.506000 0.009800 -0.242439 0.564592 -0.788903
-10.819800 3.542200 0.330700 -0.863308 0.419080 -0.281137
-6.768100 1.276000 11.502100 -0.111393 -0.125889 0.985748
-7.116300 1.339599 11.438200 -0.369213 -0.027223 0.928922
-6.928900 0.935000 11.340300 -0.134922 -0.495865 0.857814
-9.102300 3.340300 -0.502100 0.495010 -0.425520 -0.757530
-9.574700 3.140500 0.970600 -0.213019 -0.972503 0.093844
-9.748800 3.110400 0.654400 0.126316 -0.937712 0.323557
-9.258400 3.870800 -0.323000 0.185278 0.876858 -0.443556
-9.203200 3.678700 2.368800 0.027467 0.990753 0.132756
-9.241700 3.025900 1.548000 -0.048585 -0.996429 -0.068819
-8.819700 2.736700 3.215000 -0.286019 -0.950438 -0.121860
-7.142200 1.503200 8.433100 0.295358 -0.892331 -0.341227
-9.483600 3.741900 -0.191300 -0.551134 0.772942 -0.314219
-7.163700 0.712499 11.145000 -0.480728 -0.875576 -0.047456
-7.038000 1.579100 8.417900 0.664785 -0.612262 -0.427931
-8.987300 3.171300 1.466700 0.574847 -0.800806 -0.167913
3 0 1 2
3 3 4 5
3 5 6 3
3 7 8 9
3 10 11 12
3 13 14 15
3 16 17 18
3 19 20 21
3 22 23 24
3 17 16 25
3 26 0 27
3 26 27 28
3 29 26 28
3 30 31 32
3 31 33 7
3 34 35 36
3 33 37 11
3 34 36 38
3 38 39 34
3 40 41 39
3 39 42 40
3 43 44 45
3 46 47 48
3 46 48 49
3 50 51 14
3 18 52 53
3 54 55 56
3 56 57 54
3 58 59 60
3 28 27 61
3 13 37 62
3 62 14 13
3 63 64 65
3 47 63 65
3 66 67 68
3 29 69 26
3 20 25 70
3 39 38 71
3 72 73 55
3 51 74 75
3 32 31 46
3 76 77 60
3 78 79 48
3 78 48 65
3 60 80 81
3 82 60 81
3 83 84 85
3 73 86 0
3 61 27 87
3 61 87 43
3 43 88 61
3 4 71 38
3 89 90 91
3 69 0 26
3 92 68 67
3 92 67 93
3 2 94 73
3 95 96 74
3 83 70 84
3 97 59 58
3 58 98 97
3 99 85 100
3 101 102 58
3 77 101 58
3 103 104 70
3 105 106 90
3 57 107 108
3 109 15 75
3 110 19 21
3 5 38 76
3 39 41 103
3 109 45 111
3 47 112 7
3 113 30 32
3 35 34 99
3 114 25 20
3 19 114 20
3 43 87 72
3 72 44 43
3 12 109 111
3 80 59 17
3 105 24 23
3 115 108 12
3 45 109 116
3 116 117 45
3 5 82 81
3 81 6 5
3 89 105 90
3 42 71 1
3 63 9 64
3 43 118 88
3 88 118 96
3 59 18 17
3 12 13 15
3 12 11 13
3 15 109 12
3 58 102 119
3 58 119 53
3 58 53 98
3 120 121 119
3 49 48 79
3 57 108 115
3 116 96 118
3 4 91 71
3 33 11 122
3 91 1 71
3 112 47 46
3 43 117 118
3 113 123 124
3 80 17 114
3 25 84 70
3 103 83 99
3 103 99 34
3 18 121 16
3 95 50 61
3 125 122 10
3 2 126 90
3 69 127 128
3 92 24 89
3 103 41 129
3 65 48 47
3 10 130 125
3 23 79 105
3 114 19 110
3 111 115 12
3 49 23 22
3 49 22 32
3 80 114 110
3 51 50 95
3 95 74 51
3 86 87 27
3 107 57 56
3 40 67 129
3 66 6 81
3 5 76 82
3 40 42 69
3 69 128 40
3 112 46 31
3 44 54 111
3 75 15 51
3 28 50 124
3 97 52 18
3 72 55 54
3 102 120 119
3 98 53 52
3 90 106 94
3 90 94 2
3 65 64 78
3 3 68 92
3 3 6 68
3 92 89 3
3 16 131 84
3 110 21 132
3 5 4 38
3 55 94 64
3 2 73 0
3 83 85 99
3 101 100 102
3 106 105 79
3 101 35 100
3 131 85 84
3 8 122 125
3 125 9 8
3 106 78 64
3 42 39 71
3 132 21 104
3 104 129 132
3 36 76 38
3 66 132 67
3 64 94 106
3 130 64 125
3 61 50 28
3 120 102 85
3 120 85 131
3 131 121 120
3 106 79 78
3 101 77 76
3 76 36 101
3 14 124 50
3 62 37 33
3 62 33 31
3 55 64 56
3 6 66 68
3 132 66 110
3 33 122 8
3 133 24 92
3 93 133 92
3 64 9 125
3 30 62 31
3 98 52 97
3 100 85 102
3 54 44 72
3 59 97 18
3 124 123 28
3 14 51 15
3 44 111 45
3 9 63 7
3 89 91 4
3 4 3 89
3 126 2 1
3 1 91 126
3 81 110 66
3 129 41 40
3 56 64 107
3 108 10 12
3 133 93 127
3 133 127 113
3 22 133 113
3 110 81 80
3 0 86 27
3 133 22 24
3 114 17 25
3 61 88 95
3 11 37 13
3 112 31 7
3 129 104 103
3 24 105 89
3 69 29 127
3 75 96 116
3 43 45 117
3 127 123 113
3 18 119 121
3 53 119 18
3 130 10 108
3 108 107 130
3 60 77 58
3 124 30 113
3 10 122 11
3 7 33 8
3 128 93 67
3 67 40 128
3 16 121 131
3 128 127 93
3 116 118 117
3 73 94 55
3 79 23 49
3 46 49 32
3 60 82 76
3 87 86 73
3 73 72 87
3 80 60 59
3 96 95 88
3 14 62 30
3 30 124 14
3 130 107 64
3 1 69 42
3 90 126 91
3 69 1 0
3 67 132 129
3 111 54 57
3 57 115 111
3 96 75 74
3 123 127 29
3 29 28 123
3 104 21 20
3 20 70 104
3 100 35 99
3 101 36 35
3 70 83 103
3 22 113 32
3 7 63 47
3 75 116 109
3 39 103 34
3 16 84 25
