ply
format ascii 1.0
comment Created by Blender 2.92.0 - www.blender.org
element vertex 328
property float x
property float y
property float z
property float nx
property float ny
property float nz
element face 628
property list uchar uint vertex_indices
end_header
-9.850100 1.420900 -8.986400 0.597613 0.185064 0.780114
-10.286800 1.481000 -9.093000 -0.659383 -0.006470 0.751732
-10.178700 1.127500 -9.057300 -0.519913 -0.332957 0.786615
-10.709400 1.523301 -10.250800 -0.757317 -0.040345 -0.651753
-10.594100 1.169101 -10.195100 -0.747093 -0.364299 -0.555986
-10.292800 1.875100 -9.125400 -0.586261 0.081759 0.805963
-9.157400 -1.662699 -12.504500 0.886563 0.378338 -0.266121
-9.173800 -1.417499 -12.295600 0.711325 0.698843 0.074648
-9.212700 -1.860199 -12.279800 0.593066 -0.609027 0.526566
-9.194100 -2.061500 -12.480500 0.513688 -0.832698 0.206580
-9.824100 -0.525499 -12.633600 0.677175 -0.733543 0.057375
-9.949100 0.080801 -12.719400 0.375805 0.867641 -0.325510
-9.654700 -0.458099 -12.453100 0.879757 -0.474593 0.028016
-10.400500 -0.601399 -12.583700 -0.583972 -0.791833 -0.178686
-10.299100 -0.603099 -12.657600 -0.119144 -0.973022 0.197455
-10.022200 -0.753899 -15.881300 0.543779 0.809412 -0.221625
-9.960000 -1.019699 -15.858100 0.830287 -0.550523 -0.086642
-9.976100 -1.022499 -16.038300 0.880673 -0.448256 -0.153172
-10.039100 -0.756699 -16.059099 0.496933 0.833247 -0.242286
-10.077600 2.051701 -11.370600 0.382763 -0.901334 -0.202612
-10.502700 2.122101 -10.923500 -0.905301 -0.407971 -0.118076
-10.427800 2.255100 -11.889700 -0.925871 -0.371654 -0.067782
-10.044900 2.095800 -11.989500 0.285043 -0.938353 0.195441
-10.192700 2.325501 -14.771500 -0.915372 -0.348064 -0.202277
-10.072300 2.652801 -14.798000 -0.434919 0.850734 -0.295053
-10.002200 2.614501 -14.932800 -0.255226 0.923887 -0.285043
-10.122600 2.287101 -14.906200 -0.858211 -0.489151 -0.155431
-9.743500 2.408601 -10.677200 0.924284 0.373943 -0.076235
-10.298900 2.673100 -10.886300 -0.365123 0.930876 0.009705
-10.325700 2.637001 -10.379900 -0.344249 0.714194 0.609424
-9.741900 2.380001 -10.381900 0.745293 0.268990 0.610034
-10.330600 1.692001 -14.829800 -0.598651 0.739982 -0.306619
-10.444500 1.228101 -14.823400 -0.881863 -0.378826 -0.280709
-10.355400 1.213001 -14.621700 -0.782525 -0.618091 0.074404
-10.151300 1.641301 -14.911800 -0.015534 0.997955 -0.061922
-10.241500 1.676801 -14.628100 -0.392254 0.919828 0.005280
-9.938200 1.723200 -11.564800 0.861934 0.480972 -0.160314
-9.968200 1.699701 -12.325200 0.802942 0.574023 0.160375
-10.344300 1.928401 -10.981300 -0.492264 0.869503 -0.039857
-10.100900 0.572101 -12.310800 0.741630 -0.609760 0.279550
-9.800900 0.470301 -12.867900 0.873226 -0.486435 -0.027985
-9.925000 1.086801 -12.904300 0.667440 0.730583 -0.143895
-10.196300 1.046101 -12.338700 0.512986 0.856258 0.060152
-10.308700 0.160301 -16.589399 -0.581774 -0.811151 -0.059297
-9.994000 0.209701 -16.639900 0.906003 -0.423078 0.010773
-10.080000 0.205501 -16.509100 0.738365 -0.654561 0.162236
-10.220000 0.618701 -15.471200 0.516923 0.851283 -0.089938
-10.069900 0.583101 -15.925100 0.615192 0.788110 -0.020234
-10.525000 0.508301 -15.894700 -0.830988 0.500931 -0.241859
-10.374200 0.141401 -16.059799 -0.483291 -0.862606 -0.149327
-10.451000 0.507801 -16.059000 -0.741539 0.609821 -0.279641
-10.365400 0.430601 -16.588800 -0.808832 0.546190 -0.217780
-10.102100 1.037301 -13.103000 0.393384 0.887143 -0.241188
-9.978100 0.420701 -13.066700 0.677725 -0.734458 -0.034822
-10.170300 1.102801 -16.345501 -0.806360 -0.417646 -0.418714
-10.113300 1.366701 -16.382700 -0.346995 0.897794 -0.271096
-9.960800 1.284101 -16.676201 0.041017 0.427534 -0.903043
-10.017800 1.020301 -16.639000 -0.191626 -0.650838 -0.734611
-10.062000 1.647601 -14.190200 0.797021 0.601978 0.048128
-9.955900 1.645701 -13.556500 0.802393 0.500656 -0.324717
-10.069800 1.181901 -13.550100 0.464187 -0.844142 -0.268105
-10.175900 1.183701 -14.183800 0.409497 -0.904630 0.117862
-10.194000 2.783900 -12.546000 -0.369823 0.870693 -0.324137
-9.618800 2.499800 -12.379300 0.963775 0.266579 0.004486
-9.747200 2.572300 -12.547700 0.779046 0.597217 0.190741
-10.105100 2.750100 -12.602600 -0.017548 0.961852 0.272927
-10.156800 2.286301 -13.779700 -0.844752 -0.525559 0.100650
-9.822900 2.138101 -13.887700 0.480850 -0.849635 -0.216498
-9.951600 2.211700 -13.483300 0.318888 -0.946074 0.056734
-10.225300 2.329601 -13.419300 -0.920255 -0.357250 -0.159520
-10.409700 -0.383299 -14.114300 -0.789361 0.607318 -0.089663
-9.950700 -0.340499 -14.279400 0.640950 0.682333 -0.351512
-10.294500 -0.430699 -14.397000 -0.444807 0.878475 -0.174383
-10.458700 -0.439799 -14.280700 -0.875607 0.349010 -0.333842
-10.187400 -0.896799 -14.351700 -0.059572 -0.965880 0.251961
-9.852300 -0.834399 -14.366600 0.851344 -0.376141 0.365642
-9.967700 -0.846799 -14.315500 0.448653 -0.866878 0.217200
-9.611600 -1.469100 -12.197600 -0.631336 0.754845 -0.177679
-9.662200 -1.770699 -12.382600 -0.883145 -0.427808 0.192267
-10.030400 -1.306000 -11.234500 -0.758049 -0.410504 0.506760
-9.897000 -0.515200 -11.065900 -0.541490 0.819391 -0.188025
-9.885600 -0.501800 -10.941400 -0.729148 0.645131 -0.228217
-9.194800 -0.655100 -11.003600 0.886685 0.442061 -0.135380
-9.206200 -0.668500 -11.128100 0.764275 0.580706 -0.280374
-10.008500 2.483300 -9.972100 -0.601367 -0.415693 -0.682272
-10.007000 2.726001 -9.932000 -0.507004 0.720634 -0.472823
-9.529800 2.645101 -9.941200 0.639271 0.605121 -0.474441
-9.531300 2.402300 -9.981300 0.549120 -0.527482 -0.648213
-10.624200 2.412801 -10.254500 -0.513810 0.656270 -0.552477
-10.097200 2.265400 -9.935000 0.461562 0.883572 0.078646
-9.685000 2.129400 -9.930000 0.751457 0.606800 0.258919
-9.553900 2.574000 -9.516600 0.601306 0.415662 0.682333
-9.555400 2.331300 -9.556700 0.506882 -0.720695 0.472884
-9.305800 -1.322000 -11.125700 0.467666 -0.877712 0.104282
-9.256000 -0.840699 -11.440300 0.732963 0.489822 -0.471969
-9.946700 -0.687500 -11.378100 -0.625233 0.624012 -0.468673
-9.623300 -1.327999 -12.398500 -0.481246 0.861049 -0.164098
-9.606800 -1.573299 -12.607400 -0.581500 0.558763 -0.591266
-9.643600 -1.971999 -12.583400 -0.754601 -0.654927 -0.039766
-9.843500 -0.806599 -14.234100 0.870266 -0.461684 -0.171606
-10.028400 -0.110599 -13.173100 0.534196 0.703452 -0.468795
-10.158100 -0.262499 -13.749700 0.469069 0.867061 -0.167821
-10.549300 -0.028299 -12.797600 -0.782067 0.559252 0.274880
-9.664100 2.561701 -13.889000 0.940825 0.249825 -0.228889
-9.793500 2.635300 -13.466600 0.873318 0.483840 0.056490
-9.998100 2.709801 -13.781100 -0.252022 0.962645 0.098636
-10.529500 2.086000 -10.417200 -0.769982 -0.353343 0.531236
-9.752200 2.389601 -15.532200 0.962981 0.262520 -0.061007
-9.906300 2.410201 -15.722200 0.081759 0.429518 -0.899319
-10.008000 2.507001 -15.484700 -0.418622 0.854793 -0.306619
-10.297000 1.675801 -15.005500 -0.508194 0.809900 0.292856
-10.410900 1.212001 -14.999100 -0.835170 -0.401868 0.375439
-10.265200 1.177501 -14.905300 -0.501175 -0.864925 0.026063
-10.063700 1.522901 -15.388500 0.816858 0.555650 -0.154759
-10.265300 1.525901 -15.901300 -0.461715 0.857112 -0.228339
-10.145100 0.737001 -14.930200 0.588244 0.746055 0.311960
-10.248100 0.723301 -14.881800 0.222663 0.970672 -0.090518
-10.161800 0.249301 -14.869600 0.499130 -0.828120 0.255074
-10.058800 0.263001 -14.918000 0.804376 -0.437269 0.402112
-10.312700 0.789401 -14.258200 0.520188 0.850002 -0.082858
-10.181400 0.753101 -14.796200 0.640248 0.725516 -0.252327
-10.543200 0.706901 -14.705900 -0.745140 0.666097 -0.032655
-10.217400 0.315301 -14.230200 0.767571 -0.633595 0.096652
-10.643100 0.753701 -14.175300 -0.820490 0.546709 -0.167028
-9.861600 1.412900 -10.372600 0.520371 0.716727 0.464156
-10.569400 1.322200 -10.309900 -0.626637 0.536302 0.565386
-10.445300 0.705601 -10.273500 -0.436628 -0.596118 0.673757
-9.737600 0.796300 -10.336200 0.721885 -0.411664 0.556200
-10.196700 0.887101 -13.607300 0.525010 0.756340 -0.390240
-10.101400 0.413101 -13.579400 0.765221 -0.599811 -0.233711
-9.839000 1.567501 -14.708500 0.911618 0.383007 -0.149083
-10.383600 1.735301 -14.115500 -0.526353 0.832636 -0.172124
-10.058800 1.126901 -14.815900 0.013764 -0.991852 0.126469
-9.938100 1.094001 -14.841800 0.569536 -0.719687 0.397015
-9.824300 1.557901 -14.848200 0.846828 0.399976 0.350505
-9.944900 1.590701 -14.822400 0.501358 0.864284 0.040101
-9.801900 2.585701 -14.488400 0.861415 0.501999 -0.077029
-10.088400 2.747001 -14.118400 -0.409986 0.849330 0.332438
-9.936200 2.688101 -14.021600 0.139683 0.988067 -0.064486
-10.247100 2.323401 -14.111600 -0.878567 -0.311014 0.362438
-10.094900 2.264501 -14.020200 -0.647359 -0.759789 0.059816
-10.121100 -0.808899 -16.252899 -0.140141 0.439833 -0.887051
-10.236200 -0.812599 -15.962100 -0.869472 0.436293 -0.231605
-10.058100 -1.074799 -16.232201 0.122776 -0.617450 -0.776940
-9.932300 -0.576799 -13.107200 0.773553 -0.605060 -0.188299
-9.766600 -0.559299 -12.817500 0.843471 -0.536485 -0.026337
-9.922300 -0.087200 -10.538400 -0.749687 0.405713 -0.522782
-9.825200 -0.734100 -10.576500 -0.671590 -0.532029 0.515610
-9.892800 -0.127000 -9.836200 -0.664693 -0.312449 0.678610
-9.226800 0.364500 -10.176600 0.703238 0.697317 -0.138462
-9.250000 0.044600 -9.835700 0.707266 0.128147 0.695212
-9.300400 -0.258400 -9.889600 0.602802 -0.483902 0.634358
-10.031000 2.655000 -9.507400 -0.548967 0.527573 0.648274
-9.535400 0.052300 -9.709800 0.120518 -0.963256 0.239906
-9.409000 0.162500 -9.765700 0.708670 -0.701132 0.078372
-9.706100 0.799500 -9.215200 0.573473 -0.034211 0.818476
-9.856000 1.829700 -9.132100 0.837428 0.195379 0.510361
-10.216800 2.372000 -9.138400 -0.058901 0.758324 0.649159
-10.694200 1.915300 -10.225100 -0.754021 -0.013581 -0.656697
-9.779700 0.148201 -12.538800 0.667409 0.718589 -0.195257
-10.347600 -0.938699 -14.405500 -0.531480 -0.666738 0.522446
-10.034100 -0.930099 -14.858900 0.759636 -0.640919 0.110050
-9.891700 0.047001 -12.903300 0.622395 0.732719 -0.275124
-9.886500 2.144400 -12.988300 0.368419 -0.850215 -0.375958
-10.354900 2.248600 -12.695700 -0.946745 -0.289956 0.139866
-9.920900 2.475200 -11.342000 0.930021 0.364818 -0.043916
-9.784900 1.687401 -13.256400 0.882351 0.447157 -0.146489
-9.933000 1.084001 -13.248000 0.552904 -0.825922 -0.109989
-9.882800 1.020901 -16.460899 0.678213 -0.698264 0.228889
-10.062000 0.675600 -11.528000 0.800256 -0.591632 -0.097476
-10.477200 0.621000 -10.913900 -0.558153 -0.823603 0.100436
-10.552700 0.529901 -12.145600 -0.588031 -0.796533 0.140446
-10.448200 0.141901 -15.895500 -0.593707 -0.792810 -0.137516
-9.901100 1.360801 -10.744300 0.577288 0.773949 -0.260170
-10.601300 1.237500 -10.950300 -0.803064 0.591540 -0.071413
-9.993100 0.216701 -15.925900 0.856014 -0.512070 0.070498
-10.684900 0.962601 -13.051300 -0.803583 0.478317 -0.354167
-10.560900 0.346001 -13.015000 -0.598773 -0.767846 -0.227729
-10.648000 1.003901 -12.173600 -0.830866 0.554888 -0.041475
-10.131300 1.056801 -16.291500 0.138432 -0.989441 -0.042787
-10.082100 1.235901 -12.318800 0.421216 -0.874630 0.239906
-9.816200 1.069401 -12.857700 0.607135 -0.793329 -0.044313
-9.668100 1.672701 -12.866000 0.911832 0.403088 -0.077822
-9.599400 2.560601 -12.702600 0.942381 0.308817 0.128391
-9.729800 2.567900 -12.959600 0.881924 0.401349 -0.247139
-10.151100 2.799500 -12.658500 -0.409314 0.858333 0.309305
-9.937200 2.224601 -14.482600 0.316355 -0.948607 0.006195
-9.840500 2.138601 -14.047500 0.452101 -0.864528 0.219367
-9.720400 0.598500 -10.567400 0.574480 0.749443 -0.328990
-10.405700 0.451900 -10.752200 -0.799127 0.588061 -0.124546
-10.391600 0.589100 -10.167800 -0.640309 0.578509 0.505234
-9.691600 0.681300 -10.228300 0.505448 0.760765 0.407025
-9.843000 -0.961299 -15.307200 0.874599 -0.466567 0.131657
-10.194000 -1.059099 -15.456400 -0.408002 -0.909299 -0.081515
-10.174100 -1.078399 -15.938800 -0.535966 -0.836482 -0.114048
-10.416300 -0.347299 -11.796400 -0.596820 -0.770959 0.222205
-10.525500 0.004901 -12.669500 -0.795618 0.435865 -0.420667
-10.424200 0.003201 -12.743300 -0.439741 0.877712 -0.190374
-9.991500 2.066801 -9.873500 0.875546 -0.356365 0.326182
-10.168600 1.860901 -9.988500 0.739830 -0.117038 -0.662496
-10.087500 2.076401 -10.136400 0.238685 -0.521256 -0.819300
-9.772500 0.978600 -9.137900 0.703177 -0.213080 0.678304
-9.767100 1.133600 -9.081300 0.794855 -0.083865 0.600940
-10.016800 0.640700 -9.305500 -0.473342 -0.623768 0.621906
-10.331700 0.672200 -10.168300 -0.652913 -0.480972 -0.585070
-9.220000 -2.006200 -12.640200 0.614643 -0.788751 0.007263
-9.559200 -1.938599 -12.717800 -0.771233 -0.585650 -0.249275
-9.430800 -2.173599 -13.197300 -0.667043 -0.736900 -0.109592
-9.173400 -2.224800 -13.138300 0.484878 -0.866024 0.121921
-10.424200 -0.634599 -12.711800 -0.552232 -0.661031 0.507981
-9.566600 0.075000 -10.142600 0.716514 -0.353160 0.601520
-9.595400 -0.007700 -10.481700 0.820154 -0.570452 -0.043001
-9.951000 2.021400 -12.584900 0.057558 -0.979156 -0.194708
-9.822600 1.948801 -12.416600 0.482101 -0.872982 -0.073611
-10.397800 2.233001 -12.583300 -0.857723 -0.299081 -0.418134
-10.308900 2.199200 -12.639800 -0.664602 -0.683523 -0.301706
-9.918600 2.188401 -15.404800 0.228034 -0.957060 0.178930
-9.841000 2.148001 -15.512600 0.547685 -0.833888 0.067995
-9.829800 2.430001 -15.424400 0.856380 0.513932 0.049623
-10.052100 1.259300 -11.558400 0.494827 -0.859127 -0.130314
-10.492400 1.325100 -10.973000 -0.847133 -0.531175 0.012909
-10.522300 1.358001 -12.166400 -0.865658 -0.497543 0.055330
-10.353200 1.167501 -15.890300 -0.904599 -0.425733 -0.020142
-10.246500 1.489901 -16.028000 -0.424757 0.815332 -0.393384
-10.334300 1.131601 -16.014099 -0.852199 -0.501053 -0.150517
-9.944400 1.416501 -15.819800 0.911374 0.407514 -0.057466
-10.098000 0.279101 -14.768300 0.867000 -0.490951 -0.085055
-10.049400 1.019401 -13.304200 0.621967 0.752403 -0.216803
-10.712900 0.941101 -13.191800 -0.776330 0.539781 0.325419
-10.584400 0.966501 -13.131700 -0.447737 0.889828 -0.087741
-10.444800 0.682501 -14.934700 -0.309397 0.934782 -0.174413
-10.588300 0.649801 -15.003100 -0.781518 0.517533 0.348308
-10.358500 0.208501 -14.922400 -0.010865 -0.991913 0.126377
-10.541900 0.193901 -14.884100 -0.632221 -0.694235 -0.343944
-10.625300 0.668001 -14.912100 -0.786584 0.417493 -0.454878
-10.029400 1.058101 -15.794800 0.548936 -0.829737 0.100833
-10.160800 1.127701 -15.376300 0.378674 -0.925443 0.011536
-10.552600 1.256801 -13.013700 -0.840327 -0.450392 -0.301584
-9.945700 1.829100 -10.419100 0.315622 -0.794549 0.518693
-10.302500 -0.849399 -14.069000 -0.489731 -0.832881 0.257759
-10.051000 -0.728599 -13.704400 0.768670 -0.608051 0.198401
-10.357400 -0.760599 -13.562800 -0.546800 -0.832118 0.092593
-9.996600 -1.168800 -11.063500 -0.726646 -0.656972 0.200842
-9.265800 -0.858200 -10.626900 0.661885 -0.515946 0.543779
-10.032600 2.412301 -9.547500 -0.639454 -0.604907 0.474471
-9.842400 0.176000 -9.782400 -0.496597 0.345592 0.796167
-9.374800 -2.078000 -13.473600 -0.341380 0.011383 -0.939848
-9.117400 -2.129300 -13.414700 0.667257 -0.173498 -0.724296
-9.825500 2.158701 -14.805700 0.451643 -0.885342 0.110172
-10.096900 2.265401 -15.465100 -0.930174 -0.333567 -0.153111
-10.408400 1.821900 -12.172800 -0.534806 0.844813 -0.014954
-10.467900 1.344301 -10.350800 -0.670492 -0.405042 0.621570
-9.952900 1.103701 -14.702100 0.615101 -0.779778 -0.116428
-10.430100 1.861301 -13.158900 -0.508499 0.786370 0.350749
-10.588800 0.324501 -13.155500 -0.553240 -0.702414 0.447768
-10.460400 0.349901 -13.095400 -0.144322 -0.983978 0.104495
-9.777000 0.744200 -10.708000 0.812769 -0.572375 -0.108463
-10.135900 0.214701 -15.460700 0.774316 -0.626667 0.087680
-9.986200 1.106101 -13.053600 0.317698 -0.944334 -0.085299
-9.838100 1.709401 -13.062000 0.724754 0.671224 -0.155400
-9.947300 1.857700 -10.714500 0.408887 -0.890805 -0.198096
-10.067200 2.753201 -13.402600 -0.376446 0.919370 -0.114139
-10.062300 0.151801 -12.015200 0.484909 0.873318 -0.046388
-10.351500 -0.905999 -14.235400 -0.602557 -0.787469 -0.129429
-9.362900 -0.211300 -10.588800 0.680593 0.489029 -0.545488
-9.767200 0.910000 -10.079400 0.398999 0.592059 -0.700156
-9.693100 0.402300 -10.266200 0.240059 -0.228095 -0.943571
-9.301100 0.788200 -9.576300 0.708548 0.498733 0.499161
-9.143800 0.450900 -9.867800 0.957183 -0.272408 -0.097720
-9.307200 -1.258600 -11.272600 0.883785 -0.451552 0.122440
-9.339600 -1.459300 -11.296700 0.504410 -0.590991 0.629475
-9.950900 0.319501 -11.300900 0.590045 0.730430 -0.343913
-9.854800 -0.146600 -11.235000 0.802087 -0.591357 -0.082980
-10.454800 -0.472499 -14.450800 -0.780908 0.519517 0.346721
-10.370800 -0.688399 -15.345300 -0.829890 0.440046 -0.342936
-10.287900 -1.048699 -15.310300 -0.576525 -0.808252 -0.119633
-10.074800 -0.380699 -14.360800 0.079287 0.980834 -0.177862
-10.241500 2.328501 -13.934500 -0.949126 -0.224738 -0.220466
-10.082700 2.752101 -13.935900 -0.506607 0.836390 -0.209204
-9.888200 2.519400 -11.960800 0.853572 0.438093 0.281899
-10.271200 2.678601 -11.861100 -0.419538 0.907163 0.031922
-10.081000 1.320701 -16.337400 0.828089 0.459853 0.320566
-9.825800 1.284801 -16.498100 0.907437 0.412427 0.080020
-10.284600 0.376701 -16.967501 -0.296182 0.416730 -0.859401
-10.227900 0.106401 -16.968100 -0.054659 -0.650288 -0.757683
-9.925400 0.402801 -13.267900 0.835902 -0.541490 -0.089358
-10.404500 1.860201 -13.022100 -0.524369 0.780541 -0.340220
-10.306000 1.831101 -13.098300 -0.047700 0.998779 -0.012635
-10.497500 1.271501 -14.109100 -0.865291 -0.486862 -0.119114
-9.917300 2.182901 -13.969200 -0.009735 -0.999847 0.013672
-10.125400 -0.532799 -14.897500 0.438459 0.872921 -0.213782
-9.925800 -0.600999 -15.342200 0.615711 0.784845 -0.070009
-10.276800 -0.698799 -15.491400 -0.721915 0.591052 -0.359783
-9.819600 0.292200 -10.210300 -0.278970 -0.773400 -0.569170
-9.658900 2.002001 -9.862200 0.658010 -0.475387 0.583941
-9.753500 2.136301 -10.117900 0.569384 0.475173 -0.670797
-9.966100 -0.314299 -11.949200 0.729484 -0.600208 0.327921
-9.959400 -0.368299 -14.412000 0.603168 0.769341 0.210334
-10.578300 1.257901 -13.150500 -0.808435 -0.440870 0.389874
-9.814600 1.155401 -10.760800 0.517380 -0.844661 -0.137272
-9.780100 1.161201 -10.399300 0.465346 -0.698019 0.544206
-10.136700 0.475801 -16.508499 0.465560 0.884854 0.015168
-10.502000 0.175701 -14.990800 -0.565813 -0.697653 0.439436
-9.758500 2.606501 -13.970500 0.719016 0.693594 -0.043611
-10.280700 -0.154400 -10.666400 -0.539567 -0.819758 0.191809
-9.272400 -1.536600 -12.120000 0.851344 0.498032 0.164617
-9.864100 1.092101 -10.085800 0.781640 0.166723 -0.601001
-10.024000 1.542601 -10.159700 0.609149 0.467818 -0.640339
-9.964800 1.257700 -10.320100 0.473403 -0.073458 -0.877743
-9.819200 0.495900 -10.123300 -0.423841 0.904782 -0.040986
-9.803200 2.009701 -12.739800 0.495224 -0.868526 -0.020264
-9.995100 2.168601 -15.702600 -0.304697 -0.607135 -0.733818
-10.454200 1.227801 -13.090000 -0.516648 -0.856105 0.011261
-9.666500 1.758700 -10.769200 0.853511 0.486587 -0.186316
-10.319700 1.947600 -10.359200 -0.385022 0.709433 0.590289
-9.632000 1.764500 -10.407700 0.745994 0.419416 0.517258
-10.157300 1.149701 -11.556000 0.589099 0.772027 -0.238533
-10.547800 0.279701 -14.147300 -0.593005 -0.805170 0.000824
-10.266500 -0.017200 -10.082000 -0.446028 -0.538072 0.715171
-10.464600 -0.294399 -13.608100 -0.852412 0.471358 -0.226234
-10.050600 0.480001 -16.639299 0.665853 0.742729 -0.070101
-9.681800 2.562101 -14.054300 0.947264 0.263649 0.182073
-9.333500 0.846700 -10.033800 0.567675 0.663350 -0.487503
-10.512400 0.118901 -11.862400 -0.839991 0.537065 -0.076937
-10.459800 0.232801 -14.678000 -0.499741 -0.846919 0.181402
-9.705100 2.486101 -14.832200 0.947905 0.318369 -0.009003
-9.750600 2.011200 -10.113500 0.418653 -0.663869 -0.619648
-9.998000 -1.105299 -11.210400 -0.960326 -0.153722 0.232551
3 0 1 2
3 1 3 4
3 1 5 3
3 4 2 1
3 6 7 8
3 8 9 6
3 10 11 12
3 10 12 13
3 13 14 10
3 15 16 17
3 15 17 18
3 19 20 21
3 21 22 19
3 23 24 25
3 25 26 23
3 27 28 29
3 27 29 30
3 31 32 33
3 31 34 32
3 31 33 35
3 36 37 38
3 39 40 41
3 42 39 41
3 43 44 45
3 46 47 48
3 49 50 51
3 51 43 49
3 52 41 40
3 40 53 52
3 54 55 56
3 56 57 54
3 58 59 60
3 60 61 58
3 62 63 64
3 64 65 62
3 66 67 68
3 69 66 68
3 70 71 72
3 72 73 70
3 74 75 76
3 77 78 79
3 80 81 82
3 82 83 80
3 84 85 86
3 87 84 86
3 88 89 90
3 91 92 87
3 86 91 87
3 83 93 94
3 83 94 95
3 80 83 95
3 78 96 97
3 97 98 78
3 74 76 99
3 100 101 102
3 103 104 68
3 103 105 104
3 68 67 103
3 29 28 20
3 20 106 29
3 107 108 109
3 34 110 111
3 111 112 34
3 113 114 110
3 115 116 117
3 117 118 115
3 119 120 121
3 119 122 120
3 119 121 123
3 124 125 126
3 126 127 124
3 119 128 129
3 129 122 119
3 58 130 35
3 58 35 131
3 132 133 134
3 135 132 134
3 136 24 137
3 138 137 139
3 139 140 138
3 18 141 142
3 17 143 141
3 18 17 141
3 14 144 145
3 146 147 148
3 149 150 151
3 91 86 85
3 85 152 91
3 153 154 155
3 156 5 1
3 157 88 158
3 158 5 157
3 97 96 7
3 7 6 97
3 159 12 11
3 160 161 75
3 74 160 75
3 162 100 102
3 163 164 69
3 69 68 163
3 27 165 28
3 59 166 167
3 167 60 59
3 54 57 168
3 169 170 171
3 171 39 169
3 172 48 50
3 50 49 172
3 173 174 125
3 173 125 124
3 172 49 175
3 176 177 171
3 176 171 178
3 54 168 179
3 180 181 182
3 37 180 182
3 183 184 185
3 139 186 187
3 188 189 190
3 188 190 191
3 16 192 193
3 193 194 16
3 13 195 196
3 13 196 197
3 197 14 13
3 98 9 8
3 98 8 78
3 198 156 199
3 200 198 199
3 158 200 199
3 201 202 2
3 203 2 4
3 204 203 4
3 205 206 207
3 207 208 205
3 197 102 209
3 209 14 197
3 188 191 210
3 210 211 188
3 212 213 214
3 214 215 212
3 216 217 107
3 218 216 107
3 219 220 221
3 221 180 219
3 222 114 223
3 223 224 222
3 225 223 114
3 226 117 116
3 120 226 116
3 227 228 229
3 52 227 229
3 42 41 176
3 230 231 232
3 230 232 233
3 230 233 234
3 135 134 34
3 222 235 236
3 237 181 180
3 30 29 106
3 106 238 30
3 68 104 184
3 184 163 68
3 196 159 11
3 11 197 196
3 239 99 240
3 241 239 240
3 81 242 147
3 243 93 82
3 152 85 84
3 84 244 152
3 88 157 89
3 156 157 5
3 150 245 148
3 148 151 150
3 207 246 247
3 247 208 207
3 100 162 145
3 145 144 100
3 194 143 17
3 214 62 65
3 65 215 214
3 216 248 26
3 26 249 216
3 220 38 250
3 220 251 38
3 250 221 220
3 252 132 135
3 130 252 135
3 166 59 253
3 229 228 254
3 254 255 229
3 127 256 173
3 124 127 173
3 116 115 230
3 172 175 257
3 170 174 178
3 178 171 170
3 179 235 224
3 258 167 166
3 259 258 166
3 106 20 260
3 238 106 260
3 69 164 185
3 261 69 185
3 262 159 196
3 263 73 72
3 72 74 263
3 81 80 242
3 264 82 81
3 146 264 81
3 198 89 157
3 204 265 266
3 267 155 154
3 154 268 267
3 269 270 94
3 271 188 211
3 211 272 271
3 160 273 274
3 274 275 160
3 71 276 72
3 277 66 105
3 278 277 105
3 279 280 28
3 37 36 219
3 219 180 37
3 225 113 236
3 236 235 225
3 281 282 55
3 46 231 115
3 46 115 118
3 118 257 46
3 115 231 230
3 283 284 43
3 283 43 51
3 227 52 53
3 53 285 227
3 286 182 259
3 259 287 286
3 33 252 61
3 288 33 61
3 105 103 138
3 138 278 105
3 140 187 289
3 290 291 274
3 193 292 142
3 193 275 292
3 142 194 193
3 14 145 10
3 247 6 205
3 205 208 247
3 203 204 293
3 294 90 89
3 88 90 295
3 198 294 89
3 293 153 203
3 9 205 6
3 13 12 296
3 275 192 161
3 276 297 72
3 138 140 277
3 138 277 278
3 279 63 62
3 298 253 131
3 131 288 298
3 251 220 299
3 300 251 299
3 229 255 177
3 229 177 176
3 45 175 49
3 49 43 45
3 50 47 301
3 301 51 50
3 302 172 257
3 170 169 256
3 281 225 235
3 235 179 281
3 221 237 180
3 165 279 28
3 103 67 289
3 103 289 303
3 291 292 274
3 292 275 274
3 272 304 195
3 195 296 272
3 270 8 305
3 306 201 155
3 306 155 265
3 4 307 308
3 0 156 1
3 149 309 245
3 245 150 149
3 148 245 309
3 144 209 241
3 241 240 144
3 188 271 189
3 183 310 163
3 183 163 184
3 249 311 217
3 287 312 237
3 287 237 286
3 224 54 179
3 313 38 314
3 313 314 315
3 255 129 285
3 302 257 118
3 232 302 118
3 227 128 228
3 173 316 174
3 129 254 317
3 317 122 129
3 166 253 287
3 259 166 287
3 236 133 112
3 112 111 236
3 181 258 259
3 181 237 258
3 182 181 259
3 108 311 249
3 108 249 109
3 64 63 212
3 64 212 310
3 64 310 183
3 318 304 211
3 210 318 211
3 209 102 319
3 319 241 209
3 149 151 264
3 151 243 264
3 84 87 92
3 92 244 84
3 158 88 200
3 202 201 306
3 95 305 77
3 304 272 211
3 160 275 161
3 292 291 15
3 15 142 292
3 140 289 67
3 103 303 138
3 312 167 258
3 38 251 314
3 42 316 169
3 169 39 42
3 47 46 257
3 257 175 47
3 301 320 51
3 126 125 174
3 174 170 126
3 255 285 53
3 255 254 129
3 37 286 250
3 112 252 33
3 33 32 112
3 321 136 137
3 321 137 138
3 321 187 186
3 321 186 136
3 15 18 142
3 291 290 161
3 161 192 291
3 272 296 262
3 271 272 262
3 270 305 94
3 322 267 268
3 204 4 306
3 156 198 157
3 151 148 147
3 147 243 151
3 146 81 147
3 70 73 239
3 70 239 241
3 70 241 319
3 262 196 323
3 214 213 22
3 26 25 109
3 109 249 26
3 303 321 138
3 34 112 32
3 37 182 286
3 254 228 123
3 123 317 254
3 126 170 256
3 127 126 256
3 123 228 128
3 128 119 123
3 232 226 324
3 324 233 232
3 281 55 223
3 111 222 236
3 220 219 299
3 218 325 248
3 248 216 218
3 21 214 22
3 271 262 189
3 71 101 240
3 71 70 101
3 240 99 71
3 77 96 78
3 93 83 82
3 154 153 293
3 266 154 293
3 3 158 199
3 295 326 200
3 199 156 0
3 269 327 79
3 79 270 269
3 146 148 309
3 73 263 239
3 262 323 189
3 22 213 63
3 279 22 63
3 249 217 216
3 286 237 221
3 286 221 250
3 222 224 235
3 223 225 281
3 232 117 226
3 120 116 230
3 43 284 44
3 128 227 285
3 285 129 128
3 313 36 38
3 60 298 288
3 288 61 60
3 64 185 65
3 23 248 186
3 63 213 212
3 191 190 318
3 318 210 191
3 144 240 101
3 100 144 101
3 146 309 149
3 149 264 146
3 293 204 266
3 202 0 2
3 3 199 307
3 202 308 307
3 307 0 202
3 8 7 305
3 195 13 296
3 15 291 192
3 192 16 15
3 20 19 260
3 139 23 186
3 25 325 218
3 218 109 25
3 112 132 252
3 131 253 59
3 59 58 131
3 122 226 120
3 316 42 174
3 46 48 231
3 231 302 232
3 282 56 55
3 56 282 168
3 168 57 56
3 312 60 167
3 261 185 184
3 184 104 261
3 140 67 66
3 66 277 140
3 297 75 290
3 297 290 273
3 297 273 72
3 75 161 290
3 97 206 98
3 95 94 305
3 306 308 202
3 4 3 307
3 155 201 203
3 198 200 326
3 326 294 198
3 7 96 77
3 77 305 7
3 196 195 323
3 275 193 192
3 27 30 260
3 27 260 19
3 27 19 165
3 139 137 24
3 24 23 139
3 325 25 24
3 61 252 130
3 58 61 130
3 37 250 38
3 171 177 39
3 301 47 175
3 175 45 301
3 320 283 51
3 283 320 44
3 44 284 283
3 177 40 39
3 315 314 251
3 251 300 315
3 288 131 35
3 35 33 288
3 104 105 261
3 321 303 289
3 289 187 321
3 290 274 273
3 72 273 160
3 160 74 72
3 206 97 246
3 246 207 206
3 93 269 94
3 265 322 266
3 268 266 322
3 244 92 91
3 244 91 152
3 242 93 243
3 242 243 147
3 95 79 327
3 74 99 239
3 239 263 74
3 101 319 102
3 215 65 164
3 215 164 163
3 163 212 215
3 163 310 212
3 108 107 217
3 217 311 108
3 136 325 24
3 112 133 132
3 35 130 34
3 34 31 35
3 324 226 122
3 317 324 122
3 176 41 52
3 52 229 176
3 42 176 178
3 317 123 121
3 121 324 317
3 134 133 113
3 134 113 110
3 134 110 34
3 133 236 113
3 218 107 109
3 325 136 186
3 186 248 325
3 22 279 165
3 165 19 22
3 318 190 189
3 189 304 318
3 14 209 144
3 242 80 95
3 95 327 242
3 243 82 264
3 266 268 154
3 4 308 306
3 201 2 203
3 0 307 199
3 270 79 78
3 78 8 270
3 304 189 323
3 323 195 304
3 276 71 99
3 99 76 276
3 162 102 197
3 11 162 197
3 185 164 65
3 30 238 260
3 237 312 258
3 168 282 281
3 281 179 168
3 316 173 256
3 256 169 316
3 302 231 48
3 48 172 302
3 47 50 48
3 45 44 320
3 301 45 320
3 53 40 177
3 177 255 53
3 300 299 313
3 315 300 313
3 298 312 287
3 253 298 287
3 64 183 185
3 140 139 187
3 21 20 28
3 280 21 28
3 143 194 142
3 141 143 142
3 162 11 10
3 10 145 162
3 246 97 6
3 6 247 246
3 3 5 158
3 155 203 153
3 88 295 200
3 90 294 326
3 295 90 326
3 205 9 98
3 206 205 98
3 296 12 159
3 262 296 159
3 194 17 16
3 280 62 214
3 214 21 280
3 23 26 248
3 36 313 299
3 299 219 36
3 111 110 114
3 114 222 111
3 130 135 34
3 324 121 234
3 234 233 324
3 42 178 174
3 121 120 230
3 230 234 121
3 232 118 117
3 113 225 114
3 224 223 55
3 55 54 224
3 312 298 60
3 279 62 280
3 69 261 105
3 105 66 69
3 101 70 319
3 76 75 297
3 276 76 297
3 95 77 79
3 242 327 269
3 269 93 242
3 265 155 267
3 267 322 265
3 204 306 265
